<svg width="251" height="29" viewBox="0 0 251 29" fill="none" xmlns="http://www.w3.org/2000/svg">
<path d="M-5.96046e-08 1.977H25.6226C27.7925 1.977 29.6407 2.67086 31.1672 4.05859C32.7189 5.44633 33.4759 7.11791 33.438 9.07335C33.438 10.0826 33.2109 11.0414 32.7568 11.9497C32.3026 12.8455 31.6781 13.6213 30.8833 14.2773C32.1449 14.9081 33.1542 15.7912 33.9111 16.9266C34.6681 18.0621 35.0465 19.3047 35.0465 20.6546C35.0465 22.6605 34.2707 24.3762 32.7189 25.8018C31.1924 27.2022 29.3127 27.9023 27.0797 27.9023H-5.96046e-08V1.977ZM7.07743 7.48377V12.5364H23.3328C24.1024 12.5364 24.7521 12.2904 25.2819 11.7984C25.8118 11.3063 26.0767 10.7134 26.0767 10.0195C26.0767 9.30043 25.8118 8.70119 25.2819 8.22179C24.7521 7.72978 24.1024 7.48377 23.3328 7.48377H7.07743ZM7.07743 17.3619V22.4145H25.1116C25.8812 22.4145 26.5309 22.1685 27.0608 21.6765C27.6285 21.1845 27.8934 20.5852 27.8556 19.8787C27.8556 19.1723 27.5843 18.573 27.0418 18.081C26.512 17.589 25.8686 17.3493 25.1116 17.3619H7.07743ZM38.0652 1.977H69.327V7.7487H45.1427V12.8013H65.9965V18.4595H45.1427V27.9023H38.0652V1.977ZM72.3457 1.977H97.9683C100.138 1.977 101.986 2.67086 103.513 4.05859C105.065 5.44633 105.822 7.11791 105.784 9.07335C105.784 10.0826 105.557 11.0414 105.102 11.9497C104.648 12.8455 104.024 13.6213 103.229 14.2773C104.491 14.9081 105.5 15.7912 106.257 16.9266C107.014 18.0621 107.392 19.3047 107.392 20.6546C107.392 22.6605 106.616 24.3762 105.065 25.8018C103.538 27.2022 101.658 27.9023 99.4254 27.9023H72.3457V1.977ZM79.4231 7.48377V12.5364H95.6785C96.4481 12.5364 97.0978 12.2904 97.6277 11.7984C98.1575 11.3063 98.4225 10.7134 98.4225 10.0195C98.4225 9.30043 98.1575 8.70119 97.6277 8.22179C97.0978 7.72978 96.4481 7.48377 95.6785 7.48377H79.4231ZM79.4231 17.3619V22.4145H97.4573C98.2269 22.4145 98.8766 22.1685 99.4065 21.6765C99.9742 21.1845 100.239 20.5852 100.201 19.8787C100.201 19.1723 99.93 18.573 99.3876 18.081C98.8577 17.589 98.2143 17.3493 97.4573 17.3619H79.4231ZM121.885 27.9023V0.773454H139.325V3.95141H125.528V12.7489H138.162V15.9269H125.528V27.9023H121.885ZM144.159 27.9023V7.3619H147.569V27.9023H144.159ZM145.864 4.64901C145.192 4.64901 144.637 4.4294 144.197 3.99017C143.758 3.55094 143.538 2.99544 143.538 2.32368C143.538 1.65191 143.758 1.09642 144.197 0.657189C144.637 0.217959 145.192 -0.00165638 145.864 -0.00165638C146.536 -0.00165638 147.091 0.217959 147.53 0.657189C147.97 1.09642 148.189 1.65191 148.189 2.32368C148.189 2.99544 147.97 3.55094 147.53 3.99017C147.091 4.4294 146.536 4.64901 145.864 4.64901ZM161.311 28.0961C159.864 28.0961 158.676 27.8765 157.745 27.4373C156.841 26.998 156.169 26.3392 155.73 25.4607C155.317 24.5564 155.11 23.4325 155.11 22.089V10.3848H152.01V7.3619H155.11V2.71123H158.521V7.3619H164.024V10.3848H158.521V21.7015C158.521 22.8641 158.766 23.7038 159.257 24.2206C159.748 24.7373 160.691 24.9957 162.086 24.9957C162.861 24.9957 163.636 24.9569 164.411 24.8794V27.9023C163.92 27.954 163.43 27.9928 162.939 28.0186C162.448 28.0703 161.905 28.0961 161.311 28.0961ZM168.883 27.9023V7.3619H172.061V11.2375C172.526 10.1006 173.34 9.1059 174.503 8.25328C175.691 7.40065 177.216 6.97434 179.076 6.97434C181.66 6.97434 183.572 7.67194 184.812 9.06714C186.078 10.4365 186.711 12.4518 186.711 15.113V27.9023H183.3V15.8881C183.3 13.9762 182.9 12.5293 182.099 11.5475C181.298 10.5657 179.955 10.0748 178.068 10.0748C176.725 10.0748 175.627 10.359 174.774 10.9274C173.922 11.4958 173.289 12.2193 172.875 13.0977C172.488 13.9762 172.294 14.9063 172.294 15.8881V27.9023H168.883ZM200.866 28.2899C199.135 28.2899 197.507 27.9153 195.983 27.166C194.484 26.4167 193.27 25.267 192.34 23.7167C191.435 22.1665 190.983 20.2029 190.983 17.8259V17.0508C190.983 14.7771 191.422 12.9039 192.301 11.4312C193.179 9.93268 194.342 8.82169 195.789 8.09825C197.236 7.34898 198.799 6.97434 200.478 6.97434C203.501 6.97434 205.839 7.80113 207.493 9.4547C209.147 11.1083 209.973 13.4465 209.973 16.4695V18.6398H194.394C194.394 20.2417 194.717 21.5206 195.363 22.4766C196.034 23.4325 196.861 24.1301 197.843 24.5694C198.851 24.9828 199.858 25.1895 200.866 25.1895C202.416 25.1895 203.605 24.9311 204.431 24.4143C205.284 23.8976 205.891 23.1871 206.253 22.2828H209.586C209.172 24.2464 208.152 25.745 206.524 26.7784C204.922 27.7861 203.036 28.2899 200.866 28.2899ZM200.672 10.0748C199.613 10.0748 198.605 10.2815 197.649 10.6949C196.693 11.0824 195.905 11.7025 195.285 12.5551C194.691 13.4078 194.394 14.5058 194.394 15.8494H206.757C206.731 14.4283 206.434 13.3044 205.865 12.4776C205.323 11.625 204.599 11.0178 203.695 10.6561C202.791 10.2686 201.783 10.0748 200.672 10.0748ZM221.603 28.2899C220.234 28.2899 219.045 28.1349 218.038 27.8248C217.03 27.489 216.19 27.0497 215.518 26.5071C214.847 25.9646 214.304 25.3316 213.891 24.6081C213.503 23.8588 213.232 23.0837 213.077 22.2828H216.487C216.668 23.1096 217.146 23.833 217.921 24.4531C218.722 25.0474 219.949 25.3445 221.603 25.3445C223.515 25.3445 224.846 25.0474 225.595 24.4531C226.344 23.833 226.719 23.1096 226.719 22.2828C226.719 21.7144 226.551 21.2235 226.215 20.8101C225.905 20.3708 225.336 19.9962 224.51 19.6862C223.709 19.3761 222.559 19.1178 221.06 18.9111C219.924 18.756 218.903 18.5364 217.999 18.2522C217.094 17.9422 216.319 17.5417 215.673 17.0508C215.028 16.5599 214.524 15.9656 214.162 15.268C213.826 14.5704 213.658 13.7436 213.658 12.7877C213.658 11.7542 213.955 10.7982 214.55 9.91977C215.144 9.04131 216.035 8.33079 217.224 7.78821C218.412 7.24563 219.872 6.97434 221.603 6.97434C223.231 6.97434 224.574 7.25855 225.634 7.82697C226.719 8.36954 227.558 9.09298 228.153 9.99728C228.747 10.9016 229.147 11.8963 229.354 12.9815H225.944C225.737 12.0772 225.298 11.3408 224.626 10.7724C223.954 10.204 222.947 9.91977 221.603 9.91977C219.924 9.91977 218.748 10.204 218.076 10.7724C217.405 11.315 217.069 11.9867 217.069 12.7877C217.069 13.7178 217.43 14.4154 218.154 14.8805C218.903 15.3455 220.26 15.7073 222.223 15.9656C223.489 16.1207 224.613 16.3532 225.595 16.6632C226.577 16.9474 227.403 17.3479 228.075 17.8647C228.747 18.3556 229.251 18.9627 229.587 19.6862C229.948 20.4096 230.129 21.2751 230.129 22.2828C230.129 23.3679 229.819 24.3627 229.199 25.267C228.579 26.1713 227.636 26.9076 226.37 27.476C225.13 28.0186 223.541 28.2899 221.603 28.2899ZM241.767 28.2899C240.397 28.2899 239.209 28.1349 238.201 27.8248C237.193 27.489 236.354 27.0497 235.682 26.5071C235.01 25.9646 234.468 25.3316 234.054 24.6081C233.667 23.8588 233.395 23.0837 233.24 22.2828H236.651C236.832 23.1096 237.31 23.833 238.085 24.4531C238.886 25.0474 240.113 25.3445 241.767 25.3445C243.678 25.3445 245.009 25.0474 245.758 24.4531C246.508 23.833 246.882 23.1096 246.882 22.2828C246.882 21.7144 246.714 21.2235 246.378 20.8101C246.068 20.3708 245.5 19.9962 244.673 19.6862C243.872 19.3761 242.723 19.1178 241.224 18.9111C240.087 18.756 239.067 18.5364 238.162 18.2522C237.258 17.9422 236.483 17.5417 235.837 17.0508C235.191 16.5599 234.687 15.9656 234.325 15.268C233.99 14.5704 233.822 13.7436 233.822 12.7877C233.822 11.7542 234.119 10.7982 234.713 9.91977C235.307 9.04131 236.199 8.33079 237.387 7.78821C238.576 7.24563 240.035 6.97434 241.767 6.97434C243.394 6.97434 244.738 7.25855 245.797 7.82697C246.882 8.36954 247.722 9.09298 248.316 9.99728C248.91 10.9016 249.311 11.8963 249.518 12.9815H246.107C245.9 12.0772 245.461 11.3408 244.789 10.7724C244.118 10.204 243.11 9.91977 241.767 9.91977C240.087 9.91977 238.912 10.204 238.24 10.7724C237.568 11.315 237.232 11.9867 237.232 12.7877C237.232 13.7178 237.594 14.4154 238.317 14.8805C239.067 15.3455 240.423 15.7073 242.387 15.9656C243.653 16.1207 244.777 16.3532 245.758 16.6632C246.74 16.9474 247.567 17.3479 248.239 17.8647C248.91 18.3556 249.414 18.9627 249.75 19.6862C250.112 20.4096 250.293 21.2751 250.293 22.2828C250.293 23.3679 249.983 24.3627 249.363 25.267C248.743 26.1713 247.799 26.9076 246.533 27.476C245.293 28.0186 243.704 28.2899 241.767 28.2899Z" fill="#FFFEFC"/>
</svg>
