<svg width="68" height="79" viewBox="0 0 68 79" fill="none" xmlns="http://www.w3.org/2000/svg">
<path d="M68 34.0466C67.9995 40.793 65.9999 47.3874 62.2545 52.9944C58.5091 58.6014 53.1864 62.9686 46.9608 65.5426L36.0536 78.062C35.7983 78.3565 35.4828 78.5926 35.1285 78.7544C34.7742 78.9163 34.3894 79 34 79C33.6106 79 33.2258 78.9163 32.8715 78.7544C32.5172 78.5926 32.2017 78.3565 31.9464 78.062L21.0392 65.5426C15.3454 63.1909 10.3962 59.3342 6.72021 54.3843C3.04424 49.4345 0.779554 43.5774 0.16803 37.4387C-0.443495 31.2999 0.621109 25.1101 3.24814 19.5303C5.87517 13.9504 9.96595 9.1901 15.0836 5.75777C20.2012 2.32543 26.1535 0.34997 32.3047 0.0423686C38.456 -0.265233 44.5751 1.10658 50.0085 4.01129C55.442 6.916 59.9858 11.2445 63.1546 16.5345C66.3233 21.8246 67.9981 27.8774 68 34.0466Z" fill="#8426D7"/>
<path d="M34 61C48.9117 61 61 48.9117 61 34C61 19.0883 48.9117 7 34 7C19.0883 7 7 19.0883 7 34C7 48.9117 19.0883 61 34 61Z" fill="#F9F9F9"/>
<path d="M48 28.8556C48 28.1633 47.7303 27.5123 47.2407 27.0229L45.9416 25.7238L46.6034 25.062C46.6071 25.0584 46.6108 25.0548 46.6145 25.0511C47.625 24.0406 47.625 22.3963 46.6145 21.3855C46.125 20.8959 45.474 20.6263 44.7817 20.6263C44.0894 20.6263 43.4384 20.8959 42.9487 21.3854C42.9446 21.3896 42.9404 21.3938 42.9363 21.398L42.276 22.0583L40.9768 20.7591C40.4873 20.2696 39.8365 20 39.1441 20C38.4517 20 37.8007 20.2697 37.3112 20.7592C37.0543 21.0162 36.8631 21.3141 36.7369 21.6322C36.3341 21.3851 35.8701 21.2527 35.3856 21.2527C34.6933 21.2527 34.0423 21.5223 33.5525 22.0121C32.5422 23.0226 32.5422 24.6669 33.5526 25.6776L36.1045 28.2293L28.2283 36.1052L25.6763 33.5534C25.1868 33.0639 24.5359 32.7943 23.8436 32.7943C23.1513 32.7943 22.5003 33.0639 22.0104 33.5536C21.1485 34.4156 21.0224 35.7384 21.6309 36.7359C21.3079 36.8647 21.0111 37.0585 20.7578 37.3119C19.7474 38.3223 19.7474 39.9666 20.7579 40.9772L22.0569 42.2762L21.3842 42.9489C20.8946 43.4385 20.625 44.0893 20.625 44.7817C20.625 45.474 20.8946 46.1249 21.3842 46.6143C21.8737 47.1039 22.5247 47.3736 23.2171 47.3736C23.9032 47.3736 24.5486 47.1088 25.0366 46.6276C25.0412 46.6232 25.0457 46.6189 25.0501 46.6144L25.7227 45.9418L27.0218 47.2409C27.5112 47.7304 28.1622 47.9999 28.8546 48H28.8547C29.5471 48 30.1981 47.7303 30.6878 47.2407C30.9446 46.9839 31.1358 46.686 31.2621 46.3681C31.6648 46.6149 32.1286 46.7473 32.6129 46.7473H32.613C33.3053 46.7473 33.9564 46.4777 34.4461 45.9881C34.9356 45.4985 35.2052 44.8476 35.2052 44.1553C35.2052 43.4629 34.9355 42.812 34.446 42.3226L31.894 39.7707L39.7705 31.8948L42.3224 34.4464C42.812 34.936 43.4629 35.2055 44.1553 35.2056H44.1554C44.8476 35.2056 45.4985 34.936 45.988 34.4465C46.4778 33.957 46.7474 33.306 46.7475 32.6136C46.7475 32.1297 46.6153 31.6662 46.3687 31.2636C46.6913 31.1349 46.9877 30.9413 47.2409 30.6883C47.7304 30.1987 48 29.5479 48 28.8556ZM23.901 45.4432C23.8972 45.4469 23.8934 45.4506 23.8896 45.4544C23.71 45.634 23.4712 45.733 23.2171 45.733C22.963 45.733 22.7241 45.634 22.5443 45.4542C22.3647 45.2746 22.2657 45.0358 22.2657 44.7817C22.2657 44.5276 22.3647 44.2887 22.5444 44.109L23.2169 43.4364L24.5625 44.7817L23.901 45.4432ZM43.4362 23.2184L44.1083 22.5464C44.1115 22.5432 44.1146 22.5401 44.1176 22.5369C44.2965 22.3627 44.5317 22.267 44.7817 22.267C45.0358 22.267 45.2748 22.366 45.4543 22.5455C45.8226 22.914 45.8253 23.5118 45.4621 23.8833C45.4593 23.886 45.4564 23.8888 45.4537 23.8916L44.7816 24.5637L44.1089 23.891L43.4362 23.2184ZM38.4715 21.9192C38.6511 21.7396 38.8899 21.6406 39.1441 21.6406C39.3982 21.6406 39.6371 21.7396 39.8168 21.9193L42.9487 25.0512L44.2015 26.3039C44.2016 26.304 44.2017 26.3041 44.2018 26.3042L46.0807 28.1831C46.2604 28.3627 46.3594 28.6015 46.3594 28.8556C46.3594 29.1096 46.2604 29.3486 46.0808 29.5282C45.901 29.7079 45.6621 29.8069 45.4079 29.8069C45.1543 29.8069 44.9158 29.7082 44.7362 29.5292L38.47 23.2634C38.1006 22.8924 38.1009 22.2898 38.4715 21.9192ZM29.5276 46.0806C29.3478 46.2603 29.1088 46.3594 28.8546 46.3594C28.6004 46.3593 28.3615 46.2604 28.1819 46.0808L26.3031 44.2021C26.3029 44.2019 26.3028 44.2018 26.3027 44.2017L25.9041 43.8031L21.9181 39.8173C21.5473 39.4463 21.5472 38.8428 21.9181 38.4719C22.0978 38.2921 22.3367 38.1931 22.5908 38.1931C22.8446 38.1931 23.0831 38.2919 23.2628 38.4712L29.531 44.7392C29.8981 45.1104 29.8971 45.7111 29.5276 46.0806ZM33.5644 44.1553C33.5644 44.4094 33.4654 44.6484 33.2858 44.828C33.1061 45.0077 32.8671 45.1067 32.6129 45.1067C32.6129 45.1067 32.6129 45.1067 32.6129 45.1067C32.3587 45.1067 32.1197 45.0077 31.9401 44.8281L30.6947 43.5827C30.6923 43.5803 30.6901 43.5777 30.6877 43.5753L24.4236 37.3117L24.4234 37.3116L23.1707 36.059C22.7998 35.6881 22.7998 35.0846 23.1706 34.7138C23.3504 34.534 23.5895 34.435 23.8437 34.435C24.0977 34.435 24.3365 34.5339 24.5161 34.7135L27.6477 37.8448C27.6478 37.845 27.648 37.8452 27.6482 37.8454L29.9972 40.1942L33.2859 43.4827C33.4655 43.6623 33.5644 43.9012 33.5644 44.1553ZM30.7338 38.6106L30.061 37.938L29.3884 37.2653L37.2647 29.3893L38.6103 30.7347L30.7338 38.6106ZM44.8279 33.2863C44.6482 33.466 44.4093 33.565 44.1553 33.565C43.9012 33.565 43.6621 33.466 43.4824 33.2864L40.3526 30.1567C40.3519 30.156 40.3513 30.1553 40.3506 30.1546L37.8448 27.6491C37.8444 27.6487 37.844 27.6484 37.8437 27.648L34.7129 24.5175C34.342 24.1465 34.342 23.5429 34.7127 23.172C34.8925 22.9922 35.1315 22.8932 35.3857 22.8932C35.6398 22.8932 35.8788 22.9922 36.0585 23.1719L37.3077 24.421C37.3088 24.4222 37.3099 24.4235 37.3111 24.4247L43.5753 30.6884C43.5759 30.689 43.5764 30.6895 43.577 30.69L44.828 31.9409C45.0077 32.1206 45.1067 32.3595 45.1067 32.6136C45.1067 32.8678 45.0077 33.1066 44.8279 33.2863Z" fill="#8426D7"/>
</svg>
