<svg width="16" height="17" viewBox="0 0 16 17" fill="none" xmlns="http://www.w3.org/2000/svg">
<path d="M8 0.125C10.6421 0.125 12.792 2.27487 12.792 4.91699C12.7919 6.13062 12.3336 7.23565 11.5879 8.08008C13.8888 9.44184 15.125 12.217 15.125 16C15.125 16.3915 14.8085 16.7078 14.417 16.708H1.58301C1.1922 16.7078 0.875001 16.3916 0.875 16C0.875 12.218 2.11069 9.44201 4.41113 8.08008C3.66569 7.23571 3.20809 6.13039 3.20801 4.91699C3.20801 2.27487 5.35788 0.125 8 0.125ZM10.3955 9.05566C9.69019 9.46623 8.87401 9.70801 8 9.70801C7.12569 9.70801 6.309 9.46649 5.60352 9.05566C3.14262 10.1586 2.41928 12.8784 2.30859 15.292H13.6904C13.5803 12.8782 12.8565 10.1578 10.3955 9.05566ZM8 1.54199C6.13879 1.54199 4.625 3.05578 4.625 4.91699C4.62518 6.77806 6.13889 8.29199 8 8.29199C9.86111 8.29199 11.3748 6.77806 11.375 4.91699C11.375 3.05578 9.86121 1.54199 8 1.54199Z" fill="#FFFEFC" stroke="#FFFEFC" stroke-width="0.25"/>
</svg>
