<svg width="176" height="22" viewBox="0 0 176 22" fill="none" xmlns="http://www.w3.org/2000/svg">
<path d="M4.59532 8.77864H7.89127C10.8492 8.77864 12.3281 7.90184 12.3281 6.14822C12.3281 4.58475 10.9548 3.80302 8.20819 3.80302H4.59532V8.77864ZM4.59532 17.6524H9.15895C11.9056 17.6524 13.2789 16.7544 13.2789 14.9586C13.2789 14.1134 12.8563 13.4585 12.0112 12.9937C11.1661 12.5077 10.1097 12.2647 8.84203 12.2647H4.59532V17.6524ZM0 21.4554V0H8.23988C11.1767 0 13.3845 0.538761 14.8635 1.61628C16.3636 2.69381 17.1136 4.09881 17.1136 5.8313C17.1136 7.98635 16.0995 9.47586 14.0712 10.2999C16.7333 11.2506 18.0644 12.9091 18.0644 15.2755C18.0644 17.177 17.3038 18.6876 15.7825 19.8074C14.2825 20.9061 12.0852 21.4554 9.19064 21.4554H0Z" fill="#FFFEFC"/>
<path d="M19.365 19.1419C19.365 18.3179 19.6291 17.6524 20.1573 17.1453C20.7066 16.6171 21.3721 16.353 22.1539 16.353C22.9356 16.353 23.5906 16.6171 24.1188 17.1453C24.6681 17.6524 24.9428 18.3179 24.9428 19.1419C24.9428 19.987 24.6787 20.6631 24.1505 21.1702C23.6223 21.6772 22.9567 21.9308 22.1539 21.9308C21.351 21.9308 20.6855 21.6772 20.1573 21.1702C19.6291 20.6631 19.365 19.987 19.365 19.1419Z" fill="#FFFEFC"/>
<path d="M27.5111 21.4554V0H42.0893V3.80302H32.1064V9.15895H40.8216V12.962H32.1064V21.4554H27.5111Z" fill="#FFFEFC"/>
<path d="M40.5377 19.1419C40.5377 18.3179 40.8018 17.6524 41.33 17.1453C41.8793 16.6171 42.5448 16.353 43.3266 16.353C44.1083 16.353 44.7633 16.6171 45.2915 17.1453C45.8408 17.6524 46.1154 18.3179 46.1154 19.1419C46.1154 19.987 45.8513 20.6631 45.3232 21.1702C44.795 21.6772 44.1294 21.9308 43.3266 21.9308C42.5237 21.9308 41.8582 21.6772 41.33 21.1702C40.8018 20.6631 40.5377 19.987 40.5377 19.1419Z" fill="#FFFEFC"/>
<path d="M53.2791 8.77864H56.575C59.5329 8.77864 61.0119 7.90184 61.0119 6.14822C61.0119 4.58475 59.6386 3.80302 56.8919 3.80302H53.2791V8.77864ZM53.2791 17.6524H57.8427C60.5893 17.6524 61.9626 16.7544 61.9626 14.9586C61.9626 14.1134 61.5401 13.4585 60.695 12.9937C59.8499 12.5077 58.7935 12.2647 57.5258 12.2647H53.2791V17.6524ZM48.6838 21.4554V0H56.9236C59.8604 0 62.0683 0.538761 63.5472 1.61628C65.0473 2.69381 65.7974 4.09881 65.7974 5.8313C65.7974 7.98635 64.7832 9.47586 62.7549 10.2999C65.4171 11.2506 66.7481 12.9091 66.7481 15.2755C66.7481 17.177 65.9875 18.6876 64.4663 19.8074C62.9662 20.9061 60.7689 21.4554 57.8744 21.4554H48.6838Z" fill="#FFFEFC"/>
<path d="M78.748 21.6422V1.17083H91.9082V3.5689H81.4971V10.2075H91.0308V12.6055H81.4971V21.6422H78.748Z" fill="#FFFEFC"/>
<path d="M95.5558 21.6422V6.14244H98.1293V21.6422H95.5558ZM96.8426 4.09531C96.3357 4.09531 95.9165 3.92959 95.585 3.59815C95.2536 3.26671 95.0879 2.84753 95.0879 2.34062C95.0879 1.83371 95.2536 1.41454 95.585 1.0831C95.9165 0.751658 96.3357 0.585938 96.8426 0.585938C97.3495 0.585938 97.7687 0.751658 98.1001 1.0831C98.4315 1.41454 98.5973 1.83371 98.5973 2.34062C98.5973 2.84753 98.4315 3.26671 98.1001 3.59815C97.7687 3.92959 97.3495 4.09531 96.8426 4.09531Z" fill="#FFFEFC"/>
<path d="M108.499 21.7884C107.407 21.7884 106.51 21.6227 105.808 21.2912C105.126 20.9598 104.619 20.4626 104.288 19.7998C103.976 19.1174 103.82 18.2693 103.82 17.2555V8.42354H101.48V6.14244H103.82V2.63307H106.393V6.14244H110.546V8.42354H106.393V16.963C106.393 17.8404 106.578 18.474 106.949 18.8639C107.319 19.2539 108.031 19.4488 109.084 19.4488C109.669 19.4488 110.254 19.4196 110.838 19.3611V21.6422C110.468 21.6812 110.098 21.7104 109.727 21.7299C109.357 21.7689 108.947 21.7884 108.499 21.7884Z" fill="#FFFEFC"/>
<path d="M114.213 21.6422V6.14244H116.611V9.06692C116.962 8.20908 117.576 7.45846 118.454 6.81507C119.35 6.17169 120.501 5.85 121.904 5.85C123.854 5.85 125.297 6.3764 126.233 7.42921C127.188 8.46253 127.666 9.98326 127.666 11.9914V21.6422H125.092V12.5763C125.092 11.1336 124.79 10.0417 124.186 9.30088C123.581 8.56001 122.567 8.18958 121.144 8.18958C120.13 8.18958 119.302 8.40404 118.658 8.83296C118.015 9.26189 117.537 9.80779 117.225 10.4707C116.933 11.1336 116.787 11.8354 116.787 12.5763V21.6422H114.213Z" fill="#FFFEFC"/>
<path d="M138.347 21.9346C137.041 21.9346 135.812 21.6519 134.662 21.0865C133.531 20.5211 132.615 19.6535 131.913 18.4837C131.231 17.3139 130.889 15.8322 130.889 14.0385V13.4536C130.889 11.7379 131.221 10.3244 131.884 9.21315C132.547 8.08235 133.424 7.244 134.516 6.69809C135.608 6.1327 136.787 5.85 138.054 5.85C140.335 5.85 142.1 6.47389 143.348 7.72166C144.595 8.96944 145.219 10.7339 145.219 13.015V14.6527H133.463C133.463 15.8615 133.707 16.8265 134.194 17.5479C134.701 18.2693 135.325 18.7957 136.066 19.1271C136.826 19.4391 137.586 19.595 138.347 19.595C139.517 19.595 140.413 19.4001 141.037 19.0101C141.681 18.6202 142.139 18.0841 142.412 17.4017H144.927C144.615 18.8834 143.845 20.0142 142.617 20.7941C141.408 21.5544 139.985 21.9346 138.347 21.9346ZM138.201 8.18958C137.401 8.18958 136.641 8.34555 135.92 8.65749C135.198 8.94994 134.604 9.41786 134.136 10.0612C133.687 10.7046 133.463 11.5332 133.463 12.5471H142.792C142.773 11.4747 142.548 10.6266 142.119 10.0028C141.71 9.35937 141.164 8.9012 140.482 8.62825C139.799 8.3358 139.039 8.18958 138.201 8.18958Z" fill="#FFFEFC"/>
<path d="M153.995 21.9346C152.962 21.9346 152.065 21.8176 151.305 21.5837C150.544 21.3302 149.911 20.9988 149.404 20.5894C148.897 20.1799 148.487 19.7023 148.175 19.1564C147.883 18.591 147.678 18.0061 147.561 17.4017H150.135C150.271 18.0256 150.632 18.5715 151.217 19.0394C151.821 19.4878 152.747 19.712 153.995 19.712C155.438 19.712 156.442 19.4878 157.007 19.0394C157.573 18.5715 157.855 18.0256 157.855 17.4017C157.855 16.9728 157.729 16.6023 157.475 16.2904C157.241 15.9589 156.812 15.6762 156.188 15.4423C155.584 15.2083 154.716 15.0134 153.586 14.8574C152.728 14.7404 151.958 14.5747 151.275 14.3602C150.593 14.1263 150.008 13.8241 149.521 13.4536C149.033 13.0832 148.653 12.6348 148.38 12.1084C148.127 11.582 148 10.9581 148 10.2367C148 9.45685 148.224 8.73548 148.673 8.0726C149.121 7.40972 149.794 6.87356 150.69 6.46414C151.587 6.05471 152.689 5.85 153.995 5.85C155.223 5.85 156.237 6.06446 157.037 6.49338C157.855 6.90281 158.489 7.44871 158.937 8.13109C159.386 8.81347 159.688 9.56408 159.844 10.3829H157.271C157.115 9.70056 156.783 9.14491 156.276 8.71598C155.769 8.28706 155.009 8.0726 153.995 8.0726C152.728 8.0726 151.841 8.28706 151.334 8.71598C150.827 9.12541 150.573 9.63232 150.573 10.2367C150.573 10.9386 150.846 11.465 151.392 11.8159C151.958 12.1669 152.981 12.4398 154.463 12.6348C155.418 12.7518 156.266 12.9272 157.007 13.1612C157.748 13.3757 158.372 13.6778 158.879 14.0678C159.386 14.4382 159.766 14.8964 160.02 15.4423C160.292 15.9882 160.429 16.6413 160.429 17.4017C160.429 18.2205 160.195 18.9712 159.727 19.6535C159.259 20.3359 158.548 20.8916 157.592 21.3205C156.656 21.7299 155.457 21.9346 153.995 21.9346Z" fill="#FFFEFC"/>
<path d="M169.21 21.9346C168.177 21.9346 167.28 21.8176 166.52 21.5837C165.759 21.3302 165.126 20.9988 164.619 20.5894C164.112 20.1799 163.703 19.7023 163.391 19.1564C163.098 18.591 162.893 18.0061 162.777 17.4017H165.35C165.487 18.0256 165.847 18.5715 166.432 19.0394C167.036 19.4878 167.963 19.712 169.21 19.712C170.653 19.712 171.657 19.4878 172.223 19.0394C172.788 18.5715 173.071 18.0256 173.071 17.4017C173.071 16.9728 172.944 16.6023 172.691 16.2904C172.457 15.9589 172.028 15.6762 171.404 15.4423C170.799 15.2083 169.932 15.0134 168.801 14.8574C167.943 14.7404 167.173 14.5747 166.491 14.3602C165.808 14.1263 165.223 13.8241 164.736 13.4536C164.249 13.0832 163.868 12.6348 163.595 12.1084C163.342 11.582 163.215 10.9581 163.215 10.2367C163.215 9.45685 163.439 8.73548 163.888 8.0726C164.336 7.40972 165.009 6.87356 165.906 6.46414C166.803 6.05471 167.904 5.85 169.21 5.85C170.439 5.85 171.452 6.06446 172.252 6.49338C173.071 6.90281 173.704 7.44871 174.153 8.13109C174.601 8.81347 174.903 9.56408 175.059 10.3829H172.486C172.33 9.70056 171.998 9.14491 171.491 8.71598C170.985 8.28706 170.224 8.0726 169.21 8.0726C167.943 8.0726 167.056 8.28706 166.549 8.71598C166.042 9.12541 165.789 9.63232 165.789 10.2367C165.789 10.9386 166.062 11.465 166.608 11.8159C167.173 12.1669 168.197 12.4398 169.678 12.6348C170.634 12.7518 171.482 12.9272 172.223 13.1612C172.963 13.3757 173.587 13.6778 174.094 14.0678C174.601 14.4382 174.981 14.8964 175.235 15.4423C175.508 15.9882 175.644 16.6413 175.644 17.4017C175.644 18.2205 175.41 18.9712 174.942 19.6535C174.474 20.3359 173.763 20.8916 172.807 21.3205C171.872 21.7299 170.673 21.9346 169.21 21.9346Z" fill="#FFFEFC"/>
</svg>
