<svg width="27" height="30" viewBox="0 0 27 30" fill="none" xmlns="http://www.w3.org/2000/svg">
<path d="M4.14258 0.151367C4.85566 0.145844 5.55697 0.334268 6.17578 0.697266H6.17676L24.4307 11.2822H24.4316C25.044 11.6309 25.5544 12.1418 25.9092 12.7607C26.2639 13.3795 26.4511 14.0842 26.4512 14.8018C26.4512 15.5195 26.264 16.2249 25.9092 16.8438C25.5544 17.4627 25.044 17.9736 24.4316 18.3223L24.4307 18.3213L6.17676 28.9062L6.17773 28.9072C5.56656 29.2629 4.87573 29.4503 4.17285 29.4512H4.17188C3.44818 29.4495 2.73833 29.2492 2.11523 28.8721V28.8711C1.51734 28.5192 1.02049 28.0123 0.675781 27.4004C0.330694 26.7878 0.14926 26.0921 0.150391 25.3848V4.2168C0.14926 3.50949 0.330694 2.81376 0.675781 2.20117C1.02087 1.58872 1.51846 1.08045 2.11719 0.728516C2.73051 0.355964 3.42953 0.156967 4.14258 0.151367ZM4.17188 2.15918C3.79783 2.15981 3.43007 2.26322 3.10742 2.45898L3.10547 2.46094L3.10449 2.45996C2.80361 2.63568 2.5528 2.89096 2.37793 3.19922C2.20292 3.50775 2.11077 3.85912 2.11035 4.2168V25.3877C2.11077 25.7454 2.20292 26.0967 2.37793 26.4053C2.55286 26.7136 2.80446 26.9678 3.10547 27.1436L3.1084 27.1455C3.42651 27.3388 3.7883 27.4424 4.15723 27.4453C4.52629 27.4482 4.88989 27.3504 5.21094 27.1621H5.21191L23.4678 16.5762L23.4697 16.5752C23.7787 16.4021 24.0365 16.1459 24.2168 15.834C24.3971 15.522 24.4932 15.1652 24.4932 14.8018C24.4931 14.4385 24.397 14.0824 24.2168 13.7705C24.0366 13.4586 23.7787 13.2024 23.4697 13.0293L23.4678 13.0283L5.21191 2.44238C4.8947 2.25751 4.53598 2.16008 4.17188 2.15918Z" fill="currentColor" stroke="currentColor" stroke-width="0.3"/>
</svg>
