<svg width="20" height="20" viewBox="0 0 20 20" fill="none" xmlns="http://www.w3.org/2000/svg">
<path d="M10.001 1.9375C10.2529 1.93746 10.5048 1.96209 10.7529 2.01172C11.8552 2.23218 12.8055 2.92565 13.3516 3.9082L18.5059 13.1875C18.8032 13.7227 18.9599 14.3252 18.96 14.9375C18.9599 15.6214 18.7694 16.2609 18.4385 16.8057C18.3782 16.9049 18.3134 17.0011 18.2441 17.0938C18.2096 17.14 18.1734 17.185 18.1367 17.2295C17.8796 17.541 17.5714 17.8088 17.2246 18.0195C16.9275 18.2 16.6022 18.3389 16.2568 18.4277C16.1418 18.4573 16.0244 18.4808 15.9053 18.499C15.786 18.5173 15.6648 18.5299 15.542 18.5361C15.4805 18.5393 15.4187 18.541 15.3564 18.541H4.64648L4.46094 18.5361C4.21538 18.5237 3.97627 18.4869 3.74609 18.4277C3.51567 18.3685 3.29416 18.2869 3.08398 18.1855C2.97892 18.1349 2.87644 18.0798 2.77734 18.0195C2.62885 17.9293 2.48789 17.8279 2.35449 17.7178C2.17657 17.5709 2.01305 17.4074 1.86621 17.2295C1.68265 17.0071 1.52496 16.7625 1.39844 16.5C1.34783 16.395 1.30214 16.2871 1.26172 16.1768C1.20108 16.0112 1.15223 15.84 1.11621 15.6641C1.06818 15.4294 1.04297 15.1863 1.04297 14.9375C1.04299 14.6316 1.08217 14.3281 1.1582 14.0342C1.17724 13.9607 1.19803 13.8876 1.22168 13.8154C1.29264 13.5986 1.38452 13.3884 1.49609 13.1875L6.65137 3.9082C6.94454 3.38069 7.35458 2.93691 7.8418 2.60449C7.88647 2.57402 7.9316 2.5442 7.97754 2.51562C8.18872 2.38427 8.41295 2.27315 8.64746 2.18457C8.84173 2.11122 9.04336 2.05305 9.25 2.01172C9.49785 1.96217 9.74945 1.93752 10.001 1.9375ZM10.001 12.707C9.65615 12.7072 9.3763 12.9872 9.37598 13.332V13.749C9.37598 14.0941 9.65595 14.3738 10.001 14.374C10.3462 14.374 10.626 14.0942 10.626 13.749V13.332C10.6257 12.9871 10.346 12.707 10.001 12.707ZM10.001 6.875C9.65595 6.87518 9.37598 7.15493 9.37598 7.5V10.833C9.37618 11.1779 9.65607 11.4578 10.001 11.458C10.346 11.458 10.6258 11.178 10.626 10.833V7.5C10.626 7.15482 10.3462 6.875 10.001 6.875Z" fill="#F44336"/>
</svg>
