<svg width="54" height="54" viewBox="0 0 54 54" fill="none" xmlns="http://www.w3.org/2000/svg">
<rect width="54" height="54" rx="10.8" fill="#FAF8F8"/>
<path d="M22.5703 34.7736C23.5413 35.9832 24.5301 37.5043 25.0476 38.423C25.6778 39.6173 25.9391 40.4238 26.408 41.8682C26.6821 42.6593 26.9434 42.8992 27.4916 42.8992C28.0911 42.8992 28.3652 42.496 28.5753 41.8682C29.0133 40.5131 29.3515 39.4821 29.8869 38.4995C31.9518 34.6205 35.318 31.8643 37.2138 28.0873C37.2138 28.0873 38.4614 25.7802 38.4614 22.5494C38.4614 19.538 37.2317 17.4453 37.2317 17.4453L22.578 34.7991L22.5703 34.7736Z" fill="#34A853"/>
<path d="M17.6 27.676C18.781 30.3557 21.0328 32.7035 22.5699 34.7707L30.7166 25.1495C30.7166 25.1495 29.5663 26.6501 27.4887 26.6501C25.1728 26.6501 23.2873 24.8127 23.2873 22.4903C23.2873 20.8927 24.2428 19.7852 24.2428 19.7852C18.2481 20.6733 18.5812 22.1203 17.582 27.6709L17.6 27.676Z" fill="#FBBC04"/>
<path d="M30.8202 12.0508C33.5357 12.921 35.8414 14.7559 37.2248 17.4356L30.7177 25.1682C30.7177 25.1682 31.6733 24.0555 31.6733 22.4631C31.6733 20.0922 29.6648 18.3032 27.4975 18.3032C25.4403 18.3032 24.2695 19.786 24.2695 19.786C24.7691 18.6529 29.9312 12.4361 30.8279 12.0533L30.8202 12.0508Z" fill="#4285F4"/>
<path d="M19.0859 15.4515C20.705 13.5324 23.5435 11.5469 27.4632 11.5469C29.3564 11.5469 30.7936 12.0471 30.7936 12.0471L24.2609 19.7797C23.8202 19.5416 19.5215 16.2069 19.0859 15.4413V15.4515Z" fill="#1A73E8"/>
<path d="M17.5995 27.6831C17.5995 27.6831 16.5312 25.57 16.5312 22.528C16.5312 19.6442 17.6636 17.1177 19.0931 15.4844L24.268 19.8228L17.6072 27.6831H17.5995Z" fill="#EA4335"/>
</svg>
