<svg width="11" height="18" viewBox="0 0 11 18" fill="none" xmlns="http://www.w3.org/2000/svg">
<path d="M5.54205 0.162909L10.0868 4.70779C10.192 4.8129 10.25 4.95323 10.25 5.10285C10.25 5.25247 10.192 5.39279 10.0868 5.49791L9.75223 5.83261C9.53419 6.0504 9.17981 6.0504 8.9621 5.83261L5.14566 2.01616L1.32498 5.83684C1.21978 5.94196 1.07954 6 0.93 6C0.780295 6 0.640055 5.94196 0.534772 5.83684L0.200239 5.50215C0.0950384 5.39694 0.0370827 5.2567 0.0370827 5.10708C0.0370827 4.95746 0.0950384 4.81714 0.200239 4.71202L4.74919 0.162909C4.85472 0.0575418 4.99562 -0.000330448 5.14541 1.43051e-06C5.29578 -0.000330448 5.4366 0.0575418 5.54205 0.162909Z" fill="#C0C0C0"/>
<path d="M5.54205 17.8371L10.0868 13.2922C10.192 13.1871 10.25 13.0468 10.25 12.8972C10.25 12.7475 10.192 12.6072 10.0868 12.5021L9.75223 12.1674C9.53419 11.9496 9.17981 11.9496 8.9621 12.1674L5.14566 15.9838L1.32498 12.1632C1.21978 12.058 1.07954 12 0.93 12C0.780295 12 0.640055 12.058 0.534772 12.1632L0.200239 12.4979C0.0950384 12.6031 0.0370827 12.7433 0.0370827 12.8929C0.0370827 13.0425 0.0950384 13.1829 0.200239 13.288L4.74919 17.8371C4.85472 17.9425 4.99562 18.0003 5.14541 18C5.29578 18.0003 5.4366 17.9425 5.54205 17.8371Z" fill="#C0C0C0"/>
</svg>
