<svg width="98" height="110" viewBox="0 0 98 110" fill="none" xmlns="http://www.w3.org/2000/svg">
<g filter="url(#filter0_d_4447_49494)">
<path d="M49 12C42.3718 12.0076 36.0172 14.7443 31.3304 19.6099C26.6435 24.4755 24.0073 31.0724 24 37.9534C24 51.6619 45 70.4807 47.385 72.583C48.309 73.3937 49.691 73.3937 50.615 72.583C53 70.4807 74 51.6619 74 37.9534C73.9927 31.0724 71.3565 24.4755 66.6696 19.6099C61.9828 14.7443 55.6282 12.0076 49 12Z" fill="#8426D7"/>
<circle cx="49" cy="37" r="17" fill="#FFFEFC"/>
<path d="M43 44C43 40.7783 45.6863 38.1667 49 38.1667C52.3137 38.1667 55 40.7783 55 44M52.4286 32.3333C52.4286 34.1743 50.8935 35.6667 49 35.6667C47.1065 35.6667 45.5714 34.1743 45.5714 32.3333C45.5714 30.4924 47.1065 29 49 29C50.8935 29 52.4286 30.4924 52.4286 32.3333Z" fill="#0E0E0E"/>
</g>
<defs>
<filter id="filter0_d_4447_49494" x="0" y="0" width="98" height="110" filterUnits="userSpaceOnUse" color-interpolation-filters="sRGB">
<feFlood flood-opacity="0" result="BackgroundImageFix"/>
<feColorMatrix in="SourceAlpha" type="matrix" values="0 0 0 0 0 0 0 0 0 0 0 0 0 0 0 0 0 0 127 0" result="hardAlpha"/>
<feOffset dy="12"/>
<feGaussianBlur stdDeviation="12"/>
<feComposite in2="hardAlpha" operator="out"/>
<feColorMatrix type="matrix" values="0 0 0 0 0 0 0 0 0 0 0 0 0 0 0 0 0 0 0.14 0"/>
<feBlend mode="normal" in2="BackgroundImageFix" result="effect1_dropShadow_4447_49494"/>
<feBlend mode="normal" in="SourceGraphic" in2="effect1_dropShadow_4447_49494" result="shape"/>
</filter>
</defs>
</svg>
