<svg width="27" height="30" viewBox="0 0 27 30" fill="none" xmlns="http://www.w3.org/2000/svg">
<path d="M4.14258 0.150391C4.85566 0.144867 5.55697 0.333291 6.17578 0.696289H6.17676L24.4307 11.2812H24.4316C25.044 11.6299 25.5544 12.1409 25.9092 12.7598C26.2639 13.3785 26.4511 14.0832 26.4512 14.8008C26.4512 15.5185 26.264 16.2239 25.9092 16.8428C25.5544 17.4617 25.044 17.9726 24.4316 18.3213L24.4307 18.3203L6.17676 28.9053L6.17773 28.9062C5.56656 29.2619 4.87573 29.4493 4.17285 29.4502H4.17188C3.44818 29.4485 2.73833 29.2482 2.11523 28.8711V28.8701C1.51734 28.5182 1.02049 28.0113 0.675781 27.3994C0.330694 26.7868 0.14926 26.0911 0.150391 25.3838V4.21582C0.14926 3.50851 0.330694 2.81278 0.675781 2.2002C1.02087 1.58775 1.51846 1.07948 2.11719 0.727539C2.73051 0.354987 3.42953 0.155991 4.14258 0.150391ZM4.17188 2.1582C3.79783 2.15884 3.43007 2.26225 3.10742 2.45801L3.10547 2.45996L3.10449 2.45898C2.80361 2.6347 2.5528 2.88998 2.37793 3.19824C2.20292 3.50677 2.11077 3.85814 2.11035 4.21582V25.3867C2.11077 25.7444 2.20292 26.0958 2.37793 26.4043C2.55286 26.7127 2.80446 26.9669 3.10547 27.1426L3.1084 27.1445C3.42651 27.3378 3.7883 27.4414 4.15723 27.4443C4.52629 27.4473 4.88989 27.3494 5.21094 27.1611H5.21191L23.4678 16.5752L23.4697 16.5742C23.7787 16.4012 24.0365 16.1449 24.2168 15.833C24.3971 15.521 24.4932 15.1642 24.4932 14.8008C24.4931 14.4375 24.397 14.0814 24.2168 13.7695C24.0366 13.4576 23.7787 13.2014 23.4697 13.0283L23.4678 13.0273L5.21191 2.44141C4.8947 2.25653 4.53598 2.1591 4.17188 2.1582Z" fill="#3B2D47" stroke="#3B2D47" stroke-width="0.3"/>
</svg>
