<svg width="39" height="49" viewBox="0 0 39 49" fill="none" xmlns="http://www.w3.org/2000/svg">
<mask id="path-1-outside-1_5177_15840" maskUnits="userSpaceOnUse" x="-0.785156" y="-0.785645" width="40" height="50" fill="black">
<rect fill="white" x="-0.785156" y="-0.785645" width="40" height="50"/>
<path d="M1.30756 12.4619C1.22539 12.5377 1.9855 12.9217 2.29998 13.2809C2.36319 13.3534 2.76142 13.3287 2.94 13.2908C2.63342 13.0601 1.38184 12.3927 1.30756 12.4602V12.4619Z"/>
<path d="M19.2017 1.98818C19.2696 1.9371 19.2222 1.87283 19.1859 1.82339C18.9457 1.49544 18.6328 1.31086 18.1429 1.25977C18.4305 1.64046 18.726 1.84975 19.0689 1.99478C19.1084 2.01126 19.1732 2.0129 19.2033 1.98983L19.2017 1.98818Z"/>
<path d="M1.42233 12.8646C1.4887 12.9388 1.70204 13.2881 2.11291 13.2815C2.11291 13.2815 1.4571 12.7509 1.16316 12.6158C1.16316 12.6158 1.31487 12.7476 1.42075 12.8663L1.42233 12.8646Z"/>
<path d="M3.37979 12.7751C3.49989 12.8262 3.66266 12.8493 3.77644 12.7686C4.84471 12.0022 4.91108 11.3397 4.93162 11.2013C5.11968 9.97027 4.38011 8.77053 3.25178 8.48049C2.08869 8.18055 0.870296 8.87436 0.50209 10.0461C0.299814 10.6937 0.374087 11.32 0.672761 11.9132C0.895581 12.3566 1.50083 12.2807 1.9196 12.5362C1.9196 12.5362 2.02074 12.2 3.37979 12.7751Z"/>
<path d="M20.5373 5.77545C20.4662 6.06879 20.5041 6.25501 20.5736 6.43629C20.6764 6.23359 20.6132 6.05066 20.5373 5.77545Z"/>
<path d="M16.4909 8.05883C16.4766 8.17913 16.4751 8.30767 16.6457 8.28955C17.2652 8.22363 17.8294 8.02752 18.226 7.48698C18.3398 7.33042 18.4204 7.12112 18.3256 6.94644C18.2402 6.79153 18.0522 6.91183 17.9147 6.92007C17.3584 6.95633 17.2478 6.87557 17.093 6.33174C17.0155 6.06147 16.9254 5.79285 16.8117 5.53906C16.6426 5.16167 16.592 4.77274 16.6663 4.37228C16.7579 3.88612 16.7374 3.39997 16.7232 2.91216C16.7137 2.63036 16.701 2.34361 16.739 2.0651C16.7753 1.78988 16.8385 1.44875 17.1767 1.44381C17.4833 1.43886 17.6176 1.72726 17.7029 2.01072C17.7172 2.06015 17.7346 2.11124 17.733 2.16068C17.7267 3.13794 18.2007 3.89436 18.7554 4.61948C19.5614 5.67254 20.1113 6.82449 20.0323 8.22692C20.3436 7.69627 20.6217 7.17221 20.4274 6.5262C20.361 6.30702 20.3246 6.07465 20.3468 5.84064C20.3562 5.74176 20.3404 5.60992 20.4653 5.5885C20.5806 5.56872 20.6281 5.67913 20.6676 5.77637C20.8035 6.11256 20.7671 6.46028 20.7055 6.80306C20.6644 7.03213 20.7292 7.20517 20.8698 7.36667C21.099 7.62706 21.385 7.75889 21.7216 7.76713C22.5702 7.78526 23.422 7.71934 24.269 7.838C24.2769 7.838 24.2912 7.80339 24.3322 7.73747C22.812 6.79318 22.3442 5.1765 21.9097 3.5351C21.7595 2.96655 21.5904 2.39964 21.4024 1.84427C21.1432 1.07796 20.6138 0.606631 19.8442 0.473144C19.2058 0.362729 18.5658 0.385801 17.9432 0.596743C17.8341 0.632999 17.654 0.642886 17.6634 0.794501C17.6745 0.962596 17.8483 0.96754 17.9842 0.988963C18.4978 1.06642 18.9656 1.24275 19.3164 1.66464C19.4223 1.79153 19.544 1.93161 19.4302 2.10959C19.3022 2.309 19.1236 2.22331 18.9656 2.15244C18.5753 1.97611 18.2292 1.72891 17.9463 1.40096C17.7583 1.18343 17.5512 1.13234 17.2842 1.19167C16.9096 1.27406 16.6647 1.51137 16.532 1.86404C16.3581 2.32054 16.2554 2.8034 16.3028 3.29615C16.4561 4.88151 16.6931 6.46193 16.494 8.06213L16.4909 8.05883Z"/>
<path d="M35.977 9.29949C36.1492 9.21544 36.3136 9.11162 36.5317 9.20061C36.4226 9.38024 36.2093 9.32256 36.0876 9.5335C36.3009 9.50384 36.4827 9.48571 36.6628 9.4511C36.8082 9.42309 36.9062 9.32421 36.9331 9.17095C36.9836 8.87596 36.7513 8.44748 36.5206 8.39639C36.1287 8.3107 35.5724 8.58756 35.5076 8.91715C35.4697 9.11162 35.4982 9.33245 35.6372 9.45275C35.7494 9.54833 35.8616 9.35552 35.977 9.29949Z"/>
<path d="M23.529 11.0382C23.1876 10.1549 23.1418 9.2386 23.2745 8.30749C23.3014 8.11632 23.3599 7.94493 23.0754 7.93999C22.8321 7.93505 22.7088 8.01085 22.7372 8.29596C22.7862 8.7887 22.6535 9.26497 22.5729 9.74618C22.4354 10.5553 21.9297 11.0168 21.2439 11.3184C20.4348 11.676 19.583 11.7023 18.7328 11.6166C18.2034 11.5623 17.7925 11.2442 17.6013 10.6905C17.3785 10.0478 17.1952 9.39681 17.1541 8.7096C17.1462 8.56952 17.1573 8.40967 16.9471 8.4245C16.7764 8.43768 16.6247 8.46734 16.6279 8.70136C16.6279 8.77717 16.6089 8.85462 16.6105 8.93208C16.62 9.78409 16.5362 10.6262 16.375 11.4617C16.2849 11.9331 16.2612 12.3978 16.4208 12.8675C16.6279 13.4772 16.8854 14.0557 17.2284 14.5946C17.3011 14.7083 17.4385 14.9242 17.3516 14.9637C16.9724 15.1318 17.2157 15.3971 17.2252 15.613C17.2394 15.9558 17.3674 16.0431 17.7262 15.9245C19.474 15.3477 21.2581 15.2439 23.0565 15.6427C23.3377 15.7053 23.3599 15.5867 23.3946 15.3724C23.5732 14.2699 23.7581 13.1674 23.9493 12.0682C23.9762 11.91 23.9904 11.7683 23.9114 11.6265C23.698 11.4914 23.6159 11.2607 23.529 11.0382Z"/>
<path d="M27.3457 31.6548C27.4942 31.1143 27.4057 30.6759 27.333 30.2376C27.2271 30.6792 27.1639 31.1192 27.3457 31.6548Z"/>
<path d="M37.4897 11.4264C37.4818 11.4362 37.4739 11.4461 37.4644 11.456C37.4122 11.5154 37.3174 11.5912 37.3 11.5154C37.2131 11.1495 36.6426 11.3456 36.611 10.899C36.5905 11.0852 36.6727 11.2616 36.7027 11.3654C36.7691 11.5846 36.8196 11.7774 36.6758 12.0196C36.5526 12.2273 36.7106 12.4432 36.8339 12.6179C36.9555 12.7909 37.123 12.7019 37.2747 12.6525C37.3569 12.6261 37.4423 12.6047 37.5197 12.5651C37.7188 12.4629 38.0317 12.486 38.057 12.1778C38.0807 11.8845 37.8642 11.5368 37.4912 11.4264H37.4897Z"/>
<path d="M20.1598 20.3127C18.7675 20.25 17.8257 19.4145 17.192 18.0533C17.0577 18.5312 17.0956 18.897 17.1762 19.2629C17.2173 19.4508 17.3642 19.7144 17.2963 19.8067C17.0956 20.0721 17.2868 20.2303 17.3721 20.4082C17.7198 21.1218 18.1654 21.7695 18.6 22.427C18.7517 22.6561 18.954 22.8127 19.0219 23.0978L19.0283 23.134C18.4214 22.7402 17.9916 22.1584 17.5444 21.5964C17.1588 21.1119 16.8491 20.573 16.5678 19.9732C16.5172 20.0671 16.4888 20.1083 16.4729 20.1545C15.8013 21.9392 14.9906 23.6581 14.1784 25.3769C13.6221 26.5519 13.0943 27.7451 12.8494 29.047C12.8162 29.225 12.8399 29.3651 12.9379 29.5167C13.167 29.8677 13.2381 30.2715 13.2539 30.6884C13.2587 30.8367 13.2903 31.0328 13.0896 31.0608C12.9189 31.0856 12.8383 30.9274 12.7719 30.7856C12.6376 30.4989 12.6329 30.1907 12.6344 29.8792C12.6344 29.782 12.6755 29.6452 12.5712 29.5991C12.4543 29.5463 12.3611 29.6584 12.2963 29.7457C12.1288 29.9682 11.9612 30.1924 11.819 30.433C10.8187 32.1221 9.9527 33.8805 9.25422 35.7279C8.97293 36.4712 8.65845 37.1963 8.22703 37.8604C7.88569 38.3861 7.41476 38.6284 6.8111 38.602C6.66255 38.5954 6.514 38.579 6.36704 38.5905C5.95142 38.6235 5.80288 38.869 5.94352 39.2777C6.00199 39.4474 6.09049 39.6089 6.11893 39.782C6.17898 40.1396 6.37178 40.2517 6.69732 40.2006C7.08765 40.1396 7.47482 40.049 7.87147 40.0555C8.46091 40.0638 8.64423 39.9418 8.81332 39.3634C8.94764 38.9003 9.15466 38.4817 9.42963 38.0977C10.3209 36.8486 11.1506 35.5549 11.9723 34.2546C12.538 33.3598 13.1465 32.5045 13.9461 31.8173C14.1958 31.603 14.4186 31.3608 14.5956 31.0823C16.119 28.6943 17.979 26.5569 19.3791 24.0767C19.5261 23.8163 19.7331 23.7158 20.0017 23.8427C20.1819 23.9284 20.3367 23.8806 20.4979 23.808C20.7445 23.6976 20.912 23.4883 21.089 23.2922C21.3924 22.9544 21.6974 22.6182 22.0024 22.2804C22.0276 22.3018 22.0529 22.3232 22.0782 22.343C21.8759 22.7616 21.5804 23.1241 21.3734 23.5427C21.1095 24.0767 21.1364 24.5365 21.4003 25.0721C22.6171 27.544 24.2811 29.6815 26.0115 31.7612C26.6737 32.5572 27.3832 33.3054 27.9142 34.2118C28.5179 35.2434 29.1057 36.2883 29.7679 37.2787C30.4174 38.2494 31.1095 39.1871 31.7322 40.1775C31.9629 40.545 32.2173 40.8911 32.5081 41.2075C32.8036 41.5289 33.0659 41.5256 33.3535 41.1894C33.5179 40.9982 33.6585 40.7856 33.8118 40.5829C34.199 40.0753 34.1611 39.871 33.5985 39.5892C32.5065 39.0404 31.6516 38.2395 31.1396 37.076C30.9705 36.6904 30.8314 36.2915 30.6844 35.896C29.8469 33.635 28.6396 31.5602 27.6661 29.3667C27.6471 29.3239 27.6045 29.2925 27.5602 29.2398C27.4038 29.4689 27.4717 29.6996 27.4954 29.9204C27.5523 30.4445 27.6092 30.9669 27.5555 31.4959C27.5444 31.6096 27.5397 31.748 27.4022 31.7711C27.2489 31.7958 27.1841 31.6607 27.143 31.542C27.0656 31.3229 27.0419 31.0922 27.0688 30.8598C27.1288 30.3506 27.2679 29.8347 27.2315 29.3337C27.1525 28.2444 26.9455 27.1699 26.6215 26.1268C26.277 25.0144 25.6797 24.0338 25.1029 23.0467C24.6225 22.2243 24.2811 21.3525 24.1184 20.4033C24.0899 20.2418 24.1041 20.0556 23.9682 19.899C23.7865 20.1643 23.7043 20.4824 23.4009 20.6538C23.4009 20.2682 23.589 19.9633 23.6395 19.6238C23.6917 19.2662 23.6158 18.9448 23.4246 18.6086C22.6408 19.8512 21.5125 20.3736 20.1613 20.3127H20.1598Z"/>
<path d="M34.2333 39.1634C34.268 39.2079 34.3028 39.2524 34.3376 39.2969C34.3534 39.3282 34.3707 39.3612 34.3865 39.3925C34.4182 39.4387 34.4498 39.4848 34.4814 39.5309C34.5225 39.6166 34.5635 39.7007 34.6062 39.7864C34.6299 39.8342 34.6552 39.8836 34.6789 39.9314C34.7026 39.9825 34.7247 40.0336 34.7484 40.0847C34.7927 40.2182 34.8385 40.3516 34.8812 40.4851C35.1024 41.1806 35.0281 41.4673 34.5003 41.9387C33.7402 42.616 32.9453 43.2472 32.1046 43.8124C27.457 46.9288 22.4222 48.1384 16.9576 47.0705C12.4127 46.1822 8.6058 43.8454 5.36148 40.4522C5.12286 40.2033 4.92848 39.9446 4.9427 39.5244C4.77361 39.7699 4.78942 39.9792 4.85421 40.1951C4.96641 40.5675 5.13392 40.9103 5.38518 41.202C5.83872 41.7294 6.31597 42.2304 6.82482 42.7C9.20157 44.8886 11.9876 46.2284 15.0044 47.1793C17.8015 48.0609 20.6144 48.2488 23.4842 47.8615C26.5657 47.4462 29.4023 46.3256 32.0256 44.6018C33.086 43.9047 34.0136 43.0461 34.8717 42.0952C35.2984 41.6222 35.3316 41.1295 35.0961 40.5741C35.0171 40.3862 34.9207 40.2066 34.8306 40.0237C34.8053 39.9726 34.7816 39.9215 34.7563 39.8688C34.7295 39.8193 34.7026 39.7683 34.6757 39.7188C34.6331 39.6348 34.5904 39.5524 34.5477 39.4683C34.5161 39.4222 34.4845 39.3777 34.4529 39.3315C34.4371 39.3002 34.4213 39.2689 34.4055 39.2376C34.3739 39.1898 34.3423 39.142 34.3107 39.0942C34.2822 39.0728 34.2538 39.0514 34.2238 39.0283C34.208 39.0168 34.1827 38.9921 34.1764 38.9953C34.1369 39.0201 34.1574 39.0481 34.1811 39.0728C34.1985 39.1025 34.2175 39.1321 34.2348 39.1618L34.2333 39.1634Z"/>
<path d="M12.8253 29.7533C12.77 30.1406 12.789 30.5114 13.0576 30.9217C13.1398 30.4372 13.0228 30.0878 12.8253 29.7533Z"/>
<path d="M37.5721 11.3195C37.8297 10.9932 37.6148 11.0262 37.6511 10.9224C37.6875 10.8202 37.7207 10.835 37.7333 10.746C37.7554 10.5829 37.4979 10.5878 37.6037 10.4576C37.7776 10.2434 37.4663 10.2055 37.5089 10.0967C37.6559 9.72263 37.2829 9.77371 37.294 9.64847C37.3114 9.44247 37.068 9.39962 37.0016 9.36831C37.0016 9.36831 37.0712 9.27767 37.0807 9.16725C37.1091 8.83436 37.0712 8.44708 36.7014 8.2691C36.3822 8.11584 35.6979 8.307 35.4688 8.5954C35.276 8.83766 35.2981 9.23977 35.5667 9.63199C35.6568 9.76382 35.6584 9.84787 35.581 9.96653C35.0895 10.7015 34.4843 11.2404 33.5803 11.3311C32.4884 11.4398 31.3853 11.4975 30.3234 11.8024C29.8461 11.9392 29.4574 11.8683 29.0797 11.57C28.9817 11.4926 28.8758 11.4233 28.7778 11.3459C27.2402 10.1214 25.701 8.90358 24.2582 7.54564C23.3148 6.65737 22.6922 5.65539 22.3429 4.41775C22.1027 3.56739 21.8609 2.71703 21.5986 1.87326C21.3616 1.11354 20.8717 0.589479 20.1321 0.363705C19.2993 0.109915 18.4728 0.193962 17.6637 0.50708C17.5578 0.54828 17.403 0.6142 17.4219 0.714727C17.482 1.0262 17.2686 0.991588 17.1075 1.03608C16.8025 1.11848 16.5828 1.31295 16.4311 1.59475C16.2731 1.88974 16.1814 2.20616 16.1245 2.53905C15.9918 3.31855 16.2051 4.07497 16.2494 4.84129C16.3094 5.8927 16.4374 6.94412 16.262 7.99718C16.232 8.17846 16.2225 8.3482 15.9886 8.38611C15.5398 8.45697 15.1605 8.69593 14.7923 8.96455C13.8189 9.66989 12.9687 10.5384 11.9794 11.2223C11.5085 11.5486 10.8717 11.9705 10.4908 12.422C10.4908 12.422 10.3644 12.4072 10.219 12.4039C9.15863 12.3825 8.09984 12.4039 7.03947 12.3297C6.38207 12.2836 5.75628 12.1353 5.13365 11.9359C4.98036 11.8864 4.92505 11.9392 4.93769 11.7513C4.9772 11.5601 4.9851 11.4777 5.00406 11.3986C5.36911 9.8215 4.39249 8.36798 2.82801 8.2312C1.80083 8.14056 0.776804 8.85743 0.376993 9.81821C0.038812 10.629 0.313781 11.3986 0.446524 12.1732C0.497093 12.4682 0.863719 12.5473 1.066 12.75C1.12763 12.8126 1.20348 12.862 1.25721 12.9313C1.68705 13.48 2.27333 13.5229 2.87384 13.4438C3.56126 13.3531 4.25659 13.4586 4.94243 13.3416C5.03093 13.3268 5.13681 13.3729 5.22688 13.4108C6.60173 13.9959 8.02714 14.3963 9.48417 14.6847C9.84131 14.7556 10.1921 14.7292 10.5445 14.6237C12.2544 14.1145 13.781 13.251 15.1511 12.0743C15.5951 11.692 15.8464 11.7513 16.0913 12.2935C16.1435 12.4088 16.1751 12.5357 16.2099 12.6577C16.3552 13.1785 16.5386 13.6811 16.7867 14.1574C16.8862 14.3469 16.9415 14.5331 16.951 14.7638C16.97 15.1841 17.0126 15.6241 17.1896 16.0048C17.3603 16.3723 17.3556 16.7216 17.2718 17.0891C17.2133 17.3512 17.147 17.6132 17.0648 17.8686C16.7519 18.8541 16.7551 19.805 17.3303 20.6999C17.3571 20.7427 17.384 20.7872 17.4045 20.8334C17.4393 20.9092 17.5136 20.9817 17.3935 21.097C17.0111 20.6883 16.8325 20.1478 16.5575 19.6666C16.4343 19.7786 16.4011 19.9204 16.3521 20.0489C15.7642 21.6046 15.0831 23.1175 14.3562 24.6089C13.6466 26.0657 12.9576 27.5324 12.6511 29.154C12.64 29.2134 12.6242 29.2941 12.5831 29.3205C11.9668 29.7374 11.6539 30.4082 11.2952 31.0278C10.4023 32.572 9.65484 34.1952 9.01798 35.8712C8.7683 36.5304 8.47911 37.1699 8.0872 37.7532C7.54832 38.5542 6.90672 38.6382 6.20982 37.9988C5.97278 37.7829 5.65356 37.7994 5.47341 38.0631C5.17947 38.4915 4.92031 38.9447 4.72277 39.4342C4.59003 39.7605 4.60267 40.072 4.73225 40.4032C5.04357 41.2041 5.60615 41.7974 6.19086 42.3726C8.67822 44.8215 11.6476 46.3244 14.9061 47.328C17.9497 48.2658 21.0108 48.4437 24.1239 47.9362C26.8641 47.4896 29.4005 46.4612 31.7677 44.9648C33.0004 44.1853 34.1081 43.2526 35.0705 42.1303C35.3945 41.7513 35.4972 41.3228 35.355 40.8432C35.1606 40.184 34.8224 39.599 34.4384 39.0453C34.2583 38.7849 33.8458 38.6876 33.6514 38.9002C33.3275 39.2529 33.0762 39.1029 32.7902 38.8772C32.5626 38.6992 32.343 38.5146 32.1423 38.3037C31.5165 37.6461 31.1894 36.8155 30.8844 35.9685C30.0358 33.6135 28.7368 31.486 27.7459 29.2018C27.7112 29.1227 27.6527 29.009 27.5926 28.9975C27.3382 28.9546 27.3445 28.7585 27.3177 28.569C27.0632 26.7809 26.5623 25.0901 25.5825 23.5707C24.8809 22.4813 24.3641 21.308 24.2061 19.9863C24.1871 19.8231 24.146 19.6485 24.0228 19.5232C23.89 19.6056 23.9264 19.7869 23.7652 19.8429C23.7415 19.5578 23.8679 19.281 23.7699 19.0024C23.3828 17.8983 23.2263 16.7991 23.5202 15.6142C23.7731 14.599 23.8489 13.5361 24.0133 12.4962C24.1697 11.5008 24.263 11.4728 25.0895 11.9919C26.3458 12.7813 27.6005 13.5789 29.0433 13.9695C29.5411 14.1046 30.0358 14.1491 30.5414 14.0173C32.0032 13.6333 33.4365 13.1686 34.7971 12.4863C35.2317 12.2688 35.6789 12.0891 36.1451 11.9589C36.3553 11.8996 36.4896 11.8716 36.5023 12.2144C36.5228 12.7912 36.8436 12.9708 37.3635 12.7681C37.5595 12.6923 37.7507 12.6017 37.9467 12.5226C38.2074 12.4171 38.2722 12.2309 38.1663 11.9688C38.0715 11.7332 38.0225 11.4876 37.5721 11.3212V11.3195ZM37.5642 10.6834C37.6211 10.8268 37.49 10.8416 37.3983 10.8713C37.3635 10.8828 37.3572 10.9042 37.3841 10.9191C37.5042 10.9784 37.6401 11.041 37.4346 11.1613C37.3351 11.2206 36.537 11.1976 37.2197 10.8943C37.2608 10.8762 36.9606 10.9224 36.9037 10.9174C36.8231 10.9092 36.7061 10.9603 36.6919 10.835C36.6808 10.7328 36.7915 10.6966 36.8689 10.6719C36.9969 10.6323 37.5105 10.5499 37.5642 10.6834ZM37.4678 10.3555C37.5152 10.5252 36.5528 10.6389 36.526 10.4576C36.5054 10.3159 36.6777 10.3208 36.7804 10.3044C37.0253 10.2665 37.3936 10.0868 37.4678 10.3555ZM37.3114 9.88083C37.3556 9.89731 37.3983 9.96323 37.3619 10.0044C37.1802 10.2071 36.88 10.1725 36.6366 10.189C36.1641 10.2203 37.0791 9.79679 37.3098 9.88083H37.3114ZM35.6394 9.454C35.4988 9.3337 35.4703 9.11287 35.5099 8.91841C35.5746 8.59046 36.1309 8.31195 36.5228 8.39764C36.7535 8.44873 36.9874 8.87721 36.9353 9.1722C36.9084 9.32546 36.8104 9.42434 36.665 9.45236C36.4865 9.48696 36.3032 9.50509 36.0898 9.53475C36.2131 9.32381 36.4248 9.38149 36.5339 9.20186C36.3142 9.11287 36.1514 9.21834 35.9792 9.30074C35.8638 9.35677 35.7516 9.54959 35.6394 9.454ZM16.2999 3.29547C16.2525 2.80108 16.3552 2.31987 16.5291 1.86337C16.6618 1.51235 16.9068 1.27504 17.2813 1.191C17.5484 1.13167 17.7554 1.18275 17.9434 1.40029C18.2279 1.72824 18.574 1.97544 18.9627 2.15177C19.1207 2.22263 19.2993 2.30833 19.4273 2.10892C19.5411 1.93094 19.4194 1.79086 19.3135 1.66397C18.9627 1.24043 18.4949 1.0641 17.9814 0.988292C17.8454 0.968516 17.6716 0.963572 17.6606 0.793829C17.6511 0.642215 17.8312 0.633975 17.9403 0.596071C18.5629 0.385129 19.2029 0.362057 19.8413 0.472472C20.6109 0.605959 21.1388 1.07728 21.3995 1.8436C21.5876 2.40062 21.7566 2.96588 21.9068 3.53443C22.3414 5.17583 22.8091 6.7925 24.3294 7.7368C24.2883 7.80272 24.2756 7.83898 24.2661 7.83733C23.4191 7.71867 22.5673 7.78459 21.7187 7.76647C21.3821 7.75987 21.0961 7.62803 20.8669 7.366C20.7263 7.20615 20.6615 7.03146 20.7026 6.80239C20.7642 6.46126 20.799 6.11353 20.6647 5.7757C20.6252 5.67846 20.5793 5.56805 20.4624 5.58783C20.336 5.60925 20.3518 5.74109 20.3439 5.83997C20.3233 6.07398 20.3597 6.30635 20.4245 6.52553C20.6188 7.17319 20.3407 7.6956 20.0294 8.22625C20.1084 6.82382 19.5585 5.67022 18.7525 4.61881C18.1978 3.89369 17.7222 3.13727 17.7301 2.16001C17.7301 2.11057 17.7143 2.05784 17.7001 2.01004C17.6163 1.72659 17.4804 1.43984 17.1738 1.44314C16.8356 1.44808 16.7724 1.78921 16.7361 2.06443C16.6982 2.34129 16.7108 2.62969 16.7203 2.91149C16.7361 3.40094 16.7551 3.88545 16.6634 4.37161C16.5891 4.77042 16.6397 5.161 16.8088 5.53839C16.9226 5.79218 17.0126 6.06245 17.0901 6.33107C17.2449 6.8749 17.3556 6.95565 17.9118 6.9194C18.0509 6.91116 18.2389 6.79086 18.3227 6.94577C18.4175 7.12045 18.3385 7.32975 18.2231 7.48631C17.8281 8.02685 17.2639 8.22461 16.6429 8.28888C16.4722 8.307 16.4738 8.17846 16.488 8.05816C16.6855 6.45796 16.4485 4.87754 16.2968 3.29218L16.2999 3.29547ZM18.1441 1.25856C18.634 1.30965 18.9469 1.49422 19.1871 1.82217C19.2235 1.87161 19.2709 1.93424 19.2029 1.98697C19.1729 2.01004 19.1081 2.0084 19.0686 1.99192C18.7257 1.84854 18.4317 1.63925 18.1425 1.25691L18.1441 1.25856ZM17.8012 6.71999C17.5073 6.75954 17.3445 6.64419 17.2829 6.36897C17.1944 5.9784 17.0474 5.61255 16.8973 5.24669C16.8198 5.05553 16.774 4.85117 16.8104 4.64353C16.9336 3.94149 16.902 3.2345 16.8736 2.52751C16.8625 2.26713 16.8799 2.01004 16.9968 1.77603C17.1043 1.56179 17.2402 1.53542 17.3872 1.74472C17.4757 1.87161 17.5436 2.01004 17.5452 2.1699C17.5547 3.12244 17.9734 3.8904 18.5329 4.60398C19.1239 5.35711 19.5964 6.17616 19.7876 7.15012C19.8761 7.60331 19.8287 8.04497 19.7465 8.48828C19.726 8.5954 19.6612 8.70087 19.7513 8.85578C20.2206 8.45862 20.3865 7.89171 20.6188 7.27866C21.0123 7.94115 21.6065 7.9807 22.2213 7.94115C22.5168 7.92138 22.6653 8.00872 22.6084 8.35315C22.5563 8.66956 22.5452 8.99092 22.5041 9.30898C22.3382 10.6043 21.6966 11.0822 20.5224 11.3624C20.0073 11.486 19.47 11.5008 18.939 11.4662C18.3733 11.4299 17.9513 11.1613 17.7506 10.5862C17.5405 9.98301 17.3524 9.37325 17.3113 8.7223C17.2923 8.43555 17.3856 8.27569 17.6353 8.16033C18.0256 7.97906 18.4175 7.74834 18.4728 7.26218C18.5123 6.9194 18.6245 6.72164 18.9485 6.64089C18.5455 6.55355 18.1741 6.67055 17.7996 6.71999H17.8012ZM20.5367 5.77405C20.6109 6.04926 20.6742 6.23219 20.573 6.43489C20.5035 6.25361 20.4656 6.06739 20.5367 5.77405ZM0.674086 11.9128C0.375412 11.3195 0.299558 10.6933 0.503415 10.0456C0.87004 8.87391 2.08844 8.18176 3.25311 8.48004C4.38143 8.77009 5.12258 9.96982 4.93295 11.2009C4.91241 11.3393 4.84603 12.0018 3.77776 12.7681C3.66556 12.8489 3.50279 12.8258 3.38111 12.7747C2.02207 12.1996 1.92093 12.5357 1.92093 12.5357C1.50215 12.2803 0.896906 12.3561 0.674086 11.9128ZM1.42314 12.8653C1.31726 12.7467 1.16555 12.6148 1.16555 12.6148C1.45949 12.75 2.1153 13.2806 2.1153 13.2806C1.70285 13.2889 1.48951 12.9378 1.42472 12.8637L1.42314 12.8653ZM2.30178 13.2823C1.98572 12.9214 1.2256 12.5374 1.30936 12.4632C1.38363 12.3957 2.63522 13.0631 2.94179 13.2938C2.76322 13.3301 2.36657 13.3564 2.30178 13.2839V13.2823ZM16.1308 11.9046C15.6615 11.5634 15.4956 11.5684 15.0468 11.9573C13.8284 13.0137 12.4693 13.7948 10.9728 14.3386C10.3438 14.5677 9.72595 14.6221 9.08593 14.4655C7.80274 14.1508 6.52272 13.8261 5.30748 13.2757C5.08624 13.1752 4.85236 13.19 4.61689 13.2197C3.85204 13.3185 3.1172 13.2312 2.43926 12.8126C2.38711 12.7796 2.33338 12.7483 2.28439 12.7104C2.26859 12.6972 2.14375 12.6148 2.22592 12.5868C2.39501 12.5291 3.62922 13.1785 4.41462 12.862C4.17441 12.722 4.2076 12.6231 4.37353 12.4418C4.67378 12.1139 4.95191 12.0463 5.37859 12.193C6.54326 12.5918 7.76482 12.516 8.97057 12.5489C9.38145 12.5605 9.84763 12.516 10.2822 12.6264C10.3091 12.633 10.3233 12.6659 10.3107 12.6906C10.1953 12.9115 9.96141 13.0417 9.84289 13.2262C9.78284 13.3202 9.68802 13.4174 9.76546 13.5377C9.85237 13.6745 9.98037 13.6218 10.1005 13.5855C10.5003 13.4619 10.7437 13.1471 10.7247 12.7055C10.7152 12.4978 10.8242 12.399 10.938 12.2885C11.5512 11.687 12.2576 11.2124 12.9308 10.6916C13.664 10.1264 14.3104 9.44576 15.0879 8.93818C15.4513 8.70087 15.8369 8.55255 16.2573 8.49158C16.3521 8.47839 16.499 8.40918 16.4943 8.61518C16.4659 9.71933 16.3758 10.8152 16.1324 11.9046H16.1308ZM10.494 12.8077C10.5114 13.1471 10.3517 13.3301 9.99144 13.4042C9.92349 13.3301 10.3075 12.9889 10.494 12.8077ZM17.4172 17.1995C17.512 16.9902 17.512 16.7414 17.482 16.514C17.4488 16.252 17.5563 16.1597 17.7743 16.0789C18.6261 15.7641 20.0752 15.5581 21.4343 15.5895C21.94 15.6307 22.4931 15.6537 23.0383 15.7872C23.22 15.8317 23.2958 15.9191 23.2658 16.1053C23.1599 16.7595 23.1947 17.4088 23.3275 18.0565C23.3717 18.2707 23.2848 18.4553 23.1757 18.6349C22.1407 20.3703 19.5648 20.662 18.171 19.1936C17.9987 19.0123 17.8533 18.8014 17.6937 18.6036C17.3587 18.1867 17.1659 17.7483 17.414 17.1962L17.4172 17.1995ZM12.8265 29.7523C13.024 30.0852 13.1409 30.4362 13.0588 30.9207C12.7901 30.5103 12.7712 30.1395 12.8265 29.7523ZM34.1745 38.9975C34.1745 38.9975 34.2061 39.0189 34.2219 39.0304C34.2504 39.0519 34.2804 39.0733 34.3088 39.0963C34.3404 39.1441 34.3721 39.1919 34.4037 39.2397C34.4195 39.271 34.4353 39.3023 34.4511 39.3337C34.4827 39.3798 34.5143 39.4243 34.5459 39.4704C34.5886 39.5545 34.6312 39.6369 34.6739 39.7209C34.7008 39.7704 34.7276 39.8215 34.7545 39.8709C34.7798 39.922 34.8035 39.9731 34.8288 40.0258C34.9172 40.2087 35.0136 40.3884 35.0942 40.5762C35.3297 41.1316 35.2965 41.6244 34.8698 42.0973C34.0117 43.0482 33.0841 43.9068 32.0238 44.6039C29.4005 46.3277 26.5623 47.4484 23.4823 47.8636C20.6109 48.2509 17.7996 48.0614 15.0025 47.1814C11.9858 46.2305 9.19971 44.8907 6.82297 42.7021C6.31412 42.2325 5.83687 41.7315 5.38333 41.2041C5.13207 40.9124 4.96614 40.5697 4.85236 40.1972C4.78756 39.983 4.77176 39.772 4.94085 39.5265C4.92663 39.9467 5.121 40.2054 5.35963 40.4543C8.60395 43.8475 12.4109 46.1843 16.9557 47.0726C22.4204 48.1405 27.4551 46.9325 32.1028 43.8145C32.9435 43.2509 33.7384 42.6197 34.4985 41.9408C35.0279 41.4695 35.1006 41.1827 34.8793 40.4873C34.8367 40.3538 34.7908 40.2203 34.7466 40.0868C34.7229 40.0357 34.7008 39.9846 34.677 39.9335C34.6533 39.8857 34.6281 39.8363 34.6044 39.7885C34.5633 39.7045 34.5222 39.6188 34.4795 39.5331C34.4479 39.4869 34.4163 39.4408 34.3847 39.3946C34.3689 39.3633 34.3515 39.3304 34.3357 39.2991C34.3009 39.2546 34.2662 39.2101 34.2314 39.1656C34.214 39.1359 34.1951 39.1062 34.1777 39.0766C34.154 39.0519 34.1334 39.0238 34.1729 38.9991L34.1745 38.9975ZM34.1398 39.3122C34.4131 39.7308 34.6407 40.1692 34.775 40.6553C34.8777 41.0245 34.8398 41.3607 34.5332 41.6359C31.2905 44.5298 27.6053 46.4579 23.3527 47.0561C18.7557 47.7038 14.451 46.7249 10.4371 44.3188C8.59763 43.2163 6.94781 41.8567 5.43548 40.306C5.12732 39.9896 5.04673 39.6896 5.24427 39.2809C5.41652 38.925 5.58561 38.569 5.80053 38.2378C5.91115 38.068 6.03283 38.0103 6.18769 38.1784C6.29199 38.2921 6.31728 38.3663 6.14029 38.4553C5.69781 38.6794 5.62827 38.8953 5.80053 39.3798C5.83371 39.4754 5.8827 39.5677 5.91115 39.6649C6.12606 40.4098 6.20824 40.512 6.92095 40.3488C7.81539 40.1428 8.52493 40.3554 9.28979 40.9042C12.3208 43.0828 15.7247 44.1606 19.3925 44.3172C23.7747 44.505 27.8123 43.3333 31.5038 40.8696C31.782 40.6834 31.9289 40.7015 32.1217 40.9734C32.8676 42.0248 33.2722 41.6656 33.83 40.919C33.8837 40.8482 33.9343 40.7757 33.9849 40.7031C34.4084 40.0983 34.3531 39.8215 33.732 39.4408C33.6799 39.4078 33.6293 39.3716 33.5677 39.3287C33.7842 38.9892 33.9517 39.0238 34.1413 39.3139L34.1398 39.3122ZM21.1925 25.0324C22.0601 26.743 23.0778 28.3515 24.274 29.8347C24.8066 30.4939 25.219 31.2635 25.8275 31.8469C27.1296 33.096 28.0272 34.6451 28.909 36.2107C29.3799 37.0479 29.9804 37.7829 30.5098 38.5723C30.8638 39.0996 31.1894 39.6468 31.5481 40.1692C31.7093 40.4032 31.6366 40.507 31.4359 40.6438C29.2804 42.1023 26.951 43.1207 24.4368 43.6712C22.9103 44.0057 21.3679 44.1705 19.2867 44.1277C15.7927 44.0139 12.1201 42.8159 8.83941 40.3686C8.64662 40.2236 8.53916 40.1263 8.76988 39.9187C8.85837 39.8396 8.92791 39.7094 8.95319 39.5907C9.097 38.9019 9.49839 38.3614 9.87134 37.801C10.671 36.5947 11.4627 35.3818 12.2512 34.1672C12.7443 33.4075 13.2832 32.6956 13.9453 32.0825C14.4636 31.603 14.8966 31.0327 15.2743 30.4296C16.4011 28.6283 17.7996 27.0331 18.9153 25.2219C19.1223 24.8858 19.323 24.5463 19.5253 24.2084C19.6075 24.0717 19.7086 23.9233 19.8761 23.9991C20.2475 24.1705 20.5462 24.0173 20.8464 23.8195C20.9049 23.78 20.9744 23.7091 21.036 23.7882C21.0629 23.8228 21.0518 23.9134 21.0297 23.9662C20.8733 24.3601 21.0313 24.7045 21.1972 25.0324H21.1925ZM27.3319 30.2368C27.4046 30.6751 27.4931 31.1135 27.3445 31.654C27.1628 31.1184 27.226 30.6784 27.3319 30.2368ZM23.4238 18.6086C23.6151 18.9464 23.6925 19.2661 23.6388 19.6237C23.5882 19.9632 23.4001 20.2664 23.4001 20.6537C23.7036 20.4823 23.7857 20.1643 23.9675 19.8989C24.1034 20.0555 24.0907 20.2417 24.1176 20.4032C24.2804 21.3525 24.6217 22.2243 25.1021 23.0466C25.6789 24.0337 26.2763 25.0143 26.6208 26.1267C26.9447 27.1715 27.1502 28.2444 27.2308 29.3337C27.2671 29.8347 27.128 30.3505 27.068 30.8597C27.0411 31.0937 27.0648 31.3228 27.1423 31.542C27.1833 31.6606 27.2481 31.7958 27.4014 31.771C27.5389 31.748 27.5436 31.6095 27.5547 31.4958C27.6084 30.9685 27.5515 30.4444 27.4947 29.9204C27.471 29.6979 27.403 29.4672 27.5595 29.2397C27.6037 29.2925 27.6464 29.3238 27.6653 29.3666C28.6388 31.5585 29.8461 33.6349 30.6837 35.896C30.8306 36.2915 30.9697 36.6919 31.1388 37.0759C31.6492 38.2378 32.5042 39.0387 33.5977 39.5891C34.1603 39.8709 34.1966 40.0753 33.8111 40.5828C33.6578 40.7839 33.5171 40.9965 33.3528 41.1893C33.0652 41.5255 32.8028 41.5304 32.5073 41.2074C32.2165 40.891 31.9605 40.5433 31.7314 40.1774C31.1103 39.187 30.4166 38.2476 29.7671 37.2786C29.105 36.2882 28.5171 35.2434 27.9134 34.2117C27.3825 33.3053 26.6745 32.5571 26.0108 31.7612C24.2804 29.6814 22.6163 27.5456 21.3995 25.072C21.1356 24.5364 21.1103 24.0766 21.3726 23.5426C21.5797 23.1241 21.8752 22.7615 22.0774 22.3429C22.0522 22.3215 22.0269 22.3001 22.0016 22.2803C21.6966 22.6181 21.3932 22.9543 21.0882 23.2922C20.9112 23.4883 20.7437 23.6976 20.4972 23.808C20.336 23.8805 20.1811 23.9283 20.001 23.8426C19.7323 23.7157 19.5253 23.8162 19.3783 24.0766C17.9798 26.5568 16.1198 28.6943 14.5948 31.0822C14.4162 31.3607 14.195 31.603 13.9453 31.8172C13.1457 32.5044 12.5357 33.3597 11.9715 34.2546C11.1498 35.5548 10.3201 36.8485 9.42886 38.0977C9.15389 38.4817 8.94687 38.9002 8.81255 39.3633C8.64504 39.9418 8.46014 40.0637 7.8707 40.0555C7.47405 40.0489 7.08688 40.1412 6.69655 40.2005C6.37101 40.2516 6.17821 40.1395 6.11816 39.7819C6.08814 39.6089 5.99964 39.4457 5.94275 39.2776C5.8021 38.8673 5.95065 38.6217 6.36627 38.5904C6.51323 38.5789 6.66178 38.5954 6.81033 38.602C7.414 38.6283 7.88492 38.3877 8.22626 37.8604C8.65768 37.1946 8.97215 36.4695 9.25344 35.7279C9.95193 33.8805 10.8195 32.1204 11.8182 30.4329C11.9605 30.1923 12.128 29.9681 12.2955 29.7457C12.3603 29.6583 12.4535 29.5463 12.5705 29.599C12.6748 29.6451 12.6337 29.7819 12.6337 29.8792C12.6321 30.189 12.6353 30.4988 12.7712 30.7856C12.8375 30.9273 12.9181 31.0855 13.0888 31.0608C13.2911 31.0311 13.2579 30.8366 13.2531 30.6883C13.2389 30.273 13.1662 29.8676 12.9371 29.5166C12.8375 29.365 12.8154 29.2249 12.8486 29.0469C13.0935 27.745 13.6213 26.5535 14.1776 25.3769C14.9899 23.658 15.8006 21.9408 16.4722 20.1544C16.4896 20.1082 16.518 20.067 16.567 19.9731C16.8483 20.573 17.158 21.1119 17.5436 21.5964C17.9908 22.1583 18.4207 22.7384 19.0275 23.1339L19.0212 23.0977C18.9532 22.8126 18.7509 22.656 18.5992 22.427C18.1647 21.7694 17.719 21.1218 17.3714 20.4082C17.286 20.2318 17.0948 20.072 17.2955 19.8067C17.365 19.716 17.2165 19.4507 17.1754 19.2628C17.0948 18.8986 17.0569 18.5328 17.1912 18.0532C17.8249 19.4144 18.7668 20.25 20.159 20.3126C21.5085 20.3736 22.6384 19.8512 23.4223 18.6086H23.4238ZM23.9469 12.0677C23.7541 13.1686 23.5708 14.2694 23.3922 15.3719C23.3575 15.5878 23.3354 15.7048 23.0541 15.6422C21.2573 15.245 19.4731 15.3472 17.7238 15.924C17.365 16.0427 17.2386 15.9537 17.2228 15.6125C17.2133 15.3966 16.97 15.1313 17.3492 14.9632C17.4362 14.9253 17.2987 14.7078 17.226 14.5941C16.8815 14.0552 16.6255 13.4767 16.4185 12.867C16.2588 12.3973 16.281 11.9326 16.3726 11.4613C16.5338 10.6257 16.6176 9.7836 16.6081 8.93159C16.6081 8.85413 16.6271 8.77833 16.6255 8.70087C16.6223 8.46686 16.774 8.43719 16.9447 8.42401C17.1549 8.40753 17.1438 8.56903 17.1517 8.70911C17.1928 9.39632 17.3761 10.0473 17.5989 10.69C17.7917 11.2437 18.201 11.5634 18.7304 11.6162C19.579 11.7019 20.4324 11.6755 21.2415 11.3179C21.9273 11.0146 22.433 10.5532 22.5705 9.7457C22.6527 9.26449 22.7838 8.78986 22.7348 8.29547C22.7064 8.01037 22.8297 7.93456 23.073 7.9395C23.3575 7.94445 23.299 8.11419 23.2721 8.307C23.141 9.23812 23.1852 10.1544 23.5266 11.0377C23.6119 11.2602 23.6957 11.4909 23.909 11.6261C23.9864 11.7661 23.9738 11.9095 23.9469 12.0677ZM36.4106 11.7496C35.4419 11.9441 34.6012 12.483 33.6925 12.8406C32.689 13.2345 31.6729 13.5872 30.6331 13.8657C29.8287 14.0799 29.0686 13.8838 28.3227 13.5806C27.2624 13.1488 26.2684 12.5819 25.2996 11.9672C24.8698 11.6953 24.4574 11.392 23.9185 11.6211C23.9627 11.5437 23.9106 11.4827 23.8758 11.4217C23.318 10.4362 23.3069 9.36996 23.4396 8.27899C23.4697 8.03344 23.5677 7.97082 23.8015 7.9807C24.3483 8.00378 24.7908 8.21966 25.1922 8.60364C26.3569 9.71933 27.6464 10.6719 28.9201 11.6425C29.342 11.9639 29.8019 12.1007 30.3455 11.9458C31.3964 11.6458 32.4836 11.5832 33.5629 11.4728C34.4827 11.3789 35.1875 10.9207 35.641 10.0638C35.8401 9.68637 36.5939 9.47543 37.1107 9.65671C36.97 9.80338 36.8025 9.83634 36.635 9.83963C36.3901 9.84622 36.2795 10.0489 36.123 10.1857C36.0661 10.2351 36.1009 10.2714 36.1404 10.334C36.3411 10.6603 36.4327 11.0361 36.5576 11.397C36.6113 11.5552 36.6224 11.7068 36.4122 11.748L36.4106 11.7496ZM37.5168 12.5654C37.441 12.605 37.354 12.6264 37.2719 12.6527C37.1202 12.7022 36.9527 12.7912 36.831 12.6181C36.7077 12.4435 36.5497 12.2276 36.6729 12.0199C36.8167 11.7777 36.7662 11.5865 36.6998 11.3657C36.6682 11.2618 36.5876 11.0839 36.6082 10.8993C36.6382 11.3459 37.2102 11.1481 37.2972 11.5156C37.3161 11.5931 37.4094 11.5156 37.4615 11.4563C37.471 11.4464 37.4773 11.4365 37.4868 11.4266C37.8597 11.5371 38.0762 11.8848 38.0525 12.1781C38.0272 12.4863 37.7143 12.4632 37.5152 12.5654H37.5168Z"/>
</mask>
<path d="M1.30756 12.4619C1.22539 12.5377 1.9855 12.9217 2.29998 13.2809C2.36319 13.3534 2.76142 13.3287 2.94 13.2908C2.63342 13.0601 1.38184 12.3927 1.30756 12.4602V12.4619Z" fill="#0E0E0E"/>
<path d="M19.2017 1.98818C19.2696 1.9371 19.2222 1.87283 19.1859 1.82339C18.9457 1.49544 18.6328 1.31086 18.1429 1.25977C18.4305 1.64046 18.726 1.84975 19.0689 1.99478C19.1084 2.01126 19.1732 2.0129 19.2033 1.98983L19.2017 1.98818Z" fill="#0E0E0E"/>
<path d="M1.42233 12.8646C1.4887 12.9388 1.70204 13.2881 2.11291 13.2815C2.11291 13.2815 1.4571 12.7509 1.16316 12.6158C1.16316 12.6158 1.31487 12.7476 1.42075 12.8663L1.42233 12.8646Z" fill="#0E0E0E"/>
<path d="M3.37979 12.7751C3.49989 12.8262 3.66266 12.8493 3.77644 12.7686C4.84471 12.0022 4.91108 11.3397 4.93162 11.2013C5.11968 9.97027 4.38011 8.77053 3.25178 8.48049C2.08869 8.18055 0.870296 8.87436 0.50209 10.0461C0.299814 10.6937 0.374087 11.32 0.672761 11.9132C0.895581 12.3566 1.50083 12.2807 1.9196 12.5362C1.9196 12.5362 2.02074 12.2 3.37979 12.7751Z" fill="#0E0E0E"/>
<path d="M20.5373 5.77545C20.4662 6.06879 20.5041 6.25501 20.5736 6.43629C20.6764 6.23359 20.6132 6.05066 20.5373 5.77545Z" fill="#0E0E0E"/>
<path d="M16.4909 8.05883C16.4766 8.17913 16.4751 8.30767 16.6457 8.28955C17.2652 8.22363 17.8294 8.02752 18.226 7.48698C18.3398 7.33042 18.4204 7.12112 18.3256 6.94644C18.2402 6.79153 18.0522 6.91183 17.9147 6.92007C17.3584 6.95633 17.2478 6.87557 17.093 6.33174C17.0155 6.06147 16.9254 5.79285 16.8117 5.53906C16.6426 5.16167 16.592 4.77274 16.6663 4.37228C16.7579 3.88612 16.7374 3.39997 16.7232 2.91216C16.7137 2.63036 16.701 2.34361 16.739 2.0651C16.7753 1.78988 16.8385 1.44875 17.1767 1.44381C17.4833 1.43886 17.6176 1.72726 17.7029 2.01072C17.7172 2.06015 17.7346 2.11124 17.733 2.16068C17.7267 3.13794 18.2007 3.89436 18.7554 4.61948C19.5614 5.67254 20.1113 6.82449 20.0323 8.22692C20.3436 7.69627 20.6217 7.17221 20.4274 6.5262C20.361 6.30702 20.3246 6.07465 20.3468 5.84064C20.3562 5.74176 20.3404 5.60992 20.4653 5.5885C20.5806 5.56872 20.6281 5.67913 20.6676 5.77637C20.8035 6.11256 20.7671 6.46028 20.7055 6.80306C20.6644 7.03213 20.7292 7.20517 20.8698 7.36667C21.099 7.62706 21.385 7.75889 21.7216 7.76713C22.5702 7.78526 23.422 7.71934 24.269 7.838C24.2769 7.838 24.2912 7.80339 24.3322 7.73747C22.812 6.79318 22.3442 5.1765 21.9097 3.5351C21.7595 2.96655 21.5904 2.39964 21.4024 1.84427C21.1432 1.07796 20.6138 0.606631 19.8442 0.473144C19.2058 0.362729 18.5658 0.385801 17.9432 0.596743C17.8341 0.632999 17.654 0.642886 17.6634 0.794501C17.6745 0.962596 17.8483 0.96754 17.9842 0.988963C18.4978 1.06642 18.9656 1.24275 19.3164 1.66464C19.4223 1.79153 19.544 1.93161 19.4302 2.10959C19.3022 2.309 19.1236 2.22331 18.9656 2.15244C18.5753 1.97611 18.2292 1.72891 17.9463 1.40096C17.7583 1.18343 17.5512 1.13234 17.2842 1.19167C16.9096 1.27406 16.6647 1.51137 16.532 1.86404C16.3581 2.32054 16.2554 2.8034 16.3028 3.29615C16.4561 4.88151 16.6931 6.46193 16.494 8.06213L16.4909 8.05883Z" fill="#0E0E0E"/>
<path d="M35.977 9.29949C36.1492 9.21544 36.3136 9.11162 36.5317 9.20061C36.4226 9.38024 36.2093 9.32256 36.0876 9.5335C36.3009 9.50384 36.4827 9.48571 36.6628 9.4511C36.8082 9.42309 36.9062 9.32421 36.9331 9.17095C36.9836 8.87596 36.7513 8.44748 36.5206 8.39639C36.1287 8.3107 35.5724 8.58756 35.5076 8.91715C35.4697 9.11162 35.4982 9.33245 35.6372 9.45275C35.7494 9.54833 35.8616 9.35552 35.977 9.29949Z" fill="#0E0E0E"/>
<path d="M23.529 11.0382C23.1876 10.1549 23.1418 9.2386 23.2745 8.30749C23.3014 8.11632 23.3599 7.94493 23.0754 7.93999C22.8321 7.93505 22.7088 8.01085 22.7372 8.29596C22.7862 8.7887 22.6535 9.26497 22.5729 9.74618C22.4354 10.5553 21.9297 11.0168 21.2439 11.3184C20.4348 11.676 19.583 11.7023 18.7328 11.6166C18.2034 11.5623 17.7925 11.2442 17.6013 10.6905C17.3785 10.0478 17.1952 9.39681 17.1541 8.7096C17.1462 8.56952 17.1573 8.40967 16.9471 8.4245C16.7764 8.43768 16.6247 8.46734 16.6279 8.70136C16.6279 8.77717 16.6089 8.85462 16.6105 8.93208C16.62 9.78409 16.5362 10.6262 16.375 11.4617C16.2849 11.9331 16.2612 12.3978 16.4208 12.8675C16.6279 13.4772 16.8854 14.0557 17.2284 14.5946C17.3011 14.7083 17.4385 14.9242 17.3516 14.9637C16.9724 15.1318 17.2157 15.3971 17.2252 15.613C17.2394 15.9558 17.3674 16.0431 17.7262 15.9245C19.474 15.3477 21.2581 15.2439 23.0565 15.6427C23.3377 15.7053 23.3599 15.5867 23.3946 15.3724C23.5732 14.2699 23.7581 13.1674 23.9493 12.0682C23.9762 11.91 23.9904 11.7683 23.9114 11.6265C23.698 11.4914 23.6159 11.2607 23.529 11.0382Z" fill="#0E0E0E"/>
<path d="M27.3457 31.6548C27.4942 31.1143 27.4057 30.6759 27.333 30.2376C27.2271 30.6792 27.1639 31.1192 27.3457 31.6548Z" fill="#0E0E0E"/>
<path d="M37.4897 11.4264C37.4818 11.4362 37.4739 11.4461 37.4644 11.456C37.4122 11.5154 37.3174 11.5912 37.3 11.5154C37.2131 11.1495 36.6426 11.3456 36.611 10.899C36.5905 11.0852 36.6727 11.2616 36.7027 11.3654C36.7691 11.5846 36.8196 11.7774 36.6758 12.0196C36.5526 12.2273 36.7106 12.4432 36.8339 12.6179C36.9555 12.7909 37.123 12.7019 37.2747 12.6525C37.3569 12.6261 37.4423 12.6047 37.5197 12.5651C37.7188 12.4629 38.0317 12.486 38.057 12.1778C38.0807 11.8845 37.8642 11.5368 37.4912 11.4264H37.4897Z" fill="#0E0E0E"/>
<path d="M20.1598 20.3127C18.7675 20.25 17.8257 19.4145 17.192 18.0533C17.0577 18.5312 17.0956 18.897 17.1762 19.2629C17.2173 19.4508 17.3642 19.7144 17.2963 19.8067C17.0956 20.0721 17.2868 20.2303 17.3721 20.4082C17.7198 21.1218 18.1654 21.7695 18.6 22.427C18.7517 22.6561 18.954 22.8127 19.0219 23.0978L19.0283 23.134C18.4214 22.7402 17.9916 22.1584 17.5444 21.5964C17.1588 21.1119 16.8491 20.573 16.5678 19.9732C16.5172 20.0671 16.4888 20.1083 16.4729 20.1545C15.8013 21.9392 14.9906 23.6581 14.1784 25.3769C13.6221 26.5519 13.0943 27.7451 12.8494 29.047C12.8162 29.225 12.8399 29.3651 12.9379 29.5167C13.167 29.8677 13.2381 30.2715 13.2539 30.6884C13.2587 30.8367 13.2903 31.0328 13.0896 31.0608C12.9189 31.0856 12.8383 30.9274 12.7719 30.7856C12.6376 30.4989 12.6329 30.1907 12.6344 29.8792C12.6344 29.782 12.6755 29.6452 12.5712 29.5991C12.4543 29.5463 12.3611 29.6584 12.2963 29.7457C12.1288 29.9682 11.9612 30.1924 11.819 30.433C10.8187 32.1221 9.9527 33.8805 9.25422 35.7279C8.97293 36.4712 8.65845 37.1963 8.22703 37.8604C7.88569 38.3861 7.41476 38.6284 6.8111 38.602C6.66255 38.5954 6.514 38.579 6.36704 38.5905C5.95142 38.6235 5.80288 38.869 5.94352 39.2777C6.00199 39.4474 6.09049 39.6089 6.11893 39.782C6.17898 40.1396 6.37178 40.2517 6.69732 40.2006C7.08765 40.1396 7.47482 40.049 7.87147 40.0555C8.46091 40.0638 8.64423 39.9418 8.81332 39.3634C8.94764 38.9003 9.15466 38.4817 9.42963 38.0977C10.3209 36.8486 11.1506 35.5549 11.9723 34.2546C12.538 33.3598 13.1465 32.5045 13.9461 31.8173C14.1958 31.603 14.4186 31.3608 14.5956 31.0823C16.119 28.6943 17.979 26.5569 19.3791 24.0767C19.5261 23.8163 19.7331 23.7158 20.0017 23.8427C20.1819 23.9284 20.3367 23.8806 20.4979 23.808C20.7445 23.6976 20.912 23.4883 21.089 23.2922C21.3924 22.9544 21.6974 22.6182 22.0024 22.2804C22.0276 22.3018 22.0529 22.3232 22.0782 22.343C21.8759 22.7616 21.5804 23.1241 21.3734 23.5427C21.1095 24.0767 21.1364 24.5365 21.4003 25.0721C22.6171 27.544 24.2811 29.6815 26.0115 31.7612C26.6737 32.5572 27.3832 33.3054 27.9142 34.2118C28.5179 35.2434 29.1057 36.2883 29.7679 37.2787C30.4174 38.2494 31.1095 39.1871 31.7322 40.1775C31.9629 40.545 32.2173 40.8911 32.5081 41.2075C32.8036 41.5289 33.0659 41.5256 33.3535 41.1894C33.5179 40.9982 33.6585 40.7856 33.8118 40.5829C34.199 40.0753 34.1611 39.871 33.5985 39.5892C32.5065 39.0404 31.6516 38.2395 31.1396 37.076C30.9705 36.6904 30.8314 36.2915 30.6844 35.896C29.8469 33.635 28.6396 31.5602 27.6661 29.3667C27.6471 29.3239 27.6045 29.2925 27.5602 29.2398C27.4038 29.4689 27.4717 29.6996 27.4954 29.9204C27.5523 30.4445 27.6092 30.9669 27.5555 31.4959C27.5444 31.6096 27.5397 31.748 27.4022 31.7711C27.2489 31.7958 27.1841 31.6607 27.143 31.542C27.0656 31.3229 27.0419 31.0922 27.0688 30.8598C27.1288 30.3506 27.2679 29.8347 27.2315 29.3337C27.1525 28.2444 26.9455 27.1699 26.6215 26.1268C26.277 25.0144 25.6797 24.0338 25.1029 23.0467C24.6225 22.2243 24.2811 21.3525 24.1184 20.4033C24.0899 20.2418 24.1041 20.0556 23.9682 19.899C23.7865 20.1643 23.7043 20.4824 23.4009 20.6538C23.4009 20.2682 23.589 19.9633 23.6395 19.6238C23.6917 19.2662 23.6158 18.9448 23.4246 18.6086C22.6408 19.8512 21.5125 20.3736 20.1613 20.3127H20.1598Z" fill="#0E0E0E"/>
<path d="M34.2333 39.1634C34.268 39.2079 34.3028 39.2524 34.3376 39.2969C34.3534 39.3282 34.3707 39.3612 34.3865 39.3925C34.4182 39.4387 34.4498 39.4848 34.4814 39.5309C34.5225 39.6166 34.5635 39.7007 34.6062 39.7864C34.6299 39.8342 34.6552 39.8836 34.6789 39.9314C34.7026 39.9825 34.7247 40.0336 34.7484 40.0847C34.7927 40.2182 34.8385 40.3516 34.8812 40.4851C35.1024 41.1806 35.0281 41.4673 34.5003 41.9387C33.7402 42.616 32.9453 43.2472 32.1046 43.8124C27.457 46.9288 22.4222 48.1384 16.9576 47.0705C12.4127 46.1822 8.6058 43.8454 5.36148 40.4522C5.12286 40.2033 4.92848 39.9446 4.9427 39.5244C4.77361 39.7699 4.78942 39.9792 4.85421 40.1951C4.96641 40.5675 5.13392 40.9103 5.38518 41.202C5.83872 41.7294 6.31597 42.2304 6.82482 42.7C9.20157 44.8886 11.9876 46.2284 15.0044 47.1793C17.8015 48.0609 20.6144 48.2488 23.4842 47.8615C26.5657 47.4462 29.4023 46.3256 32.0256 44.6018C33.086 43.9047 34.0136 43.0461 34.8717 42.0952C35.2984 41.6222 35.3316 41.1295 35.0961 40.5741C35.0171 40.3862 34.9207 40.2066 34.8306 40.0237C34.8053 39.9726 34.7816 39.9215 34.7563 39.8688C34.7295 39.8193 34.7026 39.7683 34.6757 39.7188C34.6331 39.6348 34.5904 39.5524 34.5477 39.4683C34.5161 39.4222 34.4845 39.3777 34.4529 39.3315C34.4371 39.3002 34.4213 39.2689 34.4055 39.2376C34.3739 39.1898 34.3423 39.142 34.3107 39.0942C34.2822 39.0728 34.2538 39.0514 34.2238 39.0283C34.208 39.0168 34.1827 38.9921 34.1764 38.9953C34.1369 39.0201 34.1574 39.0481 34.1811 39.0728C34.1985 39.1025 34.2175 39.1321 34.2348 39.1618L34.2333 39.1634Z" fill="#0E0E0E"/>
<path d="M12.8253 29.7533C12.77 30.1406 12.789 30.5114 13.0576 30.9217C13.1398 30.4372 13.0228 30.0878 12.8253 29.7533Z" fill="#0E0E0E"/>
<path d="M37.5721 11.3195C37.8297 10.9932 37.6148 11.0262 37.6511 10.9224C37.6875 10.8202 37.7207 10.835 37.7333 10.746C37.7554 10.5829 37.4979 10.5878 37.6037 10.4576C37.7776 10.2434 37.4663 10.2055 37.5089 10.0967C37.6559 9.72263 37.2829 9.77371 37.294 9.64847C37.3114 9.44247 37.068 9.39962 37.0016 9.36831C37.0016 9.36831 37.0712 9.27767 37.0807 9.16725C37.1091 8.83436 37.0712 8.44708 36.7014 8.2691C36.3822 8.11584 35.6979 8.307 35.4688 8.5954C35.276 8.83766 35.2981 9.23977 35.5667 9.63199C35.6568 9.76382 35.6584 9.84787 35.581 9.96653C35.0895 10.7015 34.4843 11.2404 33.5803 11.3311C32.4884 11.4398 31.3853 11.4975 30.3234 11.8024C29.8461 11.9392 29.4574 11.8683 29.0797 11.57C28.9817 11.4926 28.8758 11.4233 28.7778 11.3459C27.2402 10.1214 25.701 8.90358 24.2582 7.54564C23.3148 6.65737 22.6922 5.65539 22.3429 4.41775C22.1027 3.56739 21.8609 2.71703 21.5986 1.87326C21.3616 1.11354 20.8717 0.589479 20.1321 0.363705C19.2993 0.109915 18.4728 0.193962 17.6637 0.50708C17.5578 0.54828 17.403 0.6142 17.4219 0.714727C17.482 1.0262 17.2686 0.991588 17.1075 1.03608C16.8025 1.11848 16.5828 1.31295 16.4311 1.59475C16.2731 1.88974 16.1814 2.20616 16.1245 2.53905C15.9918 3.31855 16.2051 4.07497 16.2494 4.84129C16.3094 5.8927 16.4374 6.94412 16.262 7.99718C16.232 8.17846 16.2225 8.3482 15.9886 8.38611C15.5398 8.45697 15.1605 8.69593 14.7923 8.96455C13.8189 9.66989 12.9687 10.5384 11.9794 11.2223C11.5085 11.5486 10.8717 11.9705 10.4908 12.422C10.4908 12.422 10.3644 12.4072 10.219 12.4039C9.15863 12.3825 8.09984 12.4039 7.03947 12.3297C6.38207 12.2836 5.75628 12.1353 5.13365 11.9359C4.98036 11.8864 4.92505 11.9392 4.93769 11.7513C4.9772 11.5601 4.9851 11.4777 5.00406 11.3986C5.36911 9.8215 4.39249 8.36798 2.82801 8.2312C1.80083 8.14056 0.776804 8.85743 0.376993 9.81821C0.038812 10.629 0.313781 11.3986 0.446524 12.1732C0.497093 12.4682 0.863719 12.5473 1.066 12.75C1.12763 12.8126 1.20348 12.862 1.25721 12.9313C1.68705 13.48 2.27333 13.5229 2.87384 13.4438C3.56126 13.3531 4.25659 13.4586 4.94243 13.3416C5.03093 13.3268 5.13681 13.3729 5.22688 13.4108C6.60173 13.9959 8.02714 14.3963 9.48417 14.6847C9.84131 14.7556 10.1921 14.7292 10.5445 14.6237C12.2544 14.1145 13.781 13.251 15.1511 12.0743C15.5951 11.692 15.8464 11.7513 16.0913 12.2935C16.1435 12.4088 16.1751 12.5357 16.2099 12.6577C16.3552 13.1785 16.5386 13.6811 16.7867 14.1574C16.8862 14.3469 16.9415 14.5331 16.951 14.7638C16.97 15.1841 17.0126 15.6241 17.1896 16.0048C17.3603 16.3723 17.3556 16.7216 17.2718 17.0891C17.2133 17.3512 17.147 17.6132 17.0648 17.8686C16.7519 18.8541 16.7551 19.805 17.3303 20.6999C17.3571 20.7427 17.384 20.7872 17.4045 20.8334C17.4393 20.9092 17.5136 20.9817 17.3935 21.097C17.0111 20.6883 16.8325 20.1478 16.5575 19.6666C16.4343 19.7786 16.4011 19.9204 16.3521 20.0489C15.7642 21.6046 15.0831 23.1175 14.3562 24.6089C13.6466 26.0657 12.9576 27.5324 12.6511 29.154C12.64 29.2134 12.6242 29.2941 12.5831 29.3205C11.9668 29.7374 11.6539 30.4082 11.2952 31.0278C10.4023 32.572 9.65484 34.1952 9.01798 35.8712C8.7683 36.5304 8.47911 37.1699 8.0872 37.7532C7.54832 38.5542 6.90672 38.6382 6.20982 37.9988C5.97278 37.7829 5.65356 37.7994 5.47341 38.0631C5.17947 38.4915 4.92031 38.9447 4.72277 39.4342C4.59003 39.7605 4.60267 40.072 4.73225 40.4032C5.04357 41.2041 5.60615 41.7974 6.19086 42.3726C8.67822 44.8215 11.6476 46.3244 14.9061 47.328C17.9497 48.2658 21.0108 48.4437 24.1239 47.9362C26.8641 47.4896 29.4005 46.4612 31.7677 44.9648C33.0004 44.1853 34.1081 43.2526 35.0705 42.1303C35.3945 41.7513 35.4972 41.3228 35.355 40.8432C35.1606 40.184 34.8224 39.599 34.4384 39.0453C34.2583 38.7849 33.8458 38.6876 33.6514 38.9002C33.3275 39.2529 33.0762 39.1029 32.7902 38.8772C32.5626 38.6992 32.343 38.5146 32.1423 38.3037C31.5165 37.6461 31.1894 36.8155 30.8844 35.9685C30.0358 33.6135 28.7368 31.486 27.7459 29.2018C27.7112 29.1227 27.6527 29.009 27.5926 28.9975C27.3382 28.9546 27.3445 28.7585 27.3177 28.569C27.0632 26.7809 26.5623 25.0901 25.5825 23.5707C24.8809 22.4813 24.3641 21.308 24.2061 19.9863C24.1871 19.8231 24.146 19.6485 24.0228 19.5232C23.89 19.6056 23.9264 19.7869 23.7652 19.8429C23.7415 19.5578 23.8679 19.281 23.7699 19.0024C23.3828 17.8983 23.2263 16.7991 23.5202 15.6142C23.7731 14.599 23.8489 13.5361 24.0133 12.4962C24.1697 11.5008 24.263 11.4728 25.0895 11.9919C26.3458 12.7813 27.6005 13.5789 29.0433 13.9695C29.5411 14.1046 30.0358 14.1491 30.5414 14.0173C32.0032 13.6333 33.4365 13.1686 34.7971 12.4863C35.2317 12.2688 35.6789 12.0891 36.1451 11.9589C36.3553 11.8996 36.4896 11.8716 36.5023 12.2144C36.5228 12.7912 36.8436 12.9708 37.3635 12.7681C37.5595 12.6923 37.7507 12.6017 37.9467 12.5226C38.2074 12.4171 38.2722 12.2309 38.1663 11.9688C38.0715 11.7332 38.0225 11.4876 37.5721 11.3212V11.3195ZM37.5642 10.6834C37.6211 10.8268 37.49 10.8416 37.3983 10.8713C37.3635 10.8828 37.3572 10.9042 37.3841 10.9191C37.5042 10.9784 37.6401 11.041 37.4346 11.1613C37.3351 11.2206 36.537 11.1976 37.2197 10.8943C37.2608 10.8762 36.9606 10.9224 36.9037 10.9174C36.8231 10.9092 36.7061 10.9603 36.6919 10.835C36.6808 10.7328 36.7915 10.6966 36.8689 10.6719C36.9969 10.6323 37.5105 10.5499 37.5642 10.6834ZM37.4678 10.3555C37.5152 10.5252 36.5528 10.6389 36.526 10.4576C36.5054 10.3159 36.6777 10.3208 36.7804 10.3044C37.0253 10.2665 37.3936 10.0868 37.4678 10.3555ZM37.3114 9.88083C37.3556 9.89731 37.3983 9.96323 37.3619 10.0044C37.1802 10.2071 36.88 10.1725 36.6366 10.189C36.1641 10.2203 37.0791 9.79679 37.3098 9.88083H37.3114ZM35.6394 9.454C35.4988 9.3337 35.4703 9.11287 35.5099 8.91841C35.5746 8.59046 36.1309 8.31195 36.5228 8.39764C36.7535 8.44873 36.9874 8.87721 36.9353 9.1722C36.9084 9.32546 36.8104 9.42434 36.665 9.45236C36.4865 9.48696 36.3032 9.50509 36.0898 9.53475C36.2131 9.32381 36.4248 9.38149 36.5339 9.20186C36.3142 9.11287 36.1514 9.21834 35.9792 9.30074C35.8638 9.35677 35.7516 9.54959 35.6394 9.454ZM16.2999 3.29547C16.2525 2.80108 16.3552 2.31987 16.5291 1.86337C16.6618 1.51235 16.9068 1.27504 17.2813 1.191C17.5484 1.13167 17.7554 1.18275 17.9434 1.40029C18.2279 1.72824 18.574 1.97544 18.9627 2.15177C19.1207 2.22263 19.2993 2.30833 19.4273 2.10892C19.5411 1.93094 19.4194 1.79086 19.3135 1.66397C18.9627 1.24043 18.4949 1.0641 17.9814 0.988292C17.8454 0.968516 17.6716 0.963572 17.6606 0.793829C17.6511 0.642215 17.8312 0.633975 17.9403 0.596071C18.5629 0.385129 19.2029 0.362057 19.8413 0.472472C20.6109 0.605959 21.1388 1.07728 21.3995 1.8436C21.5876 2.40062 21.7566 2.96588 21.9068 3.53443C22.3414 5.17583 22.8091 6.7925 24.3294 7.7368C24.2883 7.80272 24.2756 7.83898 24.2661 7.83733C23.4191 7.71867 22.5673 7.78459 21.7187 7.76647C21.3821 7.75987 21.0961 7.62803 20.8669 7.366C20.7263 7.20615 20.6615 7.03146 20.7026 6.80239C20.7642 6.46126 20.799 6.11353 20.6647 5.7757C20.6252 5.67846 20.5793 5.56805 20.4624 5.58783C20.336 5.60925 20.3518 5.74109 20.3439 5.83997C20.3233 6.07398 20.3597 6.30635 20.4245 6.52553C20.6188 7.17319 20.3407 7.6956 20.0294 8.22625C20.1084 6.82382 19.5585 5.67022 18.7525 4.61881C18.1978 3.89369 17.7222 3.13727 17.7301 2.16001C17.7301 2.11057 17.7143 2.05784 17.7001 2.01004C17.6163 1.72659 17.4804 1.43984 17.1738 1.44314C16.8356 1.44808 16.7724 1.78921 16.7361 2.06443C16.6982 2.34129 16.7108 2.62969 16.7203 2.91149C16.7361 3.40094 16.7551 3.88545 16.6634 4.37161C16.5891 4.77042 16.6397 5.161 16.8088 5.53839C16.9226 5.79218 17.0126 6.06245 17.0901 6.33107C17.2449 6.8749 17.3556 6.95565 17.9118 6.9194C18.0509 6.91116 18.2389 6.79086 18.3227 6.94577C18.4175 7.12045 18.3385 7.32975 18.2231 7.48631C17.8281 8.02685 17.2639 8.22461 16.6429 8.28888C16.4722 8.307 16.4738 8.17846 16.488 8.05816C16.6855 6.45796 16.4485 4.87754 16.2968 3.29218L16.2999 3.29547ZM18.1441 1.25856C18.634 1.30965 18.9469 1.49422 19.1871 1.82217C19.2235 1.87161 19.2709 1.93424 19.2029 1.98697C19.1729 2.01004 19.1081 2.0084 19.0686 1.99192C18.7257 1.84854 18.4317 1.63925 18.1425 1.25691L18.1441 1.25856ZM17.8012 6.71999C17.5073 6.75954 17.3445 6.64419 17.2829 6.36897C17.1944 5.9784 17.0474 5.61255 16.8973 5.24669C16.8198 5.05553 16.774 4.85117 16.8104 4.64353C16.9336 3.94149 16.902 3.2345 16.8736 2.52751C16.8625 2.26713 16.8799 2.01004 16.9968 1.77603C17.1043 1.56179 17.2402 1.53542 17.3872 1.74472C17.4757 1.87161 17.5436 2.01004 17.5452 2.1699C17.5547 3.12244 17.9734 3.8904 18.5329 4.60398C19.1239 5.35711 19.5964 6.17616 19.7876 7.15012C19.8761 7.60331 19.8287 8.04497 19.7465 8.48828C19.726 8.5954 19.6612 8.70087 19.7513 8.85578C20.2206 8.45862 20.3865 7.89171 20.6188 7.27866C21.0123 7.94115 21.6065 7.9807 22.2213 7.94115C22.5168 7.92138 22.6653 8.00872 22.6084 8.35315C22.5563 8.66956 22.5452 8.99092 22.5041 9.30898C22.3382 10.6043 21.6966 11.0822 20.5224 11.3624C20.0073 11.486 19.47 11.5008 18.939 11.4662C18.3733 11.4299 17.9513 11.1613 17.7506 10.5862C17.5405 9.98301 17.3524 9.37325 17.3113 8.7223C17.2923 8.43555 17.3856 8.27569 17.6353 8.16033C18.0256 7.97906 18.4175 7.74834 18.4728 7.26218C18.5123 6.9194 18.6245 6.72164 18.9485 6.64089C18.5455 6.55355 18.1741 6.67055 17.7996 6.71999H17.8012ZM20.5367 5.77405C20.6109 6.04926 20.6742 6.23219 20.573 6.43489C20.5035 6.25361 20.4656 6.06739 20.5367 5.77405ZM0.674086 11.9128C0.375412 11.3195 0.299558 10.6933 0.503415 10.0456C0.87004 8.87391 2.08844 8.18176 3.25311 8.48004C4.38143 8.77009 5.12258 9.96982 4.93295 11.2009C4.91241 11.3393 4.84603 12.0018 3.77776 12.7681C3.66556 12.8489 3.50279 12.8258 3.38111 12.7747C2.02207 12.1996 1.92093 12.5357 1.92093 12.5357C1.50215 12.2803 0.896906 12.3561 0.674086 11.9128ZM1.42314 12.8653C1.31726 12.7467 1.16555 12.6148 1.16555 12.6148C1.45949 12.75 2.1153 13.2806 2.1153 13.2806C1.70285 13.2889 1.48951 12.9378 1.42472 12.8637L1.42314 12.8653ZM2.30178 13.2823C1.98572 12.9214 1.2256 12.5374 1.30936 12.4632C1.38363 12.3957 2.63522 13.0631 2.94179 13.2938C2.76322 13.3301 2.36657 13.3564 2.30178 13.2839V13.2823ZM16.1308 11.9046C15.6615 11.5634 15.4956 11.5684 15.0468 11.9573C13.8284 13.0137 12.4693 13.7948 10.9728 14.3386C10.3438 14.5677 9.72595 14.6221 9.08593 14.4655C7.80274 14.1508 6.52272 13.8261 5.30748 13.2757C5.08624 13.1752 4.85236 13.19 4.61689 13.2197C3.85204 13.3185 3.1172 13.2312 2.43926 12.8126C2.38711 12.7796 2.33338 12.7483 2.28439 12.7104C2.26859 12.6972 2.14375 12.6148 2.22592 12.5868C2.39501 12.5291 3.62922 13.1785 4.41462 12.862C4.17441 12.722 4.2076 12.6231 4.37353 12.4418C4.67378 12.1139 4.95191 12.0463 5.37859 12.193C6.54326 12.5918 7.76482 12.516 8.97057 12.5489C9.38145 12.5605 9.84763 12.516 10.2822 12.6264C10.3091 12.633 10.3233 12.6659 10.3107 12.6906C10.1953 12.9115 9.96141 13.0417 9.84289 13.2262C9.78284 13.3202 9.68802 13.4174 9.76546 13.5377C9.85237 13.6745 9.98037 13.6218 10.1005 13.5855C10.5003 13.4619 10.7437 13.1471 10.7247 12.7055C10.7152 12.4978 10.8242 12.399 10.938 12.2885C11.5512 11.687 12.2576 11.2124 12.9308 10.6916C13.664 10.1264 14.3104 9.44576 15.0879 8.93818C15.4513 8.70087 15.8369 8.55255 16.2573 8.49158C16.3521 8.47839 16.499 8.40918 16.4943 8.61518C16.4659 9.71933 16.3758 10.8152 16.1324 11.9046H16.1308ZM10.494 12.8077C10.5114 13.1471 10.3517 13.3301 9.99144 13.4042C9.92349 13.3301 10.3075 12.9889 10.494 12.8077ZM17.4172 17.1995C17.512 16.9902 17.512 16.7414 17.482 16.514C17.4488 16.252 17.5563 16.1597 17.7743 16.0789C18.6261 15.7641 20.0752 15.5581 21.4343 15.5895C21.94 15.6307 22.4931 15.6537 23.0383 15.7872C23.22 15.8317 23.2958 15.9191 23.2658 16.1053C23.1599 16.7595 23.1947 17.4088 23.3275 18.0565C23.3717 18.2707 23.2848 18.4553 23.1757 18.6349C22.1407 20.3703 19.5648 20.662 18.171 19.1936C17.9987 19.0123 17.8533 18.8014 17.6937 18.6036C17.3587 18.1867 17.1659 17.7483 17.414 17.1962L17.4172 17.1995ZM12.8265 29.7523C13.024 30.0852 13.1409 30.4362 13.0588 30.9207C12.7901 30.5103 12.7712 30.1395 12.8265 29.7523ZM34.1745 38.9975C34.1745 38.9975 34.2061 39.0189 34.2219 39.0304C34.2504 39.0519 34.2804 39.0733 34.3088 39.0963C34.3404 39.1441 34.3721 39.1919 34.4037 39.2397C34.4195 39.271 34.4353 39.3023 34.4511 39.3337C34.4827 39.3798 34.5143 39.4243 34.5459 39.4704C34.5886 39.5545 34.6312 39.6369 34.6739 39.7209C34.7008 39.7704 34.7276 39.8215 34.7545 39.8709C34.7798 39.922 34.8035 39.9731 34.8288 40.0258C34.9172 40.2087 35.0136 40.3884 35.0942 40.5762C35.3297 41.1316 35.2965 41.6244 34.8698 42.0973C34.0117 43.0482 33.0841 43.9068 32.0238 44.6039C29.4005 46.3277 26.5623 47.4484 23.4823 47.8636C20.6109 48.2509 17.7996 48.0614 15.0025 47.1814C11.9858 46.2305 9.19971 44.8907 6.82297 42.7021C6.31412 42.2325 5.83687 41.7315 5.38333 41.2041C5.13207 40.9124 4.96614 40.5697 4.85236 40.1972C4.78756 39.983 4.77176 39.772 4.94085 39.5265C4.92663 39.9467 5.121 40.2054 5.35963 40.4543C8.60395 43.8475 12.4109 46.1843 16.9557 47.0726C22.4204 48.1405 27.4551 46.9325 32.1028 43.8145C32.9435 43.2509 33.7384 42.6197 34.4985 41.9408C35.0279 41.4695 35.1006 41.1827 34.8793 40.4873C34.8367 40.3538 34.7908 40.2203 34.7466 40.0868C34.7229 40.0357 34.7008 39.9846 34.677 39.9335C34.6533 39.8857 34.6281 39.8363 34.6044 39.7885C34.5633 39.7045 34.5222 39.6188 34.4795 39.5331C34.4479 39.4869 34.4163 39.4408 34.3847 39.3946C34.3689 39.3633 34.3515 39.3304 34.3357 39.2991C34.3009 39.2546 34.2662 39.2101 34.2314 39.1656C34.214 39.1359 34.1951 39.1062 34.1777 39.0766C34.154 39.0519 34.1334 39.0238 34.1729 38.9991L34.1745 38.9975ZM34.1398 39.3122C34.4131 39.7308 34.6407 40.1692 34.775 40.6553C34.8777 41.0245 34.8398 41.3607 34.5332 41.6359C31.2905 44.5298 27.6053 46.4579 23.3527 47.0561C18.7557 47.7038 14.451 46.7249 10.4371 44.3188C8.59763 43.2163 6.94781 41.8567 5.43548 40.306C5.12732 39.9896 5.04673 39.6896 5.24427 39.2809C5.41652 38.925 5.58561 38.569 5.80053 38.2378C5.91115 38.068 6.03283 38.0103 6.18769 38.1784C6.29199 38.2921 6.31728 38.3663 6.14029 38.4553C5.69781 38.6794 5.62827 38.8953 5.80053 39.3798C5.83371 39.4754 5.8827 39.5677 5.91115 39.6649C6.12606 40.4098 6.20824 40.512 6.92095 40.3488C7.81539 40.1428 8.52493 40.3554 9.28979 40.9042C12.3208 43.0828 15.7247 44.1606 19.3925 44.3172C23.7747 44.505 27.8123 43.3333 31.5038 40.8696C31.782 40.6834 31.9289 40.7015 32.1217 40.9734C32.8676 42.0248 33.2722 41.6656 33.83 40.919C33.8837 40.8482 33.9343 40.7757 33.9849 40.7031C34.4084 40.0983 34.3531 39.8215 33.732 39.4408C33.6799 39.4078 33.6293 39.3716 33.5677 39.3287C33.7842 38.9892 33.9517 39.0238 34.1413 39.3139L34.1398 39.3122ZM21.1925 25.0324C22.0601 26.743 23.0778 28.3515 24.274 29.8347C24.8066 30.4939 25.219 31.2635 25.8275 31.8469C27.1296 33.096 28.0272 34.6451 28.909 36.2107C29.3799 37.0479 29.9804 37.7829 30.5098 38.5723C30.8638 39.0996 31.1894 39.6468 31.5481 40.1692C31.7093 40.4032 31.6366 40.507 31.4359 40.6438C29.2804 42.1023 26.951 43.1207 24.4368 43.6712C22.9103 44.0057 21.3679 44.1705 19.2867 44.1277C15.7927 44.0139 12.1201 42.8159 8.83941 40.3686C8.64662 40.2236 8.53916 40.1263 8.76988 39.9187C8.85837 39.8396 8.92791 39.7094 8.95319 39.5907C9.097 38.9019 9.49839 38.3614 9.87134 37.801C10.671 36.5947 11.4627 35.3818 12.2512 34.1672C12.7443 33.4075 13.2832 32.6956 13.9453 32.0825C14.4636 31.603 14.8966 31.0327 15.2743 30.4296C16.4011 28.6283 17.7996 27.0331 18.9153 25.2219C19.1223 24.8858 19.323 24.5463 19.5253 24.2084C19.6075 24.0717 19.7086 23.9233 19.8761 23.9991C20.2475 24.1705 20.5462 24.0173 20.8464 23.8195C20.9049 23.78 20.9744 23.7091 21.036 23.7882C21.0629 23.8228 21.0518 23.9134 21.0297 23.9662C20.8733 24.3601 21.0313 24.7045 21.1972 25.0324H21.1925ZM27.3319 30.2368C27.4046 30.6751 27.4931 31.1135 27.3445 31.654C27.1628 31.1184 27.226 30.6784 27.3319 30.2368ZM23.4238 18.6086C23.6151 18.9464 23.6925 19.2661 23.6388 19.6237C23.5882 19.9632 23.4001 20.2664 23.4001 20.6537C23.7036 20.4823 23.7857 20.1643 23.9675 19.8989C24.1034 20.0555 24.0907 20.2417 24.1176 20.4032C24.2804 21.3525 24.6217 22.2243 25.1021 23.0466C25.6789 24.0337 26.2763 25.0143 26.6208 26.1267C26.9447 27.1715 27.1502 28.2444 27.2308 29.3337C27.2671 29.8347 27.128 30.3505 27.068 30.8597C27.0411 31.0937 27.0648 31.3228 27.1423 31.542C27.1833 31.6606 27.2481 31.7958 27.4014 31.771C27.5389 31.748 27.5436 31.6095 27.5547 31.4958C27.6084 30.9685 27.5515 30.4444 27.4947 29.9204C27.471 29.6979 27.403 29.4672 27.5595 29.2397C27.6037 29.2925 27.6464 29.3238 27.6653 29.3666C28.6388 31.5585 29.8461 33.6349 30.6837 35.896C30.8306 36.2915 30.9697 36.6919 31.1388 37.0759C31.6492 38.2378 32.5042 39.0387 33.5977 39.5891C34.1603 39.8709 34.1966 40.0753 33.8111 40.5828C33.6578 40.7839 33.5171 40.9965 33.3528 41.1893C33.0652 41.5255 32.8028 41.5304 32.5073 41.2074C32.2165 40.891 31.9605 40.5433 31.7314 40.1774C31.1103 39.187 30.4166 38.2476 29.7671 37.2786C29.105 36.2882 28.5171 35.2434 27.9134 34.2117C27.3825 33.3053 26.6745 32.5571 26.0108 31.7612C24.2804 29.6814 22.6163 27.5456 21.3995 25.072C21.1356 24.5364 21.1103 24.0766 21.3726 23.5426C21.5797 23.1241 21.8752 22.7615 22.0774 22.3429C22.0522 22.3215 22.0269 22.3001 22.0016 22.2803C21.6966 22.6181 21.3932 22.9543 21.0882 23.2922C20.9112 23.4883 20.7437 23.6976 20.4972 23.808C20.336 23.8805 20.1811 23.9283 20.001 23.8426C19.7323 23.7157 19.5253 23.8162 19.3783 24.0766C17.9798 26.5568 16.1198 28.6943 14.5948 31.0822C14.4162 31.3607 14.195 31.603 13.9453 31.8172C13.1457 32.5044 12.5357 33.3597 11.9715 34.2546C11.1498 35.5548 10.3201 36.8485 9.42886 38.0977C9.15389 38.4817 8.94687 38.9002 8.81255 39.3633C8.64504 39.9418 8.46014 40.0637 7.8707 40.0555C7.47405 40.0489 7.08688 40.1412 6.69655 40.2005C6.37101 40.2516 6.17821 40.1395 6.11816 39.7819C6.08814 39.6089 5.99964 39.4457 5.94275 39.2776C5.8021 38.8673 5.95065 38.6217 6.36627 38.5904C6.51323 38.5789 6.66178 38.5954 6.81033 38.602C7.414 38.6283 7.88492 38.3877 8.22626 37.8604C8.65768 37.1946 8.97215 36.4695 9.25344 35.7279C9.95193 33.8805 10.8195 32.1204 11.8182 30.4329C11.9605 30.1923 12.128 29.9681 12.2955 29.7457C12.3603 29.6583 12.4535 29.5463 12.5705 29.599C12.6748 29.6451 12.6337 29.7819 12.6337 29.8792C12.6321 30.189 12.6353 30.4988 12.7712 30.7856C12.8375 30.9273 12.9181 31.0855 13.0888 31.0608C13.2911 31.0311 13.2579 30.8366 13.2531 30.6883C13.2389 30.273 13.1662 29.8676 12.9371 29.5166C12.8375 29.365 12.8154 29.2249 12.8486 29.0469C13.0935 27.745 13.6213 26.5535 14.1776 25.3769C14.9899 23.658 15.8006 21.9408 16.4722 20.1544C16.4896 20.1082 16.518 20.067 16.567 19.9731C16.8483 20.573 17.158 21.1119 17.5436 21.5964C17.9908 22.1583 18.4207 22.7384 19.0275 23.1339L19.0212 23.0977C18.9532 22.8126 18.7509 22.656 18.5992 22.427C18.1647 21.7694 17.719 21.1218 17.3714 20.4082C17.286 20.2318 17.0948 20.072 17.2955 19.8067C17.365 19.716 17.2165 19.4507 17.1754 19.2628C17.0948 18.8986 17.0569 18.5328 17.1912 18.0532C17.8249 19.4144 18.7668 20.25 20.159 20.3126C21.5085 20.3736 22.6384 19.8512 23.4223 18.6086H23.4238ZM23.9469 12.0677C23.7541 13.1686 23.5708 14.2694 23.3922 15.3719C23.3575 15.5878 23.3354 15.7048 23.0541 15.6422C21.2573 15.245 19.4731 15.3472 17.7238 15.924C17.365 16.0427 17.2386 15.9537 17.2228 15.6125C17.2133 15.3966 16.97 15.1313 17.3492 14.9632C17.4362 14.9253 17.2987 14.7078 17.226 14.5941C16.8815 14.0552 16.6255 13.4767 16.4185 12.867C16.2588 12.3973 16.281 11.9326 16.3726 11.4613C16.5338 10.6257 16.6176 9.7836 16.6081 8.93159C16.6081 8.85413 16.6271 8.77833 16.6255 8.70087C16.6223 8.46686 16.774 8.43719 16.9447 8.42401C17.1549 8.40753 17.1438 8.56903 17.1517 8.70911C17.1928 9.39632 17.3761 10.0473 17.5989 10.69C17.7917 11.2437 18.201 11.5634 18.7304 11.6162C19.579 11.7019 20.4324 11.6755 21.2415 11.3179C21.9273 11.0146 22.433 10.5532 22.5705 9.7457C22.6527 9.26449 22.7838 8.78986 22.7348 8.29547C22.7064 8.01037 22.8297 7.93456 23.073 7.9395C23.3575 7.94445 23.299 8.11419 23.2721 8.307C23.141 9.23812 23.1852 10.1544 23.5266 11.0377C23.6119 11.2602 23.6957 11.4909 23.909 11.6261C23.9864 11.7661 23.9738 11.9095 23.9469 12.0677ZM36.4106 11.7496C35.4419 11.9441 34.6012 12.483 33.6925 12.8406C32.689 13.2345 31.6729 13.5872 30.6331 13.8657C29.8287 14.0799 29.0686 13.8838 28.3227 13.5806C27.2624 13.1488 26.2684 12.5819 25.2996 11.9672C24.8698 11.6953 24.4574 11.392 23.9185 11.6211C23.9627 11.5437 23.9106 11.4827 23.8758 11.4217C23.318 10.4362 23.3069 9.36996 23.4396 8.27899C23.4697 8.03344 23.5677 7.97082 23.8015 7.9807C24.3483 8.00378 24.7908 8.21966 25.1922 8.60364C26.3569 9.71933 27.6464 10.6719 28.9201 11.6425C29.342 11.9639 29.8019 12.1007 30.3455 11.9458C31.3964 11.6458 32.4836 11.5832 33.5629 11.4728C34.4827 11.3789 35.1875 10.9207 35.641 10.0638C35.8401 9.68637 36.5939 9.47543 37.1107 9.65671C36.97 9.80338 36.8025 9.83634 36.635 9.83963C36.3901 9.84622 36.2795 10.0489 36.123 10.1857C36.0661 10.2351 36.1009 10.2714 36.1404 10.334C36.3411 10.6603 36.4327 11.0361 36.5576 11.397C36.6113 11.5552 36.6224 11.7068 36.4122 11.748L36.4106 11.7496ZM37.5168 12.5654C37.441 12.605 37.354 12.6264 37.2719 12.6527C37.1202 12.7022 36.9527 12.7912 36.831 12.6181C36.7077 12.4435 36.5497 12.2276 36.6729 12.0199C36.8167 11.7777 36.7662 11.5865 36.6998 11.3657C36.6682 11.2618 36.5876 11.0839 36.6082 10.8993C36.6382 11.3459 37.2102 11.1481 37.2972 11.5156C37.3161 11.5931 37.4094 11.5156 37.4615 11.4563C37.471 11.4464 37.4773 11.4365 37.4868 11.4266C37.8597 11.5371 38.0762 11.8848 38.0525 12.1781C38.0272 12.4863 37.7143 12.4632 37.5152 12.5654H37.5168Z" fill="#0E0E0E"/>
<path d="M1.30756 12.4619C1.22539 12.5377 1.9855 12.9217 2.29998 13.2809C2.36319 13.3534 2.76142 13.3287 2.94 13.2908C2.63342 13.0601 1.38184 12.3927 1.30756 12.4602V12.4619Z" stroke="#0E0E0E" stroke-width="0.428571" mask="url(#path-1-outside-1_5177_15840)"/>
<path d="M19.2017 1.98818C19.2696 1.9371 19.2222 1.87283 19.1859 1.82339C18.9457 1.49544 18.6328 1.31086 18.1429 1.25977C18.4305 1.64046 18.726 1.84975 19.0689 1.99478C19.1084 2.01126 19.1732 2.0129 19.2033 1.98983L19.2017 1.98818Z" stroke="#0E0E0E" stroke-width="0.428571" mask="url(#path-1-outside-1_5177_15840)"/>
<path d="M1.42233 12.8646C1.4887 12.9388 1.70204 13.2881 2.11291 13.2815C2.11291 13.2815 1.4571 12.7509 1.16316 12.6158C1.16316 12.6158 1.31487 12.7476 1.42075 12.8663L1.42233 12.8646Z" stroke="#0E0E0E" stroke-width="0.428571" mask="url(#path-1-outside-1_5177_15840)"/>
<path d="M3.37979 12.7751C3.49989 12.8262 3.66266 12.8493 3.77644 12.7686C4.84471 12.0022 4.91108 11.3397 4.93162 11.2013C5.11968 9.97027 4.38011 8.77053 3.25178 8.48049C2.08869 8.18055 0.870296 8.87436 0.50209 10.0461C0.299814 10.6937 0.374087 11.32 0.672761 11.9132C0.895581 12.3566 1.50083 12.2807 1.9196 12.5362C1.9196 12.5362 2.02074 12.2 3.37979 12.7751Z" stroke="#0E0E0E" stroke-width="0.428571" mask="url(#path-1-outside-1_5177_15840)"/>
<path d="M20.5373 5.77545C20.4662 6.06879 20.5041 6.25501 20.5736 6.43629C20.6764 6.23359 20.6132 6.05066 20.5373 5.77545Z" stroke="#0E0E0E" stroke-width="0.428571" mask="url(#path-1-outside-1_5177_15840)"/>
<path d="M16.4909 8.05883C16.4766 8.17913 16.4751 8.30767 16.6457 8.28955C17.2652 8.22363 17.8294 8.02752 18.226 7.48698C18.3398 7.33042 18.4204 7.12112 18.3256 6.94644C18.2402 6.79153 18.0522 6.91183 17.9147 6.92007C17.3584 6.95633 17.2478 6.87557 17.093 6.33174C17.0155 6.06147 16.9254 5.79285 16.8117 5.53906C16.6426 5.16167 16.592 4.77274 16.6663 4.37228C16.7579 3.88612 16.7374 3.39997 16.7232 2.91216C16.7137 2.63036 16.701 2.34361 16.739 2.0651C16.7753 1.78988 16.8385 1.44875 17.1767 1.44381C17.4833 1.43886 17.6176 1.72726 17.7029 2.01072C17.7172 2.06015 17.7346 2.11124 17.733 2.16068C17.7267 3.13794 18.2007 3.89436 18.7554 4.61948C19.5614 5.67254 20.1113 6.82449 20.0323 8.22692C20.3436 7.69627 20.6217 7.17221 20.4274 6.5262C20.361 6.30702 20.3246 6.07465 20.3468 5.84064C20.3562 5.74176 20.3404 5.60992 20.4653 5.5885C20.5806 5.56872 20.6281 5.67913 20.6676 5.77637C20.8035 6.11256 20.7671 6.46028 20.7055 6.80306C20.6644 7.03213 20.7292 7.20517 20.8698 7.36667C21.099 7.62706 21.385 7.75889 21.7216 7.76713C22.5702 7.78526 23.422 7.71934 24.269 7.838C24.2769 7.838 24.2912 7.80339 24.3322 7.73747C22.812 6.79318 22.3442 5.1765 21.9097 3.5351C21.7595 2.96655 21.5904 2.39964 21.4024 1.84427C21.1432 1.07796 20.6138 0.606631 19.8442 0.473144C19.2058 0.362729 18.5658 0.385801 17.9432 0.596743C17.8341 0.632999 17.654 0.642886 17.6634 0.794501C17.6745 0.962596 17.8483 0.96754 17.9842 0.988963C18.4978 1.06642 18.9656 1.24275 19.3164 1.66464C19.4223 1.79153 19.544 1.93161 19.4302 2.10959C19.3022 2.309 19.1236 2.22331 18.9656 2.15244C18.5753 1.97611 18.2292 1.72891 17.9463 1.40096C17.7583 1.18343 17.5512 1.13234 17.2842 1.19167C16.9096 1.27406 16.6647 1.51137 16.532 1.86404C16.3581 2.32054 16.2554 2.8034 16.3028 3.29615C16.4561 4.88151 16.6931 6.46193 16.494 8.06213L16.4909 8.05883Z" stroke="#0E0E0E" stroke-width="0.428571" mask="url(#path-1-outside-1_5177_15840)"/>
<path d="M35.977 9.29949C36.1492 9.21544 36.3136 9.11162 36.5317 9.20061C36.4226 9.38024 36.2093 9.32256 36.0876 9.5335C36.3009 9.50384 36.4827 9.48571 36.6628 9.4511C36.8082 9.42309 36.9062 9.32421 36.9331 9.17095C36.9836 8.87596 36.7513 8.44748 36.5206 8.39639C36.1287 8.3107 35.5724 8.58756 35.5076 8.91715C35.4697 9.11162 35.4982 9.33245 35.6372 9.45275C35.7494 9.54833 35.8616 9.35552 35.977 9.29949Z" stroke="#0E0E0E" stroke-width="0.428571" mask="url(#path-1-outside-1_5177_15840)"/>
<path d="M23.529 11.0382C23.1876 10.1549 23.1418 9.2386 23.2745 8.30749C23.3014 8.11632 23.3599 7.94493 23.0754 7.93999C22.8321 7.93505 22.7088 8.01085 22.7372 8.29596C22.7862 8.7887 22.6535 9.26497 22.5729 9.74618C22.4354 10.5553 21.9297 11.0168 21.2439 11.3184C20.4348 11.676 19.583 11.7023 18.7328 11.6166C18.2034 11.5623 17.7925 11.2442 17.6013 10.6905C17.3785 10.0478 17.1952 9.39681 17.1541 8.7096C17.1462 8.56952 17.1573 8.40967 16.9471 8.4245C16.7764 8.43768 16.6247 8.46734 16.6279 8.70136C16.6279 8.77717 16.6089 8.85462 16.6105 8.93208C16.62 9.78409 16.5362 10.6262 16.375 11.4617C16.2849 11.9331 16.2612 12.3978 16.4208 12.8675C16.6279 13.4772 16.8854 14.0557 17.2284 14.5946C17.3011 14.7083 17.4385 14.9242 17.3516 14.9637C16.9724 15.1318 17.2157 15.3971 17.2252 15.613C17.2394 15.9558 17.3674 16.0431 17.7262 15.9245C19.474 15.3477 21.2581 15.2439 23.0565 15.6427C23.3377 15.7053 23.3599 15.5867 23.3946 15.3724C23.5732 14.2699 23.7581 13.1674 23.9493 12.0682C23.9762 11.91 23.9904 11.7683 23.9114 11.6265C23.698 11.4914 23.6159 11.2607 23.529 11.0382Z" stroke="#0E0E0E" stroke-width="0.428571" mask="url(#path-1-outside-1_5177_15840)"/>
<path d="M27.3457 31.6548C27.4942 31.1143 27.4057 30.6759 27.333 30.2376C27.2271 30.6792 27.1639 31.1192 27.3457 31.6548Z" stroke="#0E0E0E" stroke-width="0.428571" mask="url(#path-1-outside-1_5177_15840)"/>
<path d="M37.4897 11.4264C37.4818 11.4362 37.4739 11.4461 37.4644 11.456C37.4122 11.5154 37.3174 11.5912 37.3 11.5154C37.2131 11.1495 36.6426 11.3456 36.611 10.899C36.5905 11.0852 36.6727 11.2616 36.7027 11.3654C36.7691 11.5846 36.8196 11.7774 36.6758 12.0196C36.5526 12.2273 36.7106 12.4432 36.8339 12.6179C36.9555 12.7909 37.123 12.7019 37.2747 12.6525C37.3569 12.6261 37.4423 12.6047 37.5197 12.5651C37.7188 12.4629 38.0317 12.486 38.057 12.1778C38.0807 11.8845 37.8642 11.5368 37.4912 11.4264H37.4897Z" stroke="#0E0E0E" stroke-width="0.428571" mask="url(#path-1-outside-1_5177_15840)"/>
<path d="M20.1598 20.3127C18.7675 20.25 17.8257 19.4145 17.192 18.0533C17.0577 18.5312 17.0956 18.897 17.1762 19.2629C17.2173 19.4508 17.3642 19.7144 17.2963 19.8067C17.0956 20.0721 17.2868 20.2303 17.3721 20.4082C17.7198 21.1218 18.1654 21.7695 18.6 22.427C18.7517 22.6561 18.954 22.8127 19.0219 23.0978L19.0283 23.134C18.4214 22.7402 17.9916 22.1584 17.5444 21.5964C17.1588 21.1119 16.8491 20.573 16.5678 19.9732C16.5172 20.0671 16.4888 20.1083 16.4729 20.1545C15.8013 21.9392 14.9906 23.6581 14.1784 25.3769C13.6221 26.5519 13.0943 27.7451 12.8494 29.047C12.8162 29.225 12.8399 29.3651 12.9379 29.5167C13.167 29.8677 13.2381 30.2715 13.2539 30.6884C13.2587 30.8367 13.2903 31.0328 13.0896 31.0608C12.9189 31.0856 12.8383 30.9274 12.7719 30.7856C12.6376 30.4989 12.6329 30.1907 12.6344 29.8792C12.6344 29.782 12.6755 29.6452 12.5712 29.5991C12.4543 29.5463 12.3611 29.6584 12.2963 29.7457C12.1288 29.9682 11.9612 30.1924 11.819 30.433C10.8187 32.1221 9.9527 33.8805 9.25422 35.7279C8.97293 36.4712 8.65845 37.1963 8.22703 37.8604C7.88569 38.3861 7.41476 38.6284 6.8111 38.602C6.66255 38.5954 6.514 38.579 6.36704 38.5905C5.95142 38.6235 5.80288 38.869 5.94352 39.2777C6.00199 39.4474 6.09049 39.6089 6.11893 39.782C6.17898 40.1396 6.37178 40.2517 6.69732 40.2006C7.08765 40.1396 7.47482 40.049 7.87147 40.0555C8.46091 40.0638 8.64423 39.9418 8.81332 39.3634C8.94764 38.9003 9.15466 38.4817 9.42963 38.0977C10.3209 36.8486 11.1506 35.5549 11.9723 34.2546C12.538 33.3598 13.1465 32.5045 13.9461 31.8173C14.1958 31.603 14.4186 31.3608 14.5956 31.0823C16.119 28.6943 17.979 26.5569 19.3791 24.0767C19.5261 23.8163 19.7331 23.7158 20.0017 23.8427C20.1819 23.9284 20.3367 23.8806 20.4979 23.808C20.7445 23.6976 20.912 23.4883 21.089 23.2922C21.3924 22.9544 21.6974 22.6182 22.0024 22.2804C22.0276 22.3018 22.0529 22.3232 22.0782 22.343C21.8759 22.7616 21.5804 23.1241 21.3734 23.5427C21.1095 24.0767 21.1364 24.5365 21.4003 25.0721C22.6171 27.544 24.2811 29.6815 26.0115 31.7612C26.6737 32.5572 27.3832 33.3054 27.9142 34.2118C28.5179 35.2434 29.1057 36.2883 29.7679 37.2787C30.4174 38.2494 31.1095 39.1871 31.7322 40.1775C31.9629 40.545 32.2173 40.8911 32.5081 41.2075C32.8036 41.5289 33.0659 41.5256 33.3535 41.1894C33.5179 40.9982 33.6585 40.7856 33.8118 40.5829C34.199 40.0753 34.1611 39.871 33.5985 39.5892C32.5065 39.0404 31.6516 38.2395 31.1396 37.076C30.9705 36.6904 30.8314 36.2915 30.6844 35.896C29.8469 33.635 28.6396 31.5602 27.6661 29.3667C27.6471 29.3239 27.6045 29.2925 27.5602 29.2398C27.4038 29.4689 27.4717 29.6996 27.4954 29.9204C27.5523 30.4445 27.6092 30.9669 27.5555 31.4959C27.5444 31.6096 27.5397 31.748 27.4022 31.7711C27.2489 31.7958 27.1841 31.6607 27.143 31.542C27.0656 31.3229 27.0419 31.0922 27.0688 30.8598C27.1288 30.3506 27.2679 29.8347 27.2315 29.3337C27.1525 28.2444 26.9455 27.1699 26.6215 26.1268C26.277 25.0144 25.6797 24.0338 25.1029 23.0467C24.6225 22.2243 24.2811 21.3525 24.1184 20.4033C24.0899 20.2418 24.1041 20.0556 23.9682 19.899C23.7865 20.1643 23.7043 20.4824 23.4009 20.6538C23.4009 20.2682 23.589 19.9633 23.6395 19.6238C23.6917 19.2662 23.6158 18.9448 23.4246 18.6086C22.6408 19.8512 21.5125 20.3736 20.1613 20.3127H20.1598Z" stroke="#0E0E0E" stroke-width="0.428571" mask="url(#path-1-outside-1_5177_15840)"/>
<path d="M34.2333 39.1634C34.268 39.2079 34.3028 39.2524 34.3376 39.2969C34.3534 39.3282 34.3707 39.3612 34.3865 39.3925C34.4182 39.4387 34.4498 39.4848 34.4814 39.5309C34.5225 39.6166 34.5635 39.7007 34.6062 39.7864C34.6299 39.8342 34.6552 39.8836 34.6789 39.9314C34.7026 39.9825 34.7247 40.0336 34.7484 40.0847C34.7927 40.2182 34.8385 40.3516 34.8812 40.4851C35.1024 41.1806 35.0281 41.4673 34.5003 41.9387C33.7402 42.616 32.9453 43.2472 32.1046 43.8124C27.457 46.9288 22.4222 48.1384 16.9576 47.0705C12.4127 46.1822 8.6058 43.8454 5.36148 40.4522C5.12286 40.2033 4.92848 39.9446 4.9427 39.5244C4.77361 39.7699 4.78942 39.9792 4.85421 40.1951C4.96641 40.5675 5.13392 40.9103 5.38518 41.202C5.83872 41.7294 6.31597 42.2304 6.82482 42.7C9.20157 44.8886 11.9876 46.2284 15.0044 47.1793C17.8015 48.0609 20.6144 48.2488 23.4842 47.8615C26.5657 47.4462 29.4023 46.3256 32.0256 44.6018C33.086 43.9047 34.0136 43.0461 34.8717 42.0952C35.2984 41.6222 35.3316 41.1295 35.0961 40.5741C35.0171 40.3862 34.9207 40.2066 34.8306 40.0237C34.8053 39.9726 34.7816 39.9215 34.7563 39.8688C34.7295 39.8193 34.7026 39.7683 34.6757 39.7188C34.6331 39.6348 34.5904 39.5524 34.5477 39.4683C34.5161 39.4222 34.4845 39.3777 34.4529 39.3315C34.4371 39.3002 34.4213 39.2689 34.4055 39.2376C34.3739 39.1898 34.3423 39.142 34.3107 39.0942C34.2822 39.0728 34.2538 39.0514 34.2238 39.0283C34.208 39.0168 34.1827 38.9921 34.1764 38.9953C34.1369 39.0201 34.1574 39.0481 34.1811 39.0728C34.1985 39.1025 34.2175 39.1321 34.2348 39.1618L34.2333 39.1634Z" stroke="#0E0E0E" stroke-width="0.428571" mask="url(#path-1-outside-1_5177_15840)"/>
<path d="M12.8253 29.7533C12.77 30.1406 12.789 30.5114 13.0576 30.9217C13.1398 30.4372 13.0228 30.0878 12.8253 29.7533Z" stroke="#0E0E0E" stroke-width="0.428571" mask="url(#path-1-outside-1_5177_15840)"/>
<path d="M37.5721 11.3195C37.8297 10.9932 37.6148 11.0262 37.6511 10.9224C37.6875 10.8202 37.7207 10.835 37.7333 10.746C37.7554 10.5829 37.4979 10.5878 37.6037 10.4576C37.7776 10.2434 37.4663 10.2055 37.5089 10.0967C37.6559 9.72263 37.2829 9.77371 37.294 9.64847C37.3114 9.44247 37.068 9.39962 37.0016 9.36831C37.0016 9.36831 37.0712 9.27767 37.0807 9.16725C37.1091 8.83436 37.0712 8.44708 36.7014 8.2691C36.3822 8.11584 35.6979 8.307 35.4688 8.5954C35.276 8.83766 35.2981 9.23977 35.5667 9.63199C35.6568 9.76382 35.6584 9.84787 35.581 9.96653C35.0895 10.7015 34.4843 11.2404 33.5803 11.3311C32.4884 11.4398 31.3853 11.4975 30.3234 11.8024C29.8461 11.9392 29.4574 11.8683 29.0797 11.57C28.9817 11.4926 28.8758 11.4233 28.7778 11.3459C27.2402 10.1214 25.701 8.90358 24.2582 7.54564C23.3148 6.65737 22.6922 5.65539 22.3429 4.41775C22.1027 3.56739 21.8609 2.71703 21.5986 1.87326C21.3616 1.11354 20.8717 0.589479 20.1321 0.363705C19.2993 0.109915 18.4728 0.193962 17.6637 0.50708C17.5578 0.54828 17.403 0.6142 17.4219 0.714727C17.482 1.0262 17.2686 0.991588 17.1075 1.03608C16.8025 1.11848 16.5828 1.31295 16.4311 1.59475C16.2731 1.88974 16.1814 2.20616 16.1245 2.53905C15.9918 3.31855 16.2051 4.07497 16.2494 4.84129C16.3094 5.8927 16.4374 6.94412 16.262 7.99718C16.232 8.17846 16.2225 8.3482 15.9886 8.38611C15.5398 8.45697 15.1605 8.69593 14.7923 8.96455C13.8189 9.66989 12.9687 10.5384 11.9794 11.2223C11.5085 11.5486 10.8717 11.9705 10.4908 12.422C10.4908 12.422 10.3644 12.4072 10.219 12.4039C9.15863 12.3825 8.09984 12.4039 7.03947 12.3297C6.38207 12.2836 5.75628 12.1353 5.13365 11.9359C4.98036 11.8864 4.92505 11.9392 4.93769 11.7513C4.9772 11.5601 4.9851 11.4777 5.00406 11.3986C5.36911 9.8215 4.39249 8.36798 2.82801 8.2312C1.80083 8.14056 0.776804 8.85743 0.376993 9.81821C0.038812 10.629 0.313781 11.3986 0.446524 12.1732C0.497093 12.4682 0.863719 12.5473 1.066 12.75C1.12763 12.8126 1.20348 12.862 1.25721 12.9313C1.68705 13.48 2.27333 13.5229 2.87384 13.4438C3.56126 13.3531 4.25659 13.4586 4.94243 13.3416C5.03093 13.3268 5.13681 13.3729 5.22688 13.4108C6.60173 13.9959 8.02714 14.3963 9.48417 14.6847C9.84131 14.7556 10.1921 14.7292 10.5445 14.6237C12.2544 14.1145 13.781 13.251 15.1511 12.0743C15.5951 11.692 15.8464 11.7513 16.0913 12.2935C16.1435 12.4088 16.1751 12.5357 16.2099 12.6577C16.3552 13.1785 16.5386 13.6811 16.7867 14.1574C16.8862 14.3469 16.9415 14.5331 16.951 14.7638C16.97 15.1841 17.0126 15.6241 17.1896 16.0048C17.3603 16.3723 17.3556 16.7216 17.2718 17.0891C17.2133 17.3512 17.147 17.6132 17.0648 17.8686C16.7519 18.8541 16.7551 19.805 17.3303 20.6999C17.3571 20.7427 17.384 20.7872 17.4045 20.8334C17.4393 20.9092 17.5136 20.9817 17.3935 21.097C17.0111 20.6883 16.8325 20.1478 16.5575 19.6666C16.4343 19.7786 16.4011 19.9204 16.3521 20.0489C15.7642 21.6046 15.0831 23.1175 14.3562 24.6089C13.6466 26.0657 12.9576 27.5324 12.6511 29.154C12.64 29.2134 12.6242 29.2941 12.5831 29.3205C11.9668 29.7374 11.6539 30.4082 11.2952 31.0278C10.4023 32.572 9.65484 34.1952 9.01798 35.8712C8.7683 36.5304 8.47911 37.1699 8.0872 37.7532C7.54832 38.5542 6.90672 38.6382 6.20982 37.9988C5.97278 37.7829 5.65356 37.7994 5.47341 38.0631C5.17947 38.4915 4.92031 38.9447 4.72277 39.4342C4.59003 39.7605 4.60267 40.072 4.73225 40.4032C5.04357 41.2041 5.60615 41.7974 6.19086 42.3726C8.67822 44.8215 11.6476 46.3244 14.9061 47.328C17.9497 48.2658 21.0108 48.4437 24.1239 47.9362C26.8641 47.4896 29.4005 46.4612 31.7677 44.9648C33.0004 44.1853 34.1081 43.2526 35.0705 42.1303C35.3945 41.7513 35.4972 41.3228 35.355 40.8432C35.1606 40.184 34.8224 39.599 34.4384 39.0453C34.2583 38.7849 33.8458 38.6876 33.6514 38.9002C33.3275 39.2529 33.0762 39.1029 32.7902 38.8772C32.5626 38.6992 32.343 38.5146 32.1423 38.3037C31.5165 37.6461 31.1894 36.8155 30.8844 35.9685C30.0358 33.6135 28.7368 31.486 27.7459 29.2018C27.7112 29.1227 27.6527 29.009 27.5926 28.9975C27.3382 28.9546 27.3445 28.7585 27.3177 28.569C27.0632 26.7809 26.5623 25.0901 25.5825 23.5707C24.8809 22.4813 24.3641 21.308 24.2061 19.9863C24.1871 19.8231 24.146 19.6485 24.0228 19.5232C23.89 19.6056 23.9264 19.7869 23.7652 19.8429C23.7415 19.5578 23.8679 19.281 23.7699 19.0024C23.3828 17.8983 23.2263 16.7991 23.5202 15.6142C23.7731 14.599 23.8489 13.5361 24.0133 12.4962C24.1697 11.5008 24.263 11.4728 25.0895 11.9919C26.3458 12.7813 27.6005 13.5789 29.0433 13.9695C29.5411 14.1046 30.0358 14.1491 30.5414 14.0173C32.0032 13.6333 33.4365 13.1686 34.7971 12.4863C35.2317 12.2688 35.6789 12.0891 36.1451 11.9589C36.3553 11.8996 36.4896 11.8716 36.5023 12.2144C36.5228 12.7912 36.8436 12.9708 37.3635 12.7681C37.5595 12.6923 37.7507 12.6017 37.9467 12.5226C38.2074 12.4171 38.2722 12.2309 38.1663 11.9688C38.0715 11.7332 38.0225 11.4876 37.5721 11.3212V11.3195ZM37.5642 10.6834C37.6211 10.8268 37.49 10.8416 37.3983 10.8713C37.3635 10.8828 37.3572 10.9042 37.3841 10.9191C37.5042 10.9784 37.6401 11.041 37.4346 11.1613C37.3351 11.2206 36.537 11.1976 37.2197 10.8943C37.2608 10.8762 36.9606 10.9224 36.9037 10.9174C36.8231 10.9092 36.7061 10.9603 36.6919 10.835C36.6808 10.7328 36.7915 10.6966 36.8689 10.6719C36.9969 10.6323 37.5105 10.5499 37.5642 10.6834ZM37.4678 10.3555C37.5152 10.5252 36.5528 10.6389 36.526 10.4576C36.5054 10.3159 36.6777 10.3208 36.7804 10.3044C37.0253 10.2665 37.3936 10.0868 37.4678 10.3555ZM37.3114 9.88083C37.3556 9.89731 37.3983 9.96323 37.3619 10.0044C37.1802 10.2071 36.88 10.1725 36.6366 10.189C36.1641 10.2203 37.0791 9.79679 37.3098 9.88083H37.3114ZM35.6394 9.454C35.4988 9.3337 35.4703 9.11287 35.5099 8.91841C35.5746 8.59046 36.1309 8.31195 36.5228 8.39764C36.7535 8.44873 36.9874 8.87721 36.9353 9.1722C36.9084 9.32546 36.8104 9.42434 36.665 9.45236C36.4865 9.48696 36.3032 9.50509 36.0898 9.53475C36.2131 9.32381 36.4248 9.38149 36.5339 9.20186C36.3142 9.11287 36.1514 9.21834 35.9792 9.30074C35.8638 9.35677 35.7516 9.54959 35.6394 9.454ZM16.2999 3.29547C16.2525 2.80108 16.3552 2.31987 16.5291 1.86337C16.6618 1.51235 16.9068 1.27504 17.2813 1.191C17.5484 1.13167 17.7554 1.18275 17.9434 1.40029C18.2279 1.72824 18.574 1.97544 18.9627 2.15177C19.1207 2.22263 19.2993 2.30833 19.4273 2.10892C19.5411 1.93094 19.4194 1.79086 19.3135 1.66397C18.9627 1.24043 18.4949 1.0641 17.9814 0.988292C17.8454 0.968516 17.6716 0.963572 17.6606 0.793829C17.6511 0.642215 17.8312 0.633975 17.9403 0.596071C18.5629 0.385129 19.2029 0.362057 19.8413 0.472472C20.6109 0.605959 21.1388 1.07728 21.3995 1.8436C21.5876 2.40062 21.7566 2.96588 21.9068 3.53443C22.3414 5.17583 22.8091 6.7925 24.3294 7.7368C24.2883 7.80272 24.2756 7.83898 24.2661 7.83733C23.4191 7.71867 22.5673 7.78459 21.7187 7.76647C21.3821 7.75987 21.0961 7.62803 20.8669 7.366C20.7263 7.20615 20.6615 7.03146 20.7026 6.80239C20.7642 6.46126 20.799 6.11353 20.6647 5.7757C20.6252 5.67846 20.5793 5.56805 20.4624 5.58783C20.336 5.60925 20.3518 5.74109 20.3439 5.83997C20.3233 6.07398 20.3597 6.30635 20.4245 6.52553C20.6188 7.17319 20.3407 7.6956 20.0294 8.22625C20.1084 6.82382 19.5585 5.67022 18.7525 4.61881C18.1978 3.89369 17.7222 3.13727 17.7301 2.16001C17.7301 2.11057 17.7143 2.05784 17.7001 2.01004C17.6163 1.72659 17.4804 1.43984 17.1738 1.44314C16.8356 1.44808 16.7724 1.78921 16.7361 2.06443C16.6982 2.34129 16.7108 2.62969 16.7203 2.91149C16.7361 3.40094 16.7551 3.88545 16.6634 4.37161C16.5891 4.77042 16.6397 5.161 16.8088 5.53839C16.9226 5.79218 17.0126 6.06245 17.0901 6.33107C17.2449 6.8749 17.3556 6.95565 17.9118 6.9194C18.0509 6.91116 18.2389 6.79086 18.3227 6.94577C18.4175 7.12045 18.3385 7.32975 18.2231 7.48631C17.8281 8.02685 17.2639 8.22461 16.6429 8.28888C16.4722 8.307 16.4738 8.17846 16.488 8.05816C16.6855 6.45796 16.4485 4.87754 16.2968 3.29218L16.2999 3.29547ZM18.1441 1.25856C18.634 1.30965 18.9469 1.49422 19.1871 1.82217C19.2235 1.87161 19.2709 1.93424 19.2029 1.98697C19.1729 2.01004 19.1081 2.0084 19.0686 1.99192C18.7257 1.84854 18.4317 1.63925 18.1425 1.25691L18.1441 1.25856ZM17.8012 6.71999C17.5073 6.75954 17.3445 6.64419 17.2829 6.36897C17.1944 5.9784 17.0474 5.61255 16.8973 5.24669C16.8198 5.05553 16.774 4.85117 16.8104 4.64353C16.9336 3.94149 16.902 3.2345 16.8736 2.52751C16.8625 2.26713 16.8799 2.01004 16.9968 1.77603C17.1043 1.56179 17.2402 1.53542 17.3872 1.74472C17.4757 1.87161 17.5436 2.01004 17.5452 2.1699C17.5547 3.12244 17.9734 3.8904 18.5329 4.60398C19.1239 5.35711 19.5964 6.17616 19.7876 7.15012C19.8761 7.60331 19.8287 8.04497 19.7465 8.48828C19.726 8.5954 19.6612 8.70087 19.7513 8.85578C20.2206 8.45862 20.3865 7.89171 20.6188 7.27866C21.0123 7.94115 21.6065 7.9807 22.2213 7.94115C22.5168 7.92138 22.6653 8.00872 22.6084 8.35315C22.5563 8.66956 22.5452 8.99092 22.5041 9.30898C22.3382 10.6043 21.6966 11.0822 20.5224 11.3624C20.0073 11.486 19.47 11.5008 18.939 11.4662C18.3733 11.4299 17.9513 11.1613 17.7506 10.5862C17.5405 9.98301 17.3524 9.37325 17.3113 8.7223C17.2923 8.43555 17.3856 8.27569 17.6353 8.16033C18.0256 7.97906 18.4175 7.74834 18.4728 7.26218C18.5123 6.9194 18.6245 6.72164 18.9485 6.64089C18.5455 6.55355 18.1741 6.67055 17.7996 6.71999H17.8012ZM20.5367 5.77405C20.6109 6.04926 20.6742 6.23219 20.573 6.43489C20.5035 6.25361 20.4656 6.06739 20.5367 5.77405ZM0.674086 11.9128C0.375412 11.3195 0.299558 10.6933 0.503415 10.0456C0.87004 8.87391 2.08844 8.18176 3.25311 8.48004C4.38143 8.77009 5.12258 9.96982 4.93295 11.2009C4.91241 11.3393 4.84603 12.0018 3.77776 12.7681C3.66556 12.8489 3.50279 12.8258 3.38111 12.7747C2.02207 12.1996 1.92093 12.5357 1.92093 12.5357C1.50215 12.2803 0.896906 12.3561 0.674086 11.9128ZM1.42314 12.8653C1.31726 12.7467 1.16555 12.6148 1.16555 12.6148C1.45949 12.75 2.1153 13.2806 2.1153 13.2806C1.70285 13.2889 1.48951 12.9378 1.42472 12.8637L1.42314 12.8653ZM2.30178 13.2823C1.98572 12.9214 1.2256 12.5374 1.30936 12.4632C1.38363 12.3957 2.63522 13.0631 2.94179 13.2938C2.76322 13.3301 2.36657 13.3564 2.30178 13.2839V13.2823ZM16.1308 11.9046C15.6615 11.5634 15.4956 11.5684 15.0468 11.9573C13.8284 13.0137 12.4693 13.7948 10.9728 14.3386C10.3438 14.5677 9.72595 14.6221 9.08593 14.4655C7.80274 14.1508 6.52272 13.8261 5.30748 13.2757C5.08624 13.1752 4.85236 13.19 4.61689 13.2197C3.85204 13.3185 3.1172 13.2312 2.43926 12.8126C2.38711 12.7796 2.33338 12.7483 2.28439 12.7104C2.26859 12.6972 2.14375 12.6148 2.22592 12.5868C2.39501 12.5291 3.62922 13.1785 4.41462 12.862C4.17441 12.722 4.2076 12.6231 4.37353 12.4418C4.67378 12.1139 4.95191 12.0463 5.37859 12.193C6.54326 12.5918 7.76482 12.516 8.97057 12.5489C9.38145 12.5605 9.84763 12.516 10.2822 12.6264C10.3091 12.633 10.3233 12.6659 10.3107 12.6906C10.1953 12.9115 9.96141 13.0417 9.84289 13.2262C9.78284 13.3202 9.68802 13.4174 9.76546 13.5377C9.85237 13.6745 9.98037 13.6218 10.1005 13.5855C10.5003 13.4619 10.7437 13.1471 10.7247 12.7055C10.7152 12.4978 10.8242 12.399 10.938 12.2885C11.5512 11.687 12.2576 11.2124 12.9308 10.6916C13.664 10.1264 14.3104 9.44576 15.0879 8.93818C15.4513 8.70087 15.8369 8.55255 16.2573 8.49158C16.3521 8.47839 16.499 8.40918 16.4943 8.61518C16.4659 9.71933 16.3758 10.8152 16.1324 11.9046H16.1308ZM10.494 12.8077C10.5114 13.1471 10.3517 13.3301 9.99144 13.4042C9.92349 13.3301 10.3075 12.9889 10.494 12.8077ZM17.4172 17.1995C17.512 16.9902 17.512 16.7414 17.482 16.514C17.4488 16.252 17.5563 16.1597 17.7743 16.0789C18.6261 15.7641 20.0752 15.5581 21.4343 15.5895C21.94 15.6307 22.4931 15.6537 23.0383 15.7872C23.22 15.8317 23.2958 15.9191 23.2658 16.1053C23.1599 16.7595 23.1947 17.4088 23.3275 18.0565C23.3717 18.2707 23.2848 18.4553 23.1757 18.6349C22.1407 20.3703 19.5648 20.662 18.171 19.1936C17.9987 19.0123 17.8533 18.8014 17.6937 18.6036C17.3587 18.1867 17.1659 17.7483 17.414 17.1962L17.4172 17.1995ZM12.8265 29.7523C13.024 30.0852 13.1409 30.4362 13.0588 30.9207C12.7901 30.5103 12.7712 30.1395 12.8265 29.7523ZM34.1745 38.9975C34.1745 38.9975 34.2061 39.0189 34.2219 39.0304C34.2504 39.0519 34.2804 39.0733 34.3088 39.0963C34.3404 39.1441 34.3721 39.1919 34.4037 39.2397C34.4195 39.271 34.4353 39.3023 34.4511 39.3337C34.4827 39.3798 34.5143 39.4243 34.5459 39.4704C34.5886 39.5545 34.6312 39.6369 34.6739 39.7209C34.7008 39.7704 34.7276 39.8215 34.7545 39.8709C34.7798 39.922 34.8035 39.9731 34.8288 40.0258C34.9172 40.2087 35.0136 40.3884 35.0942 40.5762C35.3297 41.1316 35.2965 41.6244 34.8698 42.0973C34.0117 43.0482 33.0841 43.9068 32.0238 44.6039C29.4005 46.3277 26.5623 47.4484 23.4823 47.8636C20.6109 48.2509 17.7996 48.0614 15.0025 47.1814C11.9858 46.2305 9.19971 44.8907 6.82297 42.7021C6.31412 42.2325 5.83687 41.7315 5.38333 41.2041C5.13207 40.9124 4.96614 40.5697 4.85236 40.1972C4.78756 39.983 4.77176 39.772 4.94085 39.5265C4.92663 39.9467 5.121 40.2054 5.35963 40.4543C8.60395 43.8475 12.4109 46.1843 16.9557 47.0726C22.4204 48.1405 27.4551 46.9325 32.1028 43.8145C32.9435 43.2509 33.7384 42.6197 34.4985 41.9408C35.0279 41.4695 35.1006 41.1827 34.8793 40.4873C34.8367 40.3538 34.7908 40.2203 34.7466 40.0868C34.7229 40.0357 34.7008 39.9846 34.677 39.9335C34.6533 39.8857 34.6281 39.8363 34.6044 39.7885C34.5633 39.7045 34.5222 39.6188 34.4795 39.5331C34.4479 39.4869 34.4163 39.4408 34.3847 39.3946C34.3689 39.3633 34.3515 39.3304 34.3357 39.2991C34.3009 39.2546 34.2662 39.2101 34.2314 39.1656C34.214 39.1359 34.1951 39.1062 34.1777 39.0766C34.154 39.0519 34.1334 39.0238 34.1729 38.9991L34.1745 38.9975ZM34.1398 39.3122C34.4131 39.7308 34.6407 40.1692 34.775 40.6553C34.8777 41.0245 34.8398 41.3607 34.5332 41.6359C31.2905 44.5298 27.6053 46.4579 23.3527 47.0561C18.7557 47.7038 14.451 46.7249 10.4371 44.3188C8.59763 43.2163 6.94781 41.8567 5.43548 40.306C5.12732 39.9896 5.04673 39.6896 5.24427 39.2809C5.41652 38.925 5.58561 38.569 5.80053 38.2378C5.91115 38.068 6.03283 38.0103 6.18769 38.1784C6.29199 38.2921 6.31728 38.3663 6.14029 38.4553C5.69781 38.6794 5.62827 38.8953 5.80053 39.3798C5.83371 39.4754 5.8827 39.5677 5.91115 39.6649C6.12606 40.4098 6.20824 40.512 6.92095 40.3488C7.81539 40.1428 8.52493 40.3554 9.28979 40.9042C12.3208 43.0828 15.7247 44.1606 19.3925 44.3172C23.7747 44.505 27.8123 43.3333 31.5038 40.8696C31.782 40.6834 31.9289 40.7015 32.1217 40.9734C32.8676 42.0248 33.2722 41.6656 33.83 40.919C33.8837 40.8482 33.9343 40.7757 33.9849 40.7031C34.4084 40.0983 34.3531 39.8215 33.732 39.4408C33.6799 39.4078 33.6293 39.3716 33.5677 39.3287C33.7842 38.9892 33.9517 39.0238 34.1413 39.3139L34.1398 39.3122ZM21.1925 25.0324C22.0601 26.743 23.0778 28.3515 24.274 29.8347C24.8066 30.4939 25.219 31.2635 25.8275 31.8469C27.1296 33.096 28.0272 34.6451 28.909 36.2107C29.3799 37.0479 29.9804 37.7829 30.5098 38.5723C30.8638 39.0996 31.1894 39.6468 31.5481 40.1692C31.7093 40.4032 31.6366 40.507 31.4359 40.6438C29.2804 42.1023 26.951 43.1207 24.4368 43.6712C22.9103 44.0057 21.3679 44.1705 19.2867 44.1277C15.7927 44.0139 12.1201 42.8159 8.83941 40.3686C8.64662 40.2236 8.53916 40.1263 8.76988 39.9187C8.85837 39.8396 8.92791 39.7094 8.95319 39.5907C9.097 38.9019 9.49839 38.3614 9.87134 37.801C10.671 36.5947 11.4627 35.3818 12.2512 34.1672C12.7443 33.4075 13.2832 32.6956 13.9453 32.0825C14.4636 31.603 14.8966 31.0327 15.2743 30.4296C16.4011 28.6283 17.7996 27.0331 18.9153 25.2219C19.1223 24.8858 19.323 24.5463 19.5253 24.2084C19.6075 24.0717 19.7086 23.9233 19.8761 23.9991C20.2475 24.1705 20.5462 24.0173 20.8464 23.8195C20.9049 23.78 20.9744 23.7091 21.036 23.7882C21.0629 23.8228 21.0518 23.9134 21.0297 23.9662C20.8733 24.3601 21.0313 24.7045 21.1972 25.0324H21.1925ZM27.3319 30.2368C27.4046 30.6751 27.4931 31.1135 27.3445 31.654C27.1628 31.1184 27.226 30.6784 27.3319 30.2368ZM23.4238 18.6086C23.6151 18.9464 23.6925 19.2661 23.6388 19.6237C23.5882 19.9632 23.4001 20.2664 23.4001 20.6537C23.7036 20.4823 23.7857 20.1643 23.9675 19.8989C24.1034 20.0555 24.0907 20.2417 24.1176 20.4032C24.2804 21.3525 24.6217 22.2243 25.1021 23.0466C25.6789 24.0337 26.2763 25.0143 26.6208 26.1267C26.9447 27.1715 27.1502 28.2444 27.2308 29.3337C27.2671 29.8347 27.128 30.3505 27.068 30.8597C27.0411 31.0937 27.0648 31.3228 27.1423 31.542C27.1833 31.6606 27.2481 31.7958 27.4014 31.771C27.5389 31.748 27.5436 31.6095 27.5547 31.4958C27.6084 30.9685 27.5515 30.4444 27.4947 29.9204C27.471 29.6979 27.403 29.4672 27.5595 29.2397C27.6037 29.2925 27.6464 29.3238 27.6653 29.3666C28.6388 31.5585 29.8461 33.6349 30.6837 35.896C30.8306 36.2915 30.9697 36.6919 31.1388 37.0759C31.6492 38.2378 32.5042 39.0387 33.5977 39.5891C34.1603 39.8709 34.1966 40.0753 33.8111 40.5828C33.6578 40.7839 33.5171 40.9965 33.3528 41.1893C33.0652 41.5255 32.8028 41.5304 32.5073 41.2074C32.2165 40.891 31.9605 40.5433 31.7314 40.1774C31.1103 39.187 30.4166 38.2476 29.7671 37.2786C29.105 36.2882 28.5171 35.2434 27.9134 34.2117C27.3825 33.3053 26.6745 32.5571 26.0108 31.7612C24.2804 29.6814 22.6163 27.5456 21.3995 25.072C21.1356 24.5364 21.1103 24.0766 21.3726 23.5426C21.5797 23.1241 21.8752 22.7615 22.0774 22.3429C22.0522 22.3215 22.0269 22.3001 22.0016 22.2803C21.6966 22.6181 21.3932 22.9543 21.0882 23.2922C20.9112 23.4883 20.7437 23.6976 20.4972 23.808C20.336 23.8805 20.1811 23.9283 20.001 23.8426C19.7323 23.7157 19.5253 23.8162 19.3783 24.0766C17.9798 26.5568 16.1198 28.6943 14.5948 31.0822C14.4162 31.3607 14.195 31.603 13.9453 31.8172C13.1457 32.5044 12.5357 33.3597 11.9715 34.2546C11.1498 35.5548 10.3201 36.8485 9.42886 38.0977C9.15389 38.4817 8.94687 38.9002 8.81255 39.3633C8.64504 39.9418 8.46014 40.0637 7.8707 40.0555C7.47405 40.0489 7.08688 40.1412 6.69655 40.2005C6.37101 40.2516 6.17821 40.1395 6.11816 39.7819C6.08814 39.6089 5.99964 39.4457 5.94275 39.2776C5.8021 38.8673 5.95065 38.6217 6.36627 38.5904C6.51323 38.5789 6.66178 38.5954 6.81033 38.602C7.414 38.6283 7.88492 38.3877 8.22626 37.8604C8.65768 37.1946 8.97215 36.4695 9.25344 35.7279C9.95193 33.8805 10.8195 32.1204 11.8182 30.4329C11.9605 30.1923 12.128 29.9681 12.2955 29.7457C12.3603 29.6583 12.4535 29.5463 12.5705 29.599C12.6748 29.6451 12.6337 29.7819 12.6337 29.8792C12.6321 30.189 12.6353 30.4988 12.7712 30.7856C12.8375 30.9273 12.9181 31.0855 13.0888 31.0608C13.2911 31.0311 13.2579 30.8366 13.2531 30.6883C13.2389 30.273 13.1662 29.8676 12.9371 29.5166C12.8375 29.365 12.8154 29.2249 12.8486 29.0469C13.0935 27.745 13.6213 26.5535 14.1776 25.3769C14.9899 23.658 15.8006 21.9408 16.4722 20.1544C16.4896 20.1082 16.518 20.067 16.567 19.9731C16.8483 20.573 17.158 21.1119 17.5436 21.5964C17.9908 22.1583 18.4207 22.7384 19.0275 23.1339L19.0212 23.0977C18.9532 22.8126 18.7509 22.656 18.5992 22.427C18.1647 21.7694 17.719 21.1218 17.3714 20.4082C17.286 20.2318 17.0948 20.072 17.2955 19.8067C17.365 19.716 17.2165 19.4507 17.1754 19.2628C17.0948 18.8986 17.0569 18.5328 17.1912 18.0532C17.8249 19.4144 18.7668 20.25 20.159 20.3126C21.5085 20.3736 22.6384 19.8512 23.4223 18.6086H23.4238ZM23.9469 12.0677C23.7541 13.1686 23.5708 14.2694 23.3922 15.3719C23.3575 15.5878 23.3354 15.7048 23.0541 15.6422C21.2573 15.245 19.4731 15.3472 17.7238 15.924C17.365 16.0427 17.2386 15.9537 17.2228 15.6125C17.2133 15.3966 16.97 15.1313 17.3492 14.9632C17.4362 14.9253 17.2987 14.7078 17.226 14.5941C16.8815 14.0552 16.6255 13.4767 16.4185 12.867C16.2588 12.3973 16.281 11.9326 16.3726 11.4613C16.5338 10.6257 16.6176 9.7836 16.6081 8.93159C16.6081 8.85413 16.6271 8.77833 16.6255 8.70087C16.6223 8.46686 16.774 8.43719 16.9447 8.42401C17.1549 8.40753 17.1438 8.56903 17.1517 8.70911C17.1928 9.39632 17.3761 10.0473 17.5989 10.69C17.7917 11.2437 18.201 11.5634 18.7304 11.6162C19.579 11.7019 20.4324 11.6755 21.2415 11.3179C21.9273 11.0146 22.433 10.5532 22.5705 9.7457C22.6527 9.26449 22.7838 8.78986 22.7348 8.29547C22.7064 8.01037 22.8297 7.93456 23.073 7.9395C23.3575 7.94445 23.299 8.11419 23.2721 8.307C23.141 9.23812 23.1852 10.1544 23.5266 11.0377C23.6119 11.2602 23.6957 11.4909 23.909 11.6261C23.9864 11.7661 23.9738 11.9095 23.9469 12.0677ZM36.4106 11.7496C35.4419 11.9441 34.6012 12.483 33.6925 12.8406C32.689 13.2345 31.6729 13.5872 30.6331 13.8657C29.8287 14.0799 29.0686 13.8838 28.3227 13.5806C27.2624 13.1488 26.2684 12.5819 25.2996 11.9672C24.8698 11.6953 24.4574 11.392 23.9185 11.6211C23.9627 11.5437 23.9106 11.4827 23.8758 11.4217C23.318 10.4362 23.3069 9.36996 23.4396 8.27899C23.4697 8.03344 23.5677 7.97082 23.8015 7.9807C24.3483 8.00378 24.7908 8.21966 25.1922 8.60364C26.3569 9.71933 27.6464 10.6719 28.9201 11.6425C29.342 11.9639 29.8019 12.1007 30.3455 11.9458C31.3964 11.6458 32.4836 11.5832 33.5629 11.4728C34.4827 11.3789 35.1875 10.9207 35.641 10.0638C35.8401 9.68637 36.5939 9.47543 37.1107 9.65671C36.97 9.80338 36.8025 9.83634 36.635 9.83963C36.3901 9.84622 36.2795 10.0489 36.123 10.1857C36.0661 10.2351 36.1009 10.2714 36.1404 10.334C36.3411 10.6603 36.4327 11.0361 36.5576 11.397C36.6113 11.5552 36.6224 11.7068 36.4122 11.748L36.4106 11.7496ZM37.5168 12.5654C37.441 12.605 37.354 12.6264 37.2719 12.6527C37.1202 12.7022 36.9527 12.7912 36.831 12.6181C36.7077 12.4435 36.5497 12.2276 36.6729 12.0199C36.8167 11.7777 36.7662 11.5865 36.6998 11.3657C36.6682 11.2618 36.5876 11.0839 36.6082 10.8993C36.6382 11.3459 37.2102 11.1481 37.2972 11.5156C37.3161 11.5931 37.4094 11.5156 37.4615 11.4563C37.471 11.4464 37.4773 11.4365 37.4868 11.4266C37.8597 11.5371 38.0762 11.8848 38.0525 12.1781C38.0272 12.4863 37.7143 12.4632 37.5152 12.5654H37.5168Z" stroke="#0E0E0E" stroke-width="0.428571" mask="url(#path-1-outside-1_5177_15840)"/>
</svg>
