<svg width="34" height="43" viewBox="0 0 34 43" fill="none" xmlns="http://www.w3.org/2000/svg">
<mask id="path-1-outside-1_4282_16817" maskUnits="userSpaceOnUse" x="-0.786133" y="-0.785156" width="35" height="44" fill="black">
<rect fill="white" x="-0.786133" y="-0.785156" width="35" height="44"/>
<path d="M1.16281 10.9314C1.09145 10.9977 1.75155 11.3337 2.02464 11.6481C2.07954 11.7115 2.42537 11.6899 2.58045 11.6567C2.31421 11.4549 1.22731 10.8709 1.16281 10.93V10.9314Z"/>
<path d="M16.7024 1.76694C16.7614 1.72224 16.7203 1.666 16.6887 1.62275C16.4801 1.33579 16.2084 1.17429 15.783 1.12959C16.0327 1.46268 16.2894 1.64582 16.5872 1.77271C16.6215 1.78713 16.6777 1.78857 16.7038 1.76839L16.7024 1.76694Z"/>
<path d="M1.26247 11.2838C1.32011 11.3487 1.50538 11.6544 1.86219 11.6486C1.86219 11.6486 1.29266 11.1843 1.03741 11.0661C1.03741 11.0661 1.16915 11.1814 1.2611 11.2853L1.26247 11.2838Z"/>
<path d="M2.96237 11.2055C3.06667 11.2502 3.20802 11.2704 3.30683 11.1998C4.23454 10.5292 4.29218 9.94956 4.31002 9.82843C4.47333 8.75127 3.83107 7.7015 2.85121 7.44771C1.84116 7.18527 0.783076 7.79234 0.463318 8.8176C0.287657 9.3843 0.352157 9.93226 0.611532 10.4514C0.805033 10.8393 1.33064 10.7729 1.69432 10.9964C1.69432 10.9964 1.78215 10.7023 2.96237 11.2055Z"/>
<path d="M17.8623 5.0808C17.8006 5.33747 17.8335 5.50042 17.8939 5.65904C17.9831 5.48167 17.9282 5.32161 17.8623 5.0808Z"/>
<path d="M14.3483 7.07876C14.336 7.18402 14.3346 7.2965 14.4828 7.28064C15.0208 7.22296 15.5107 7.05136 15.8552 6.57839C15.954 6.4414 16.024 6.25827 15.9416 6.10542C15.8675 5.96987 15.7042 6.07513 15.5848 6.08234C15.1017 6.11407 15.0057 6.04341 14.8712 5.56755C14.8039 5.33107 14.7257 5.09602 14.6269 4.87396C14.4801 4.54374 14.4361 4.20343 14.5006 3.85303C14.5802 3.42764 14.5624 3.00226 14.55 2.57543C14.5418 2.32885 14.5308 2.07794 14.5638 1.83424C14.5953 1.59343 14.6502 1.29494 14.9439 1.29061C15.2101 1.28629 15.3268 1.53864 15.4009 1.78666C15.4133 1.82992 15.4284 1.87462 15.427 1.91788C15.4215 2.77298 15.8332 3.43485 16.3149 4.06933C17.0148 4.99076 17.4924 5.99871 17.4237 7.22584C17.6941 6.76152 17.9356 6.30297 17.7668 5.73771C17.7092 5.54592 17.6776 5.3426 17.6968 5.13784C17.7051 5.05132 17.6914 4.93596 17.7998 4.91722C17.9 4.89991 17.9411 4.99653 17.9754 5.0816C18.0935 5.37577 18.0619 5.68003 18.0084 5.97996C17.9727 6.1804 18.029 6.33181 18.1511 6.47312C18.3501 6.70096 18.5985 6.81632 18.8908 6.82353C19.6277 6.83939 20.3674 6.78171 21.103 6.88553C21.1099 6.88553 21.1222 6.85525 21.1579 6.79757C19.8377 5.97131 19.4315 4.55672 19.0541 3.1205C18.9237 2.62301 18.7769 2.12697 18.6136 1.64102C18.3885 0.970493 17.9288 0.558085 17.2604 0.441284C16.706 0.34467 16.1502 0.364858 15.6095 0.549433C15.5148 0.581156 15.3584 0.589808 15.3666 0.722471C15.3762 0.869554 15.5272 0.87388 15.6452 0.892626C16.0912 0.960399 16.4974 1.11469 16.8021 1.48384C16.894 1.59487 16.9997 1.71744 16.9009 1.87318C16.7897 2.04766 16.6346 1.97267 16.4974 1.91067C16.1584 1.75638 15.8579 1.54008 15.6122 1.25312C15.4489 1.06278 15.2692 1.01808 15.0372 1.06999C14.712 1.14209 14.4993 1.34974 14.384 1.65832C14.233 2.05775 14.1438 2.48026 14.185 2.91141C14.3181 4.2986 14.524 5.68147 14.3511 7.08164L14.3483 7.07876Z"/>
<path d="M31.2705 8.16433C31.4201 8.09079 31.5628 7.99995 31.7522 8.07782C31.6575 8.23499 31.4722 8.18452 31.3665 8.3691C31.5518 8.34314 31.7096 8.32728 31.8661 8.297C31.9923 8.27248 32.0774 8.18597 32.1007 8.05186C32.1447 7.79374 31.9429 7.41883 31.7426 7.37413C31.4022 7.29914 30.9191 7.54139 30.8629 7.82979C30.8299 7.99995 30.8546 8.19317 30.9754 8.29844C31.0728 8.38207 31.1703 8.21336 31.2705 8.16433Z"/>
<path d="M20.4603 9.68571C20.1639 8.91281 20.1241 8.11106 20.2394 7.29634C20.2627 7.12907 20.3135 6.9791 20.0665 6.97477C19.8551 6.97045 19.7481 7.03678 19.7728 7.28624C19.8153 7.7174 19.7001 8.13413 19.6301 8.55519C19.5107 9.26321 19.0715 9.66697 18.4759 9.93085C17.7733 10.2438 17.0336 10.2668 16.2952 10.1918C15.8355 10.1443 15.4787 9.86596 15.3126 9.38145C15.1191 8.81908 14.96 8.24949 14.9243 7.64818C14.9174 7.52561 14.927 7.38574 14.7445 7.39872C14.5963 7.41025 14.4645 7.43621 14.4673 7.64097C14.4673 7.7073 14.4508 7.77508 14.4522 7.84285C14.4604 8.58836 14.3877 9.32521 14.2477 10.0563C14.1695 10.4687 14.1489 10.8754 14.2875 11.2863C14.4673 11.8199 14.691 12.326 14.9888 12.7975C15.0519 12.897 15.1713 13.0859 15.0958 13.1205C14.7664 13.2676 14.9778 13.4998 14.986 13.6887C14.9984 13.9886 15.1095 14.065 15.4211 13.9612C16.9389 13.4565 18.4883 13.3657 20.05 13.7146C20.2943 13.7694 20.3135 13.6656 20.3437 13.4781C20.4988 12.5135 20.6593 11.5488 20.8254 10.587C20.8487 10.4485 20.8611 10.3245 20.7924 10.2005C20.6072 10.0823 20.5358 9.88038 20.4603 9.68571Z"/>
<path d="M23.7748 27.7253C23.9038 27.2523 23.827 26.8687 23.7639 26.4852C23.6719 26.8716 23.617 27.2566 23.7748 27.7253Z"/>
<path d="M32.5841 10.0253C32.5772 10.034 32.5704 10.0427 32.5622 10.0513C32.5169 10.1032 32.4345 10.1695 32.4194 10.1032C32.3439 9.78309 31.8485 9.95469 31.8211 9.56391C31.8032 9.72686 31.8746 9.88115 31.9007 9.97199C31.9583 10.1638 32.0022 10.3325 31.8773 10.5445C31.7703 10.7262 31.9075 10.9151 32.0146 11.0679C32.1203 11.2193 32.2657 11.1414 32.3975 11.0982C32.4688 11.0751 32.5429 11.0564 32.6102 11.0218C32.7831 10.9324 33.0548 10.9525 33.0768 10.6829C33.0974 10.4262 32.9094 10.122 32.5855 10.0253H32.5841Z"/>
<path d="M17.5344 17.8009C16.3254 17.7461 15.5075 17.015 14.9572 15.8239C14.8405 16.2421 14.8735 16.5622 14.9434 16.8823C14.9791 17.0467 15.1068 17.2774 15.0477 17.3582C14.8735 17.5903 15.0395 17.7288 15.1136 17.8845C15.4155 18.5089 15.8025 19.0756 16.1799 19.6509C16.3117 19.8514 16.4873 19.9884 16.5464 20.2378L16.5518 20.2696C16.0249 19.9249 15.6516 19.4159 15.2632 18.9242C14.9283 18.5002 14.6594 18.0287 14.4151 17.5038C14.3712 17.586 14.3465 17.6221 14.3327 17.6624C13.7495 19.2241 13.0455 20.7281 12.3401 22.2321C11.857 23.2602 11.3987 24.3042 11.1859 25.4434C11.1571 25.5991 11.1777 25.7217 11.2628 25.8544C11.4618 26.1615 11.5235 26.5148 11.5373 26.8796C11.5414 27.0094 11.5688 27.181 11.3945 27.2055C11.2463 27.2271 11.1763 27.0887 11.1187 26.9647C11.0021 26.7138 10.9979 26.4441 10.9993 26.1716C10.9993 26.0865 11.035 25.9669 10.9444 25.9265C10.8429 25.8803 10.7619 25.9784 10.7056 26.0548C10.5602 26.2495 10.4147 26.4456 10.2912 26.6561C9.42247 28.1342 8.67043 29.6728 8.06385 31.2892C7.81957 31.9396 7.54647 32.574 7.17182 33.1552C6.87539 33.6152 6.46643 33.8271 5.94219 33.8041C5.81319 33.7983 5.68419 33.7839 5.55656 33.794C5.19563 33.8228 5.06663 34.0377 5.18877 34.3953C5.23955 34.5438 5.3164 34.6851 5.3411 34.8365C5.39325 35.1494 5.56068 35.2475 5.84338 35.2028C6.18235 35.1494 6.51858 35.0701 6.86304 35.0759C7.37493 35.0831 7.53412 34.9764 7.68096 34.4703C7.79761 34.0651 7.97739 33.6988 8.21618 33.3628C8.99018 32.2698 9.71067 31.1378 10.4243 30.0001C10.9156 29.2171 11.4439 28.4687 12.1384 27.8674C12.3552 27.6799 12.5487 27.468 12.7024 27.2243C14.0253 25.1348 15.6406 23.2646 16.8565 21.0944C16.9841 20.8665 17.1639 20.7786 17.3972 20.8896C17.5537 20.9646 17.6881 20.9228 17.8281 20.8593C18.0422 20.7627 18.1877 20.5796 18.3414 20.408C18.6049 20.1124 18.8697 19.8182 19.1346 19.5226C19.1566 19.5413 19.1785 19.5601 19.2005 19.5774C19.0248 19.9437 18.7682 20.2609 18.5884 20.6272C18.3592 21.0944 18.3826 21.4967 18.6117 21.9653C19.6685 24.1283 21.1135 25.9986 22.6163 27.8184C23.1913 28.5148 23.8075 29.1695 24.2686 29.9626C24.7928 30.8653 25.3033 31.7795 25.8783 32.6461C26.4424 33.4955 27.0435 34.316 27.5842 35.1826C27.7845 35.5042 28.0055 35.807 28.258 36.0838C28.5146 36.365 28.7424 36.3621 28.9922 36.068C29.1349 35.9007 29.2571 35.7147 29.3902 35.5373C29.7264 35.0932 29.6935 34.9144 29.2049 34.6678C28.2566 34.1876 27.5142 33.4868 27.0695 32.4688C26.9227 32.1314 26.8019 31.7824 26.6743 31.4363C25.947 29.4579 24.8985 27.6424 24.0531 25.7232C24.0366 25.6857 23.9996 25.6583 23.9612 25.6121C23.8253 25.8126 23.8843 26.0144 23.9049 26.2077C23.9543 26.6662 24.0037 27.1233 23.957 27.5862C23.9474 27.6857 23.9433 27.8068 23.8239 27.827C23.6908 27.8486 23.6345 27.7304 23.5989 27.6266C23.5316 27.4348 23.511 27.2329 23.5344 27.0296C23.5865 26.584 23.7073 26.1327 23.6757 25.6943C23.6071 24.7412 23.4273 23.801 23.146 22.8882C22.8468 21.9149 22.3281 21.0569 21.8272 20.1931C21.41 19.4736 21.1135 18.7108 20.9722 17.8802C20.9475 17.7389 20.9598 17.5759 20.8418 17.4389C20.684 17.6711 20.6126 17.9494 20.3491 18.0994C20.3491 17.7619 20.5124 17.4952 20.5564 17.1981C20.6017 16.8852 20.5358 16.604 20.3697 16.3098C19.689 17.3971 18.7092 17.8542 17.5358 17.8009H17.5344Z"/>
<path d="M29.7562 34.2953C29.7864 34.3342 29.8166 34.3732 29.8468 34.4121C29.8605 34.4395 29.8756 34.4683 29.8893 34.4957C29.9167 34.5361 29.9442 34.5765 29.9716 34.6169C30.0073 34.6918 30.043 34.7654 30.08 34.8404C30.1006 34.8822 30.1226 34.9254 30.1432 34.9673C30.1638 35.012 30.183 35.0567 30.2036 35.1014C30.242 35.2182 30.2818 35.335 30.3188 35.4518C30.511 36.0603 30.4465 36.3112 29.9881 36.7236C29.328 37.3163 28.6377 37.8685 27.9076 38.3631C23.8715 41.0899 19.4992 42.1484 14.7536 41.214C10.8067 40.4367 7.50075 38.392 4.68331 35.4229C4.47609 35.2052 4.30729 34.9788 4.31964 34.6111C4.1728 34.8259 4.18652 35.0091 4.24279 35.198C4.34023 35.5239 4.48569 35.8238 4.7039 36.079C5.09776 36.5405 5.51221 36.9788 5.95411 37.3898C8.01813 39.3048 10.4376 40.4771 13.0574 41.3091C15.4865 42.0806 17.9292 42.245 20.4214 41.9061C23.0975 41.5427 25.5609 40.5622 27.839 39.0539C28.7598 38.4439 29.5654 37.6926 30.3106 36.8606C30.6811 36.4467 30.71 36.0156 30.5055 35.5296C30.4369 35.3652 30.3531 35.2081 30.2749 35.048C30.253 35.0033 30.2324 34.9586 30.2104 34.9125C30.1871 34.8692 30.1638 34.8245 30.1404 34.7812C30.1034 34.7077 30.0663 34.6356 30.0293 34.5621C30.0018 34.5217 29.9744 34.4828 29.9469 34.4424C29.9332 34.415 29.9195 34.3876 29.9058 34.3602C29.8783 34.3184 29.8509 34.2766 29.8234 34.2347C29.7987 34.216 29.774 34.1972 29.7479 34.1771C29.7342 34.167 29.7123 34.1453 29.7068 34.1482C29.6725 34.1698 29.6903 34.1944 29.7109 34.216C29.726 34.2419 29.7425 34.2679 29.7575 34.2939L29.7562 34.2953Z"/>
<path d="M11.165 26.0614C11.117 26.4003 11.1335 26.7247 11.3668 27.0838C11.4381 26.6598 11.3366 26.3541 11.165 26.0614Z"/>
<path d="M32.6557 9.93187C32.8794 9.64635 32.6928 9.67519 32.7243 9.58435C32.7559 9.49494 32.7847 9.50792 32.7957 9.43006C32.8149 9.2873 32.5912 9.29163 32.6832 9.17771C32.8341 8.99025 32.5638 8.95708 32.6008 8.86191C32.7285 8.53458 32.4046 8.57928 32.4142 8.46969C32.4293 8.28944 32.2179 8.25195 32.1603 8.22455C32.1603 8.22455 32.2207 8.14524 32.2289 8.04863C32.2536 7.75735 32.2207 7.41848 31.8996 7.26275C31.6223 7.12864 31.0281 7.29591 30.8291 7.54826C30.6617 7.76023 30.6809 8.11208 30.9142 8.45527C30.9924 8.57063 30.9938 8.64417 30.9266 8.74799C30.4998 9.39112 29.9741 9.86265 29.1892 9.94196C28.2409 10.0371 27.283 10.0876 26.3607 10.3544C25.9463 10.4741 25.6087 10.412 25.2807 10.151C25.1956 10.0833 25.1037 10.0227 25.0186 9.95494C23.6833 8.88354 22.3466 7.81791 21.0937 6.62971C20.2744 5.85248 19.7337 4.97575 19.4304 3.89282C19.2218 3.14875 19.0118 2.40469 18.784 1.66639C18.5781 1.00163 18.1527 0.543077 17.5104 0.345524C16.7872 0.123458 16.0695 0.197 15.3668 0.470978C15.2749 0.507027 15.1404 0.564707 15.1569 0.652669C15.209 0.925205 15.0237 0.894922 14.8838 0.933856C14.6189 1.00596 14.4281 1.17611 14.2964 1.42269C14.1592 1.68081 14.0796 1.95767 14.0302 2.24895C13.9149 2.93101 14.1002 3.59288 14.1386 4.26341C14.1907 5.1834 14.3019 6.10339 14.1496 7.02482C14.1235 7.18344 14.1152 7.33196 13.9121 7.36513C13.5224 7.42713 13.193 7.63622 12.8733 7.87126C12.0279 8.48843 11.2896 9.24836 10.4305 9.84679C10.0215 10.1323 9.46847 10.5015 9.13773 10.8966C9.13773 10.8966 9.02794 10.8836 8.90168 10.8807C7.98084 10.8619 7.06136 10.8807 6.14051 10.8158C5.56962 10.7754 5.02617 10.6457 4.48546 10.4712C4.35234 10.4279 4.30431 10.4741 4.31529 10.3097C4.3496 10.1424 4.35646 10.0703 4.37293 10.0011C4.68994 8.6211 3.84183 7.34926 2.4832 7.22958C1.59117 7.15027 0.701886 7.77754 0.354681 8.61821C0.0609975 9.32767 0.299786 10.0011 0.415064 10.6788C0.458979 10.9369 0.777364 11.0061 0.953025 11.1835C1.00655 11.2383 1.07242 11.2816 1.11908 11.3421C1.49236 11.8223 2.0015 11.8598 2.523 11.7906C3.11997 11.7113 3.7238 11.8036 4.3194 11.7012C4.39626 11.6882 4.4882 11.7286 4.56643 11.7618C5.76037 12.2737 6.99823 12.6241 8.26354 12.8764C8.57369 12.9384 8.87836 12.9153 9.18439 12.8231C10.6693 12.3775 11.995 11.6219 13.1848 10.5923C13.5704 10.2578 13.7886 10.3097 14.0013 10.7841C14.0466 10.885 14.0741 10.9961 14.1043 11.1028C14.2305 11.5584 14.3897 11.9982 14.6052 12.415C14.6916 12.5808 14.7397 12.7437 14.7479 12.9456C14.7644 13.3133 14.8014 13.6983 14.9551 14.0314C15.1033 14.353 15.0992 14.6587 15.0265 14.9803C14.9757 15.2095 14.9181 15.4388 14.8467 15.6623C14.575 16.5246 14.5777 17.3567 15.0773 18.1397C15.1006 18.1772 15.1239 18.2161 15.1418 18.2565C15.172 18.3228 15.2365 18.3862 15.1322 18.4872C14.8001 18.1296 14.645 17.6566 14.4062 17.2355C14.2991 17.3336 14.2703 17.4576 14.2278 17.5701C13.7173 18.9313 13.1258 20.2551 12.4945 21.5601C11.8783 22.8348 11.28 24.1182 11.0137 25.5371C11.0041 25.589 10.9904 25.6596 10.9547 25.6827C10.4195 26.0475 10.1478 26.6344 9.83626 27.1766C9.06088 28.5278 8.41176 29.9481 7.8587 31.4146C7.64187 31.9914 7.39073 32.5509 7.05038 33.0614C6.58241 33.7622 6.02524 33.8357 5.42003 33.2762C5.21418 33.0873 4.93696 33.1017 4.78051 33.3325C4.52526 33.7074 4.30019 34.1039 4.12865 34.5322C4.01337 34.8177 4.02435 35.0902 4.13688 35.3801C4.40723 36.0809 4.89579 36.6 5.40356 37.1033C7.56364 39.2461 10.1423 40.5612 12.9721 41.4393C15.6152 42.2598 18.2735 42.4156 20.977 41.9714C23.3567 41.5806 25.5593 40.6808 27.6151 39.3715C28.6855 38.6895 29.6475 37.8733 30.4833 36.8913C30.7646 36.5596 30.8538 36.1847 30.7303 35.7651C30.5615 35.1883 30.2678 34.6764 29.9343 34.1919C29.7779 33.9641 29.4197 33.879 29.2509 34.065C28.9696 34.3736 28.7514 34.2424 28.503 34.0448C28.3054 33.8891 28.1146 33.7276 27.9403 33.543C27.3969 32.9676 27.1128 32.2409 26.8479 31.4997C26.111 29.4391 24.9829 27.5775 24.1224 25.5789C24.0922 25.5097 24.0415 25.4102 23.9893 25.4001C23.7684 25.3626 23.7739 25.191 23.7505 25.0252C23.5296 23.4606 23.0945 21.9811 22.2437 20.6516C21.6344 19.6985 21.1856 18.6718 21.0484 17.5153C21.0319 17.3725 20.9962 17.2197 20.8892 17.1101C20.7739 17.1822 20.8055 17.3408 20.6655 17.3898C20.6449 17.1404 20.7547 16.8981 20.6696 16.6544C20.3334 15.6883 20.1975 14.7265 20.4528 13.6897C20.6723 12.8014 20.7382 11.8713 20.8809 10.9614C21.0168 10.0905 21.0978 10.066 21.8155 10.5202C22.9065 11.2109 23.9962 11.9088 25.2491 12.2506C25.6814 12.3688 26.111 12.4078 26.5501 12.2924C27.8195 11.9564 29.0643 11.5498 30.2459 10.9528C30.6233 10.7625 31.0116 10.6053 31.4165 10.4914C31.599 10.4394 31.7157 10.4149 31.7266 10.7149C31.7445 11.2196 32.0231 11.3767 32.4746 11.1994C32.6447 11.133 32.8108 11.0537 32.981 10.9845C33.2074 10.8922 33.2637 10.7293 33.1717 10.5C33.0894 10.2938 33.0468 10.0789 32.6557 9.93331V9.93187ZM32.6489 9.37526C32.6983 9.50071 32.5844 9.51369 32.5048 9.53965C32.4746 9.54974 32.4691 9.56848 32.4924 9.58146C32.5967 9.63337 32.7147 9.68817 32.5363 9.79343C32.4499 9.84535 31.7568 9.82516 32.3497 9.55983C32.3854 9.54397 32.1246 9.58435 32.0752 9.58002C32.0052 9.57281 31.9037 9.61751 31.8913 9.50792C31.8817 9.41852 31.9778 9.38679 32.045 9.36516C32.1562 9.33056 32.6022 9.25846 32.6489 9.37526ZM32.5651 9.0883C32.6063 9.23683 31.7706 9.33633 31.7472 9.17771C31.7294 9.0537 31.879 9.05802 31.9682 9.0436C32.1809 9.01044 32.5006 8.85326 32.5651 9.0883ZM32.4293 8.67301C32.4677 8.68743 32.5048 8.74511 32.4732 8.78116C32.3154 8.95852 32.0546 8.92824 31.8433 8.94266C31.433 8.97006 32.2275 8.59947 32.4279 8.67301H32.4293ZM30.9773 8.29953C30.8552 8.19427 30.8305 8.00104 30.8648 7.83089C30.9211 7.54393 31.4041 7.30024 31.7445 7.37522C31.9448 7.41992 32.1479 7.79484 32.1027 8.05296C32.0793 8.18706 31.9942 8.27358 31.868 8.29809C31.7129 8.32838 31.5537 8.34424 31.3685 8.37019C31.4755 8.18562 31.6594 8.23609 31.7541 8.07891C31.5633 8.00104 31.422 8.09333 31.2724 8.16543C31.1722 8.21446 31.0748 8.38317 30.9773 8.29953ZM14.1825 2.91082C14.1413 2.47823 14.2305 2.05716 14.3815 1.65773C14.4968 1.35059 14.7095 1.14294 15.0347 1.0694C15.2667 1.01749 15.4464 1.06219 15.6097 1.25254C15.8568 1.53949 16.1573 1.75579 16.4949 1.91008C16.6321 1.97209 16.7872 2.04707 16.8984 1.87259C16.9972 1.71686 16.8915 1.59429 16.7996 1.48325C16.4949 1.11266 16.0887 0.95837 15.6427 0.892038C15.5247 0.874734 15.3737 0.870408 15.3641 0.721883C15.3559 0.58922 15.5123 0.582011 15.607 0.548845C16.1477 0.364271 16.7035 0.344083 17.2579 0.440696C17.9263 0.557497 18.3846 0.969906 18.6111 1.64043C18.7744 2.12782 18.9212 2.62243 19.0516 3.11991C19.429 4.55613 19.8352 5.97072 21.1554 6.79698C21.1197 6.85466 21.1088 6.88639 21.1005 6.88494C20.3649 6.78112 19.6252 6.8388 18.8883 6.82294C18.596 6.81717 18.3476 6.70181 18.1486 6.47254C18.0264 6.33266 17.9702 6.17981 18.0059 5.97937C18.0594 5.68088 18.0896 5.37662 17.9729 5.08102C17.9386 4.99594 17.8988 4.89933 17.7973 4.91663C17.6875 4.93538 17.7012 5.05073 17.6943 5.13725C17.6765 5.34202 17.7081 5.54534 17.7643 5.73712C17.9331 6.30382 17.6916 6.76093 17.4212 7.22525C17.4899 5.99812 17.0123 4.98873 16.3124 4.06874C15.8307 3.43426 15.4176 2.77239 15.4245 1.91729C15.4245 1.87403 15.4108 1.82789 15.3984 1.78607C15.3257 1.53805 15.2076 1.28714 14.9414 1.29003C14.6477 1.29435 14.5928 1.59284 14.5613 1.83366C14.5283 2.07591 14.5393 2.32826 14.5475 2.57484C14.5613 3.00311 14.5777 3.42705 14.4981 3.85244C14.4336 4.2014 14.4776 4.54315 14.6244 4.87337C14.7232 5.09544 14.8014 5.33192 14.8687 5.56697C15.0032 6.04282 15.0992 6.11348 15.5823 6.08176C15.7031 6.07455 15.8664 5.96928 15.9391 6.10483C16.0214 6.25768 15.9528 6.44081 15.8526 6.5778C15.5096 7.05077 15.0196 7.22381 14.4803 7.28005C14.3321 7.29591 14.3335 7.18343 14.3458 7.07817C14.5173 5.678 14.3115 4.29513 14.1797 2.90794L14.1825 2.91082ZM15.784 1.12852C16.2095 1.17323 16.4812 1.33473 16.6898 1.62168C16.7213 1.66494 16.7625 1.71974 16.7035 1.76588C16.6774 1.78607 16.6212 1.78463 16.5869 1.77021C16.2891 1.64476 16.0338 1.46162 15.7827 1.12708L15.784 1.12852ZM15.4862 5.90728C15.231 5.94188 15.0896 5.84094 15.0361 5.60013C14.9592 5.25838 14.8316 4.93826 14.7012 4.61814C14.634 4.45087 14.5942 4.27206 14.6258 4.09037C14.7328 3.47608 14.7054 2.85747 14.6807 2.23886C14.6711 2.01102 14.6861 1.78607 14.7877 1.58131C14.881 1.39385 14.999 1.37078 15.1267 1.55391C15.2035 1.66494 15.2625 1.78607 15.2639 1.92594C15.2721 2.75941 15.6358 3.43138 16.1216 4.05576C16.6349 4.71475 17.0452 5.43142 17.2113 6.28363C17.2881 6.68018 17.247 7.06663 17.1756 7.45453C17.1578 7.54826 17.1015 7.64055 17.1797 7.77609C17.5873 7.42858 17.7314 6.93253 17.9331 6.39611C18.2748 6.97579 18.7908 7.0104 19.3247 6.97579C19.5813 6.95849 19.7103 7.03491 19.6609 7.33629C19.6156 7.61315 19.606 7.89434 19.5703 8.17264C19.4262 9.30604 18.8691 9.72422 17.8494 9.96936C17.402 10.0775 16.9354 10.0905 16.4743 10.0602C15.983 10.0285 15.6166 9.79344 15.4423 9.29018C15.2598 8.76241 15.0965 8.22888 15.0608 7.65929C15.0443 7.40839 15.1253 7.26851 15.3421 7.16757C15.6811 7.00896 16.0214 6.80708 16.0695 6.38169C16.1038 6.08176 16.2012 5.90872 16.4826 5.83806C16.1326 5.76164 15.8101 5.86402 15.4849 5.90728H15.4862ZM17.8618 5.07957C17.9263 5.32039 17.9812 5.48045 17.8933 5.65781C17.8329 5.49919 17.8 5.33625 17.8618 5.07957ZM0.612682 10.451C0.353308 9.93187 0.287435 9.38391 0.464468 8.81721C0.782854 7.79196 1.84094 7.18632 2.85236 7.44732C3.83222 7.70111 4.47585 8.75088 4.31117 9.82804C4.29333 9.94917 4.23569 10.5288 3.30798 11.1994C3.21054 11.27 3.06919 11.2498 2.96352 11.2051C1.7833 10.7019 1.69547 10.9961 1.69547 10.9961C1.33179 10.7725 0.806184 10.8389 0.612682 10.451ZM1.26318 11.2845C1.17123 11.1806 1.03948 11.0653 1.03948 11.0653C1.29474 11.1835 1.86427 11.6478 1.86427 11.6478C1.50608 11.655 1.32082 11.3479 1.26455 11.283L1.26318 11.2845ZM2.0262 11.6493C1.75173 11.3335 1.09163 10.9975 1.16437 10.9326C1.22887 10.8735 2.31577 11.4575 2.58201 11.6594C2.42693 11.6911 2.08247 11.7142 2.0262 11.6507V11.6493ZM14.0357 10.4438C13.6281 10.1453 13.484 10.1496 13.0942 10.4899C12.0361 11.4142 10.8559 12.0977 9.5563 12.5736C9.0101 12.774 8.47351 12.8216 7.91771 12.6846C6.80336 12.4092 5.69175 12.1251 4.63642 11.6435C4.44429 11.5555 4.24118 11.5685 4.0367 11.5945C3.37248 11.681 2.73434 11.6046 2.1456 11.2383C2.10031 11.2095 2.05365 11.1821 2.01111 11.1489C1.99739 11.1374 1.88897 11.0653 1.96033 11.0408C2.10717 10.9903 3.17898 11.5584 3.86104 11.2816C3.65244 11.159 3.68126 11.0725 3.82536 10.9139C4.0861 10.6269 4.32764 10.5678 4.69817 10.6961C5.7096 11.0451 6.77042 10.9787 7.81753 11.0076C8.17434 11.0177 8.57918 10.9787 8.95658 11.0754C8.97991 11.0811 8.99226 11.11 8.98128 11.1316C8.8811 11.3248 8.67799 11.4387 8.57507 11.6002C8.52292 11.6824 8.44057 11.7675 8.50782 11.8728C8.5833 11.9925 8.69446 11.9463 8.79876 11.9146C9.14596 11.8065 9.35731 11.531 9.34084 11.1446C9.3326 10.9629 9.4273 10.8764 9.5261 10.7798C10.0586 10.2534 10.672 9.83814 11.2566 9.38247C11.8934 8.88787 12.4547 8.29233 13.1299 7.84819C13.4455 7.64055 13.7804 7.51077 14.1454 7.45741C14.2278 7.44588 14.3554 7.38531 14.3513 7.56556C14.3266 8.5317 14.2484 9.49062 14.037 10.4438H14.0357ZM9.14047 11.234C9.15557 11.531 9.01696 11.6911 8.70407 11.756C8.64506 11.6911 8.97854 11.3926 9.14047 11.234ZM15.1527 15.0769C15.2351 14.8937 15.2351 14.676 15.209 14.477C15.1802 14.2477 15.2735 14.167 15.4629 14.0963C16.2026 13.8209 17.461 13.6407 18.6413 13.6681C19.0804 13.7041 19.5607 13.7243 20.0342 13.8411C20.192 13.88 20.2579 13.9565 20.2318 14.1194C20.1399 14.6919 20.1701 15.26 20.2853 15.8267C20.3238 16.0142 20.2483 16.1757 20.1536 16.3329C19.2547 17.8513 17.0178 18.1065 15.8074 16.8217C15.6578 16.6631 15.5315 16.4785 15.3929 16.3055C15.102 15.9406 14.9345 15.5571 15.15 15.074L15.1527 15.0769ZM11.1661 26.0605C11.3376 26.3518 11.4392 26.6589 11.3678 27.0829C11.1345 26.7238 11.118 26.3994 11.1661 26.0605ZM29.7052 34.1501C29.7052 34.1501 29.7326 34.1688 29.7463 34.1789C29.771 34.1977 29.7971 34.2164 29.8218 34.2366C29.8493 34.2784 29.8767 34.3202 29.9042 34.362C29.9179 34.3894 29.9316 34.4168 29.9453 34.4442C29.9728 34.4846 30.0002 34.5235 30.0277 34.5639C30.0647 34.6375 30.1018 34.7096 30.1388 34.7831C30.1622 34.8264 30.1855 34.8711 30.2088 34.9143C30.2308 34.959 30.2514 35.0037 30.2733 35.0499C30.3502 35.2099 30.4339 35.3671 30.5039 35.5315C30.7084 36.0174 30.6795 36.4486 30.309 36.8625C29.5638 37.6945 28.7582 38.4458 27.8374 39.0557C25.5593 40.564 23.0945 41.5446 20.4198 41.908C17.9263 42.2468 15.4849 42.081 13.0558 41.311C10.436 40.479 8.01652 39.3066 5.9525 37.3917C5.5106 36.9807 5.09615 36.5423 4.70229 36.0809C4.48409 35.8257 4.33999 35.5257 4.24118 35.1998C4.18491 35.0124 4.17119 34.8278 4.31803 34.6129C4.30568 34.9807 4.47448 35.2071 4.6817 35.4248C7.49914 38.3938 10.8051 40.4386 14.752 41.2158C19.4976 42.1502 23.8699 41.0932 27.906 38.365C28.6361 37.8718 29.3264 37.3196 29.9865 36.7255C30.4462 36.3131 30.5094 36.0621 30.3172 35.4536C30.2802 35.3368 30.2404 35.22 30.202 35.1032C30.1814 35.0585 30.1622 35.0138 30.1416 34.9691C30.121 34.9273 30.099 34.884 30.0784 34.8422C30.0428 34.7687 30.0071 34.6937 29.97 34.6187C29.9426 34.5783 29.9151 34.538 29.8877 34.4976C29.874 34.4702 29.8589 34.4414 29.8451 34.414C29.8149 34.375 29.7848 34.3361 29.7546 34.2972C29.7395 34.2712 29.723 34.2452 29.7079 34.2193C29.6873 34.1977 29.6695 34.1731 29.7038 34.1515L29.7052 34.1501ZM29.675 34.4255C29.9124 34.7918 30.11 35.1753 30.2267 35.6007C30.3159 35.9237 30.2829 36.2179 30.0167 36.4587C27.2006 38.9908 24.0003 40.678 20.3073 41.2014C16.3151 41.7681 12.5768 40.9116 9.09107 38.8063C7.49365 37.8416 6.06092 36.6519 4.74758 35.295C4.47997 35.0181 4.40998 34.7557 4.58152 34.3981C4.73111 34.0866 4.87795 33.7752 5.06459 33.4853C5.16066 33.3368 5.26633 33.2863 5.40082 33.4334C5.49139 33.5329 5.51335 33.5978 5.35965 33.6757C4.97539 33.8718 4.915 34.0607 5.06459 34.4846C5.09341 34.5682 5.13595 34.649 5.16066 34.7341C5.34729 35.3859 5.41866 35.4753 6.03759 35.3325C6.81434 35.1523 7.43052 35.3383 8.09474 35.8185C10.7269 37.7248 13.683 38.6678 16.8682 38.8048C20.6737 38.9692 24.1801 37.9439 27.3859 35.7882C27.6274 35.6252 27.755 35.6411 27.9225 35.879C28.5702 36.799 28.9215 36.4846 29.406 35.8314C29.4527 35.7694 29.4966 35.706 29.5405 35.6425C29.9083 35.1133 29.8602 34.8711 29.3209 34.538C29.2756 34.5091 29.2317 34.4774 29.1782 34.4399C29.3662 34.1429 29.5117 34.1731 29.6763 34.4269L29.675 34.4255ZM18.4313 21.9307C19.1847 23.4274 20.0685 24.8348 21.1074 26.1326C21.5699 26.7094 21.928 27.3828 22.4564 27.8933C23.5872 28.9863 24.3667 30.3418 25.1325 31.7117C25.5414 32.4442 26.0629 33.0873 26.5227 33.778C26.8301 34.2395 27.1128 34.7182 27.4243 35.1753C27.5643 35.3801 27.5012 35.4709 27.3269 35.5906C25.455 36.8668 23.4321 37.7579 21.2487 38.2396C19.923 38.5323 18.5836 38.6765 16.7762 38.639C13.742 38.5395 10.5526 37.4912 7.70362 35.3498C7.5362 35.2229 7.44287 35.1378 7.64324 34.9561C7.72009 34.8869 7.78047 34.773 7.80243 34.6692C7.92732 34.0664 8.27589 33.5935 8.59977 33.1032C9.29418 32.0477 9.98173 30.9863 10.6665 29.9236C11.0947 29.2588 11.5627 28.6359 12.1377 28.0995C12.5878 27.6799 12.9638 27.1809 13.2918 26.6532C14.2703 25.0771 15.4849 23.6812 16.4537 22.0965C16.6335 21.8023 16.8078 21.5053 16.9835 21.2097C17.0548 21.09 17.1427 20.9602 17.2881 21.0265C17.6106 21.1765 17.87 21.0424 18.1307 20.8694C18.1815 20.8347 18.2419 20.7727 18.2954 20.842C18.3188 20.8722 18.3092 20.9515 18.2899 20.9977C18.1541 21.3423 18.2913 21.6437 18.4354 21.9307H18.4313ZM23.7629 26.4845C23.826 26.868 23.9029 27.2516 23.7739 27.7246C23.616 27.2559 23.6709 26.8709 23.7629 26.4845ZM20.3691 16.3098C20.5351 16.6054 20.6024 16.8851 20.5557 17.198C20.5118 17.4951 20.3485 17.7604 20.3485 18.0993C20.612 17.9493 20.6833 17.671 20.8411 17.4389C20.9592 17.5758 20.9482 17.7388 20.9715 17.8801C21.1129 18.7107 21.4093 19.4735 21.8265 20.1931C22.3274 21.0568 22.8461 21.9148 23.1453 22.8881C23.4267 23.8024 23.6051 24.7411 23.675 25.6942C23.7066 26.1326 23.5858 26.584 23.5337 27.0295C23.5104 27.2343 23.531 27.4347 23.5982 27.6265C23.6339 27.7303 23.6901 27.8486 23.8233 27.827C23.9427 27.8068 23.9468 27.6856 23.9564 27.5861C24.003 27.1247 23.9536 26.6661 23.9042 26.2076C23.8836 26.0129 23.8246 25.811 23.9605 25.6121C23.9989 25.6582 24.036 25.6856 24.0524 25.7231C24.8978 27.6409 25.9463 29.4578 26.6736 31.4362C26.8013 31.7823 26.922 32.1327 27.0689 32.4687C27.5121 33.4853 28.2546 34.1861 29.2043 34.6677C29.6928 34.9143 29.7244 35.0931 29.3895 35.5373C29.2564 35.7132 29.1343 35.8992 28.9915 36.0679C28.7418 36.3621 28.514 36.3664 28.2573 36.0838C28.0048 35.8069 27.7825 35.5027 27.5835 35.1825C27.0442 34.3159 26.4417 33.494 25.8777 32.6461C25.3027 31.7794 24.7921 30.8652 24.2679 29.9625C23.8068 29.1694 23.192 28.5148 22.6156 27.8183C21.1129 25.9985 19.6678 24.1297 18.6111 21.9653C18.3819 21.4966 18.3599 21.0943 18.5877 20.6271C18.7675 20.2608 19.0241 19.9436 19.1998 19.5773C19.1779 19.5586 19.1559 19.5398 19.1339 19.5225C18.8691 19.8181 18.6056 20.1123 18.3407 20.4079C18.187 20.5795 18.0415 20.7626 17.8275 20.8593C17.6875 20.9227 17.553 20.9645 17.3965 20.8895C17.1632 20.7785 16.9835 20.8665 16.8558 21.0943C15.6413 23.2645 14.026 25.1348 12.7017 27.2242C12.5466 27.4679 12.3545 27.6799 12.1377 27.8673C11.4433 28.4686 10.9136 29.217 10.4236 30C9.71 31.1378 8.98952 32.2697 8.21551 33.3627C7.97672 33.6987 7.79694 34.065 7.68029 34.4702C7.53482 34.9763 7.37426 35.083 6.86237 35.0758C6.51791 35.0701 6.18168 35.1508 5.84271 35.2027C5.56001 35.2474 5.39258 35.1494 5.34043 34.8365C5.31436 34.685 5.23751 34.5423 5.1881 34.3952C5.06596 34.0362 5.19496 33.8213 5.55589 33.7939C5.68352 33.7838 5.81252 33.7982 5.94152 33.804C6.46576 33.8271 6.87472 33.6165 7.17115 33.1551C7.5458 32.5725 7.8189 31.9381 8.06318 31.2892C8.66976 29.6727 9.42318 28.1327 10.2905 26.6561C10.414 26.4455 10.5595 26.2494 10.705 26.0547C10.7612 25.9783 10.8422 25.8803 10.9437 25.9264C11.0343 25.9668 10.9986 26.0865 10.9986 26.1715C10.9973 26.4426 11 26.7137 11.118 26.9646C11.1757 27.0887 11.2457 27.2271 11.3939 27.2055C11.5695 27.1795 11.5407 27.0093 11.5366 26.8796C11.5243 26.5162 11.4611 26.1615 11.2621 25.8543C11.1757 25.7216 11.1565 25.5991 11.1853 25.4433C11.398 24.3042 11.8564 23.2616 12.3394 22.232C13.0448 20.728 13.7488 19.2255 14.3321 17.6624C14.3472 17.622 14.3719 17.5859 14.4144 17.5037C14.6587 18.0286 14.9277 18.5002 15.2625 18.9241C15.6509 19.4158 16.0242 19.9234 16.5512 20.2695L16.5457 20.2378C16.4867 19.9883 16.311 19.8513 16.1793 19.6509C15.8019 19.0755 15.4149 18.5088 15.1129 17.8844C15.0388 17.7301 14.8728 17.5903 15.0471 17.3581C15.1075 17.2788 14.9785 17.0466 14.9428 16.8823C14.8728 16.5636 14.8399 16.2435 14.9565 15.8238C15.5068 17.0149 16.3247 17.746 17.5338 17.8008C18.7058 17.8542 19.687 17.397 20.3677 16.3098H20.3691ZM20.8233 10.5865C20.6559 11.5498 20.4967 12.513 20.3416 13.4777C20.3114 13.6666 20.2922 13.769 20.0479 13.7142C18.4876 13.3667 16.9382 13.4561 15.419 13.9608C15.1075 14.0646 14.9977 13.9867 14.9839 13.6882C14.9757 13.4993 14.7644 13.2672 15.0937 13.1201C15.1692 13.0869 15.0498 12.8966 14.9867 12.7971C14.6875 12.3256 14.4652 11.8194 14.2854 11.2859C14.1468 10.8749 14.166 10.4683 14.2456 10.0559C14.3856 9.32479 14.4583 8.58793 14.4501 7.84242C14.4501 7.77465 14.4666 7.70832 14.4652 7.64055C14.4625 7.43578 14.5942 7.40983 14.7424 7.39829C14.9249 7.38387 14.9153 7.52519 14.9222 7.64776C14.9579 8.24907 15.1171 8.81865 15.3106 9.38103C15.478 9.86553 15.8334 10.1453 16.2932 10.1914C17.0301 10.2664 17.7712 10.2433 18.4738 9.93042C19.0694 9.6651 19.5086 9.26134 19.628 8.55477C19.6993 8.13371 19.8133 7.71841 19.7707 7.28582C19.746 7.03635 19.8531 6.97002 20.0644 6.97435C20.3114 6.97867 20.2606 7.1272 20.2373 7.29591C20.1234 8.11064 20.1618 8.91238 20.4583 9.68529C20.5324 9.87995 20.6051 10.0818 20.7904 10.2001C20.8576 10.3226 20.8466 10.4481 20.8233 10.5865ZM31.647 10.3082C30.8058 10.4784 30.0757 10.9499 29.2866 11.2628C28.4151 11.6075 27.5327 11.916 26.6297 12.1597C25.9312 12.3472 25.2711 12.1756 24.6233 11.9103C23.7025 11.5325 22.8393 11.0364 21.998 10.4986C21.6248 10.2606 21.2666 9.99531 20.7986 10.1958C20.837 10.128 20.7917 10.0746 20.7615 10.0213C20.2771 9.15896 20.2675 8.22599 20.3828 7.2714C20.4089 7.05654 20.4939 7.00175 20.697 7.0104C21.1719 7.03059 21.5561 7.21949 21.9047 7.55547C22.9161 8.5317 24.036 9.36516 25.1421 10.2145C25.5085 10.4957 25.9079 10.6154 26.38 10.4798C27.2926 10.2174 28.2367 10.1626 29.1741 10.066C29.9728 9.98378 30.5848 9.58291 30.9787 8.83307C31.1516 8.50286 31.8062 8.31828 32.255 8.4769C32.1328 8.60524 31.9874 8.63408 31.8419 8.63696C31.6292 8.64273 31.5331 8.82009 31.3973 8.93978C31.3479 8.98304 31.3781 9.01476 31.4124 9.06956C31.5867 9.35507 31.6662 9.68384 31.7747 9.99964C31.8213 10.1381 31.8309 10.2707 31.6484 10.3068L31.647 10.3082ZM32.6077 11.022C32.5418 11.0566 32.4663 11.0754 32.395 11.0984C32.2632 11.1417 32.1178 11.2196 32.0121 11.0682C31.905 10.9153 31.7678 10.7264 31.8748 10.5447C31.9997 10.3327 31.9558 10.1655 31.8982 9.97224C31.8707 9.8814 31.8007 9.72566 31.8186 9.56416C31.8447 9.95494 32.3414 9.7819 32.4169 10.1035C32.4334 10.1712 32.5144 10.1035 32.5597 10.0516C32.5679 10.0429 32.5734 10.0342 32.5816 10.0256C32.9055 10.1222 33.0935 10.4265 33.0729 10.6831C33.051 10.9528 32.7792 10.9326 32.6063 11.022H32.6077Z"/>
</mask>
<path d="M1.16281 10.9314C1.09145 10.9977 1.75155 11.3337 2.02464 11.6481C2.07954 11.7115 2.42537 11.6899 2.58045 11.6567C2.31421 11.4549 1.22731 10.8709 1.16281 10.93V10.9314Z" fill="#8426D7"/>
<path d="M16.7024 1.76694C16.7614 1.72224 16.7203 1.666 16.6887 1.62275C16.4801 1.33579 16.2084 1.17429 15.783 1.12959C16.0327 1.46268 16.2894 1.64582 16.5872 1.77271C16.6215 1.78713 16.6777 1.78857 16.7038 1.76839L16.7024 1.76694Z" fill="#8426D7"/>
<path d="M1.26247 11.2838C1.32011 11.3487 1.50538 11.6544 1.86219 11.6486C1.86219 11.6486 1.29266 11.1843 1.03741 11.0661C1.03741 11.0661 1.16915 11.1814 1.2611 11.2853L1.26247 11.2838Z" fill="#8426D7"/>
<path d="M2.96237 11.2055C3.06667 11.2502 3.20802 11.2704 3.30683 11.1998C4.23454 10.5292 4.29218 9.94956 4.31002 9.82843C4.47333 8.75127 3.83107 7.7015 2.85121 7.44771C1.84116 7.18527 0.783076 7.79234 0.463318 8.8176C0.287657 9.3843 0.352157 9.93226 0.611532 10.4514C0.805033 10.8393 1.33064 10.7729 1.69432 10.9964C1.69432 10.9964 1.78215 10.7023 2.96237 11.2055Z" fill="#8426D7"/>
<path d="M17.8623 5.0808C17.8006 5.33747 17.8335 5.50042 17.8939 5.65904C17.9831 5.48167 17.9282 5.32161 17.8623 5.0808Z" fill="#8426D7"/>
<path d="M14.3483 7.07876C14.336 7.18402 14.3346 7.2965 14.4828 7.28064C15.0208 7.22296 15.5107 7.05136 15.8552 6.57839C15.954 6.4414 16.024 6.25827 15.9416 6.10542C15.8675 5.96987 15.7042 6.07513 15.5848 6.08234C15.1017 6.11407 15.0057 6.04341 14.8712 5.56755C14.8039 5.33107 14.7257 5.09602 14.6269 4.87396C14.4801 4.54374 14.4361 4.20343 14.5006 3.85303C14.5802 3.42764 14.5624 3.00226 14.55 2.57543C14.5418 2.32885 14.5308 2.07794 14.5638 1.83424C14.5953 1.59343 14.6502 1.29494 14.9439 1.29061C15.2101 1.28629 15.3268 1.53864 15.4009 1.78666C15.4133 1.82992 15.4284 1.87462 15.427 1.91788C15.4215 2.77298 15.8332 3.43485 16.3149 4.06933C17.0148 4.99076 17.4924 5.99871 17.4237 7.22584C17.6941 6.76152 17.9356 6.30297 17.7668 5.73771C17.7092 5.54592 17.6776 5.3426 17.6968 5.13784C17.7051 5.05132 17.6914 4.93596 17.7998 4.91722C17.9 4.89991 17.9411 4.99653 17.9754 5.0816C18.0935 5.37577 18.0619 5.68003 18.0084 5.97996C17.9727 6.1804 18.029 6.33181 18.1511 6.47312C18.3501 6.70096 18.5985 6.81632 18.8908 6.82353C19.6277 6.83939 20.3674 6.78171 21.103 6.88553C21.1099 6.88553 21.1222 6.85525 21.1579 6.79757C19.8377 5.97131 19.4315 4.55672 19.0541 3.1205C18.9237 2.62301 18.7769 2.12697 18.6136 1.64102C18.3885 0.970493 17.9288 0.558085 17.2604 0.441284C16.706 0.34467 16.1502 0.364858 15.6095 0.549433C15.5148 0.581156 15.3584 0.589808 15.3666 0.722471C15.3762 0.869554 15.5272 0.87388 15.6452 0.892626C16.0912 0.960399 16.4974 1.11469 16.8021 1.48384C16.894 1.59487 16.9997 1.71744 16.9009 1.87318C16.7897 2.04766 16.6346 1.97267 16.4974 1.91067C16.1584 1.75638 15.8579 1.54008 15.6122 1.25312C15.4489 1.06278 15.2692 1.01808 15.0372 1.06999C14.712 1.14209 14.4993 1.34974 14.384 1.65832C14.233 2.05775 14.1438 2.48026 14.185 2.91141C14.3181 4.2986 14.524 5.68147 14.3511 7.08164L14.3483 7.07876Z" fill="#8426D7"/>
<path d="M31.2705 8.16433C31.4201 8.09079 31.5628 7.99995 31.7522 8.07782C31.6575 8.23499 31.4722 8.18452 31.3665 8.3691C31.5518 8.34314 31.7096 8.32728 31.8661 8.297C31.9923 8.27248 32.0774 8.18597 32.1007 8.05186C32.1447 7.79374 31.9429 7.41883 31.7426 7.37413C31.4022 7.29914 30.9191 7.54139 30.8629 7.82979C30.8299 7.99995 30.8546 8.19317 30.9754 8.29844C31.0728 8.38207 31.1703 8.21336 31.2705 8.16433Z" fill="#8426D7"/>
<path d="M20.4603 9.68571C20.1639 8.91281 20.1241 8.11106 20.2394 7.29634C20.2627 7.12907 20.3135 6.9791 20.0665 6.97477C19.8551 6.97045 19.7481 7.03678 19.7728 7.28624C19.8153 7.7174 19.7001 8.13413 19.6301 8.55519C19.5107 9.26321 19.0715 9.66697 18.4759 9.93085C17.7733 10.2438 17.0336 10.2668 16.2952 10.1918C15.8355 10.1443 15.4787 9.86596 15.3126 9.38145C15.1191 8.81908 14.96 8.24949 14.9243 7.64818C14.9174 7.52561 14.927 7.38574 14.7445 7.39872C14.5963 7.41025 14.4645 7.43621 14.4673 7.64097C14.4673 7.7073 14.4508 7.77508 14.4522 7.84285C14.4604 8.58836 14.3877 9.32521 14.2477 10.0563C14.1695 10.4687 14.1489 10.8754 14.2875 11.2863C14.4673 11.8199 14.691 12.326 14.9888 12.7975C15.0519 12.897 15.1713 13.0859 15.0958 13.1205C14.7664 13.2676 14.9778 13.4998 14.986 13.6887C14.9984 13.9886 15.1095 14.065 15.4211 13.9612C16.9389 13.4565 18.4883 13.3657 20.05 13.7146C20.2943 13.7694 20.3135 13.6656 20.3437 13.4781C20.4988 12.5135 20.6593 11.5488 20.8254 10.587C20.8487 10.4485 20.8611 10.3245 20.7924 10.2005C20.6072 10.0823 20.5358 9.88038 20.4603 9.68571Z" fill="#8426D7"/>
<path d="M23.7748 27.7253C23.9038 27.2523 23.827 26.8687 23.7639 26.4852C23.6719 26.8716 23.617 27.2566 23.7748 27.7253Z" fill="#8426D7"/>
<path d="M32.5841 10.0253C32.5772 10.034 32.5704 10.0427 32.5622 10.0513C32.5169 10.1032 32.4345 10.1695 32.4194 10.1032C32.3439 9.78309 31.8485 9.95469 31.8211 9.56391C31.8032 9.72686 31.8746 9.88115 31.9007 9.97199C31.9583 10.1638 32.0022 10.3325 31.8773 10.5445C31.7703 10.7262 31.9075 10.9151 32.0146 11.0679C32.1203 11.2193 32.2657 11.1414 32.3975 11.0982C32.4688 11.0751 32.5429 11.0564 32.6102 11.0218C32.7831 10.9324 33.0548 10.9525 33.0768 10.6829C33.0974 10.4262 32.9094 10.122 32.5855 10.0253H32.5841Z" fill="#8426D7"/>
<path d="M17.5344 17.8009C16.3254 17.7461 15.5075 17.015 14.9572 15.8239C14.8405 16.2421 14.8735 16.5622 14.9434 16.8823C14.9791 17.0467 15.1068 17.2774 15.0477 17.3582C14.8735 17.5903 15.0395 17.7288 15.1136 17.8845C15.4155 18.5089 15.8025 19.0756 16.1799 19.6509C16.3117 19.8514 16.4873 19.9884 16.5464 20.2378L16.5518 20.2696C16.0249 19.9249 15.6516 19.4159 15.2632 18.9242C14.9283 18.5002 14.6594 18.0287 14.4151 17.5038C14.3712 17.586 14.3465 17.6221 14.3327 17.6624C13.7495 19.2241 13.0455 20.7281 12.3401 22.2321C11.857 23.2602 11.3987 24.3042 11.1859 25.4434C11.1571 25.5991 11.1777 25.7217 11.2628 25.8544C11.4618 26.1615 11.5235 26.5148 11.5373 26.8796C11.5414 27.0094 11.5688 27.181 11.3945 27.2055C11.2463 27.2271 11.1763 27.0887 11.1187 26.9647C11.0021 26.7138 10.9979 26.4441 10.9993 26.1716C10.9993 26.0865 11.035 25.9669 10.9444 25.9265C10.8429 25.8803 10.7619 25.9784 10.7056 26.0548C10.5602 26.2495 10.4147 26.4456 10.2912 26.6561C9.42247 28.1342 8.67043 29.6728 8.06385 31.2892C7.81957 31.9396 7.54647 32.574 7.17182 33.1552C6.87539 33.6152 6.46643 33.8271 5.94219 33.8041C5.81319 33.7983 5.68419 33.7839 5.55656 33.794C5.19563 33.8228 5.06663 34.0377 5.18877 34.3953C5.23955 34.5438 5.3164 34.6851 5.3411 34.8365C5.39325 35.1494 5.56068 35.2475 5.84338 35.2028C6.18235 35.1494 6.51858 35.0701 6.86304 35.0759C7.37493 35.0831 7.53412 34.9764 7.68096 34.4703C7.79761 34.0651 7.97739 33.6988 8.21618 33.3628C8.99018 32.2698 9.71067 31.1378 10.4243 30.0001C10.9156 29.2171 11.4439 28.4687 12.1384 27.8674C12.3552 27.6799 12.5487 27.468 12.7024 27.2243C14.0253 25.1348 15.6406 23.2646 16.8565 21.0944C16.9841 20.8665 17.1639 20.7786 17.3972 20.8896C17.5537 20.9646 17.6881 20.9228 17.8281 20.8593C18.0422 20.7627 18.1877 20.5796 18.3414 20.408C18.6049 20.1124 18.8697 19.8182 19.1346 19.5226C19.1566 19.5413 19.1785 19.5601 19.2005 19.5774C19.0248 19.9437 18.7682 20.2609 18.5884 20.6272C18.3592 21.0944 18.3826 21.4967 18.6117 21.9653C19.6685 24.1283 21.1135 25.9986 22.6163 27.8184C23.1913 28.5148 23.8075 29.1695 24.2686 29.9626C24.7928 30.8653 25.3033 31.7795 25.8783 32.6461C26.4424 33.4955 27.0435 34.316 27.5842 35.1826C27.7845 35.5042 28.0055 35.807 28.258 36.0838C28.5146 36.365 28.7424 36.3621 28.9922 36.068C29.1349 35.9007 29.2571 35.7147 29.3902 35.5373C29.7264 35.0932 29.6935 34.9144 29.2049 34.6678C28.2566 34.1876 27.5142 33.4868 27.0695 32.4688C26.9227 32.1314 26.8019 31.7824 26.6743 31.4363C25.947 29.4579 24.8985 27.6424 24.0531 25.7232C24.0366 25.6857 23.9996 25.6583 23.9612 25.6121C23.8253 25.8126 23.8843 26.0144 23.9049 26.2077C23.9543 26.6662 24.0037 27.1233 23.957 27.5862C23.9474 27.6857 23.9433 27.8068 23.8239 27.827C23.6908 27.8486 23.6345 27.7304 23.5989 27.6266C23.5316 27.4348 23.511 27.2329 23.5344 27.0296C23.5865 26.584 23.7073 26.1327 23.6757 25.6943C23.6071 24.7412 23.4273 23.801 23.146 22.8882C22.8468 21.9149 22.3281 21.0569 21.8272 20.1931C21.41 19.4736 21.1135 18.7108 20.9722 17.8802C20.9475 17.7389 20.9598 17.5759 20.8418 17.4389C20.684 17.6711 20.6126 17.9494 20.3491 18.0994C20.3491 17.7619 20.5124 17.4952 20.5564 17.1981C20.6017 16.8852 20.5358 16.604 20.3697 16.3098C19.689 17.3971 18.7092 17.8542 17.5358 17.8009H17.5344Z" fill="#8426D7"/>
<path d="M29.7562 34.2953C29.7864 34.3342 29.8166 34.3732 29.8468 34.4121C29.8605 34.4395 29.8756 34.4683 29.8893 34.4957C29.9167 34.5361 29.9442 34.5765 29.9716 34.6169C30.0073 34.6918 30.043 34.7654 30.08 34.8404C30.1006 34.8822 30.1226 34.9254 30.1432 34.9673C30.1638 35.012 30.183 35.0567 30.2036 35.1014C30.242 35.2182 30.2818 35.335 30.3188 35.4518C30.511 36.0603 30.4465 36.3112 29.9881 36.7236C29.328 37.3163 28.6377 37.8685 27.9076 38.3631C23.8715 41.0899 19.4992 42.1484 14.7536 41.214C10.8067 40.4367 7.50075 38.392 4.68331 35.4229C4.47609 35.2052 4.30729 34.9788 4.31964 34.6111C4.1728 34.8259 4.18652 35.0091 4.24279 35.198C4.34023 35.5239 4.48569 35.8238 4.7039 36.079C5.09776 36.5405 5.51221 36.9788 5.95411 37.3898C8.01813 39.3048 10.4376 40.4771 13.0574 41.3091C15.4865 42.0806 17.9292 42.245 20.4214 41.9061C23.0975 41.5427 25.5609 40.5622 27.839 39.0539C28.7598 38.4439 29.5654 37.6926 30.3106 36.8606C30.6811 36.4467 30.71 36.0156 30.5055 35.5296C30.4369 35.3652 30.3531 35.2081 30.2749 35.048C30.253 35.0033 30.2324 34.9586 30.2104 34.9125C30.1871 34.8692 30.1638 34.8245 30.1404 34.7812C30.1034 34.7077 30.0663 34.6356 30.0293 34.5621C30.0018 34.5217 29.9744 34.4828 29.9469 34.4424C29.9332 34.415 29.9195 34.3876 29.9058 34.3602C29.8783 34.3184 29.8509 34.2766 29.8234 34.2347C29.7987 34.216 29.774 34.1972 29.7479 34.1771C29.7342 34.167 29.7123 34.1453 29.7068 34.1482C29.6725 34.1698 29.6903 34.1944 29.7109 34.216C29.726 34.2419 29.7425 34.2679 29.7575 34.2939L29.7562 34.2953Z" fill="#8426D7"/>
<path d="M11.165 26.0614C11.117 26.4003 11.1335 26.7247 11.3668 27.0838C11.4381 26.6598 11.3366 26.3541 11.165 26.0614Z" fill="#8426D7"/>
<path d="M32.6557 9.93187C32.8794 9.64635 32.6928 9.67519 32.7243 9.58435C32.7559 9.49494 32.7847 9.50792 32.7957 9.43006C32.8149 9.2873 32.5912 9.29163 32.6832 9.17771C32.8341 8.99025 32.5638 8.95708 32.6008 8.86191C32.7285 8.53458 32.4046 8.57928 32.4142 8.46969C32.4293 8.28944 32.2179 8.25195 32.1603 8.22455C32.1603 8.22455 32.2207 8.14524 32.2289 8.04863C32.2536 7.75735 32.2207 7.41848 31.8996 7.26275C31.6223 7.12864 31.0281 7.29591 30.8291 7.54826C30.6617 7.76023 30.6809 8.11208 30.9142 8.45527C30.9924 8.57063 30.9938 8.64417 30.9266 8.74799C30.4998 9.39112 29.9741 9.86265 29.1892 9.94196C28.2409 10.0371 27.283 10.0876 26.3607 10.3544C25.9463 10.4741 25.6087 10.412 25.2807 10.151C25.1956 10.0833 25.1037 10.0227 25.0186 9.95494C23.6833 8.88354 22.3466 7.81791 21.0937 6.62971C20.2744 5.85248 19.7337 4.97575 19.4304 3.89282C19.2218 3.14875 19.0118 2.40469 18.784 1.66639C18.5781 1.00163 18.1527 0.543077 17.5104 0.345524C16.7872 0.123458 16.0695 0.197 15.3668 0.470978C15.2749 0.507027 15.1404 0.564707 15.1569 0.652669C15.209 0.925205 15.0237 0.894922 14.8838 0.933856C14.6189 1.00596 14.4281 1.17611 14.2964 1.42269C14.1592 1.68081 14.0796 1.95767 14.0302 2.24895C13.9149 2.93101 14.1002 3.59288 14.1386 4.26341C14.1907 5.1834 14.3019 6.10339 14.1496 7.02482C14.1235 7.18344 14.1152 7.33196 13.9121 7.36513C13.5224 7.42713 13.193 7.63622 12.8733 7.87126C12.0279 8.48843 11.2896 9.24836 10.4305 9.84679C10.0215 10.1323 9.46847 10.5015 9.13773 10.8966C9.13773 10.8966 9.02794 10.8836 8.90168 10.8807C7.98084 10.8619 7.06136 10.8807 6.14051 10.8158C5.56962 10.7754 5.02617 10.6457 4.48546 10.4712C4.35234 10.4279 4.30431 10.4741 4.31529 10.3097C4.3496 10.1424 4.35646 10.0703 4.37293 10.0011C4.68994 8.6211 3.84183 7.34926 2.4832 7.22958C1.59117 7.15027 0.701886 7.77754 0.354681 8.61821C0.0609975 9.32767 0.299786 10.0011 0.415064 10.6788C0.458979 10.9369 0.777364 11.0061 0.953025 11.1835C1.00655 11.2383 1.07242 11.2816 1.11908 11.3421C1.49236 11.8223 2.0015 11.8598 2.523 11.7906C3.11997 11.7113 3.7238 11.8036 4.3194 11.7012C4.39626 11.6882 4.4882 11.7286 4.56643 11.7618C5.76037 12.2737 6.99823 12.6241 8.26354 12.8764C8.57369 12.9384 8.87836 12.9153 9.18439 12.8231C10.6693 12.3775 11.995 11.6219 13.1848 10.5923C13.5704 10.2578 13.7886 10.3097 14.0013 10.7841C14.0466 10.885 14.0741 10.9961 14.1043 11.1028C14.2305 11.5584 14.3897 11.9982 14.6052 12.415C14.6916 12.5808 14.7397 12.7437 14.7479 12.9456C14.7644 13.3133 14.8014 13.6983 14.9551 14.0314C15.1033 14.353 15.0992 14.6587 15.0265 14.9803C14.9757 15.2095 14.9181 15.4388 14.8467 15.6623C14.575 16.5246 14.5777 17.3567 15.0773 18.1397C15.1006 18.1772 15.1239 18.2161 15.1418 18.2565C15.172 18.3228 15.2365 18.3862 15.1322 18.4872C14.8001 18.1296 14.645 17.6566 14.4062 17.2355C14.2991 17.3336 14.2703 17.4576 14.2278 17.5701C13.7173 18.9313 13.1258 20.2551 12.4945 21.5601C11.8783 22.8348 11.28 24.1182 11.0137 25.5371C11.0041 25.589 10.9904 25.6596 10.9547 25.6827C10.4195 26.0475 10.1478 26.6344 9.83626 27.1766C9.06088 28.5278 8.41176 29.9481 7.8587 31.4146C7.64187 31.9914 7.39073 32.5509 7.05038 33.0614C6.58241 33.7622 6.02524 33.8357 5.42003 33.2762C5.21418 33.0873 4.93696 33.1017 4.78051 33.3325C4.52526 33.7074 4.30019 34.1039 4.12865 34.5322C4.01337 34.8177 4.02435 35.0902 4.13688 35.3801C4.40723 36.0809 4.89579 36.6 5.40356 37.1033C7.56364 39.2461 10.1423 40.5612 12.9721 41.4393C15.6152 42.2598 18.2735 42.4156 20.977 41.9714C23.3567 41.5806 25.5593 40.6808 27.6151 39.3715C28.6855 38.6895 29.6475 37.8733 30.4833 36.8913C30.7646 36.5596 30.8538 36.1847 30.7303 35.7651C30.5615 35.1883 30.2678 34.6764 29.9343 34.1919C29.7779 33.9641 29.4197 33.879 29.2509 34.065C28.9696 34.3736 28.7514 34.2424 28.503 34.0448C28.3054 33.8891 28.1146 33.7276 27.9403 33.543C27.3969 32.9676 27.1128 32.2409 26.8479 31.4997C26.111 29.4391 24.9829 27.5775 24.1224 25.5789C24.0922 25.5097 24.0415 25.4102 23.9893 25.4001C23.7684 25.3626 23.7739 25.191 23.7505 25.0252C23.5296 23.4606 23.0945 21.9811 22.2437 20.6516C21.6344 19.6985 21.1856 18.6718 21.0484 17.5153C21.0319 17.3725 20.9962 17.2197 20.8892 17.1101C20.7739 17.1822 20.8055 17.3408 20.6655 17.3898C20.6449 17.1404 20.7547 16.8981 20.6696 16.6544C20.3334 15.6883 20.1975 14.7265 20.4528 13.6897C20.6723 12.8014 20.7382 11.8713 20.8809 10.9614C21.0168 10.0905 21.0978 10.066 21.8155 10.5202C22.9065 11.2109 23.9962 11.9088 25.2491 12.2506C25.6814 12.3688 26.111 12.4078 26.5501 12.2924C27.8195 11.9564 29.0643 11.5498 30.2459 10.9528C30.6233 10.7625 31.0116 10.6053 31.4165 10.4914C31.599 10.4394 31.7157 10.4149 31.7266 10.7149C31.7445 11.2196 32.0231 11.3767 32.4746 11.1994C32.6447 11.133 32.8108 11.0537 32.981 10.9845C33.2074 10.8922 33.2637 10.7293 33.1717 10.5C33.0894 10.2938 33.0468 10.0789 32.6557 9.93331V9.93187ZM32.6489 9.37526C32.6983 9.50071 32.5844 9.51369 32.5048 9.53965C32.4746 9.54974 32.4691 9.56848 32.4924 9.58146C32.5967 9.63337 32.7147 9.68817 32.5363 9.79343C32.4499 9.84535 31.7568 9.82516 32.3497 9.55983C32.3854 9.54397 32.1246 9.58435 32.0752 9.58002C32.0052 9.57281 31.9037 9.61751 31.8913 9.50792C31.8817 9.41852 31.9778 9.38679 32.045 9.36516C32.1562 9.33056 32.6022 9.25846 32.6489 9.37526ZM32.5651 9.0883C32.6063 9.23683 31.7706 9.33633 31.7472 9.17771C31.7294 9.0537 31.879 9.05802 31.9682 9.0436C32.1809 9.01044 32.5006 8.85326 32.5651 9.0883ZM32.4293 8.67301C32.4677 8.68743 32.5048 8.74511 32.4732 8.78116C32.3154 8.95852 32.0546 8.92824 31.8433 8.94266C31.433 8.97006 32.2275 8.59947 32.4279 8.67301H32.4293ZM30.9773 8.29953C30.8552 8.19427 30.8305 8.00104 30.8648 7.83089C30.9211 7.54393 31.4041 7.30024 31.7445 7.37522C31.9448 7.41992 32.1479 7.79484 32.1027 8.05296C32.0793 8.18706 31.9942 8.27358 31.868 8.29809C31.7129 8.32838 31.5537 8.34424 31.3685 8.37019C31.4755 8.18562 31.6594 8.23609 31.7541 8.07891C31.5633 8.00104 31.422 8.09333 31.2724 8.16543C31.1722 8.21446 31.0748 8.38317 30.9773 8.29953ZM14.1825 2.91082C14.1413 2.47823 14.2305 2.05716 14.3815 1.65773C14.4968 1.35059 14.7095 1.14294 15.0347 1.0694C15.2667 1.01749 15.4464 1.06219 15.6097 1.25254C15.8568 1.53949 16.1573 1.75579 16.4949 1.91008C16.6321 1.97209 16.7872 2.04707 16.8984 1.87259C16.9972 1.71686 16.8915 1.59429 16.7996 1.48325C16.4949 1.11266 16.0887 0.95837 15.6427 0.892038C15.5247 0.874734 15.3737 0.870408 15.3641 0.721883C15.3559 0.58922 15.5123 0.582011 15.607 0.548845C16.1477 0.364271 16.7035 0.344083 17.2579 0.440696C17.9263 0.557497 18.3846 0.969906 18.6111 1.64043C18.7744 2.12782 18.9212 2.62243 19.0516 3.11991C19.429 4.55613 19.8352 5.97072 21.1554 6.79698C21.1197 6.85466 21.1088 6.88639 21.1005 6.88494C20.3649 6.78112 19.6252 6.8388 18.8883 6.82294C18.596 6.81717 18.3476 6.70181 18.1486 6.47254C18.0264 6.33266 17.9702 6.17981 18.0059 5.97937C18.0594 5.68088 18.0896 5.37662 17.9729 5.08102C17.9386 4.99594 17.8988 4.89933 17.7973 4.91663C17.6875 4.93538 17.7012 5.05073 17.6943 5.13725C17.6765 5.34202 17.7081 5.54534 17.7643 5.73712C17.9331 6.30382 17.6916 6.76093 17.4212 7.22525C17.4899 5.99812 17.0123 4.98873 16.3124 4.06874C15.8307 3.43426 15.4176 2.77239 15.4245 1.91729C15.4245 1.87403 15.4108 1.82789 15.3984 1.78607C15.3257 1.53805 15.2076 1.28714 14.9414 1.29003C14.6477 1.29435 14.5928 1.59284 14.5613 1.83366C14.5283 2.07591 14.5393 2.32826 14.5475 2.57484C14.5613 3.00311 14.5777 3.42705 14.4981 3.85244C14.4336 4.2014 14.4776 4.54315 14.6244 4.87337C14.7232 5.09544 14.8014 5.33192 14.8687 5.56697C15.0032 6.04282 15.0992 6.11348 15.5823 6.08176C15.7031 6.07455 15.8664 5.96928 15.9391 6.10483C16.0214 6.25768 15.9528 6.44081 15.8526 6.5778C15.5096 7.05077 15.0196 7.22381 14.4803 7.28005C14.3321 7.29591 14.3335 7.18343 14.3458 7.07817C14.5173 5.678 14.3115 4.29513 14.1797 2.90794L14.1825 2.91082ZM15.784 1.12852C16.2095 1.17323 16.4812 1.33473 16.6898 1.62168C16.7213 1.66494 16.7625 1.71974 16.7035 1.76588C16.6774 1.78607 16.6212 1.78463 16.5869 1.77021C16.2891 1.64476 16.0338 1.46162 15.7827 1.12708L15.784 1.12852ZM15.4862 5.90728C15.231 5.94188 15.0896 5.84094 15.0361 5.60013C14.9592 5.25838 14.8316 4.93826 14.7012 4.61814C14.634 4.45087 14.5942 4.27206 14.6258 4.09037C14.7328 3.47608 14.7054 2.85747 14.6807 2.23886C14.6711 2.01102 14.6861 1.78607 14.7877 1.58131C14.881 1.39385 14.999 1.37078 15.1267 1.55391C15.2035 1.66494 15.2625 1.78607 15.2639 1.92594C15.2721 2.75941 15.6358 3.43138 16.1216 4.05576C16.6349 4.71475 17.0452 5.43142 17.2113 6.28363C17.2881 6.68018 17.247 7.06663 17.1756 7.45453C17.1578 7.54826 17.1015 7.64055 17.1797 7.77609C17.5873 7.42858 17.7314 6.93253 17.9331 6.39611C18.2748 6.97579 18.7908 7.0104 19.3247 6.97579C19.5813 6.95849 19.7103 7.03491 19.6609 7.33629C19.6156 7.61315 19.606 7.89434 19.5703 8.17264C19.4262 9.30604 18.8691 9.72422 17.8494 9.96936C17.402 10.0775 16.9354 10.0905 16.4743 10.0602C15.983 10.0285 15.6166 9.79344 15.4423 9.29018C15.2598 8.76241 15.0965 8.22888 15.0608 7.65929C15.0443 7.40839 15.1253 7.26851 15.3421 7.16757C15.6811 7.00896 16.0214 6.80708 16.0695 6.38169C16.1038 6.08176 16.2012 5.90872 16.4826 5.83806C16.1326 5.76164 15.8101 5.86402 15.4849 5.90728H15.4862ZM17.8618 5.07957C17.9263 5.32039 17.9812 5.48045 17.8933 5.65781C17.8329 5.49919 17.8 5.33625 17.8618 5.07957ZM0.612682 10.451C0.353308 9.93187 0.287435 9.38391 0.464468 8.81721C0.782854 7.79196 1.84094 7.18632 2.85236 7.44732C3.83222 7.70111 4.47585 8.75088 4.31117 9.82804C4.29333 9.94917 4.23569 10.5288 3.30798 11.1994C3.21054 11.27 3.06919 11.2498 2.96352 11.2051C1.7833 10.7019 1.69547 10.9961 1.69547 10.9961C1.33179 10.7725 0.806184 10.8389 0.612682 10.451ZM1.26318 11.2845C1.17123 11.1806 1.03948 11.0653 1.03948 11.0653C1.29474 11.1835 1.86427 11.6478 1.86427 11.6478C1.50608 11.655 1.32082 11.3479 1.26455 11.283L1.26318 11.2845ZM2.0262 11.6493C1.75173 11.3335 1.09163 10.9975 1.16437 10.9326C1.22887 10.8735 2.31577 11.4575 2.58201 11.6594C2.42693 11.6911 2.08247 11.7142 2.0262 11.6507V11.6493ZM14.0357 10.4438C13.6281 10.1453 13.484 10.1496 13.0942 10.4899C12.0361 11.4142 10.8559 12.0977 9.5563 12.5736C9.0101 12.774 8.47351 12.8216 7.91771 12.6846C6.80336 12.4092 5.69175 12.1251 4.63642 11.6435C4.44429 11.5555 4.24118 11.5685 4.0367 11.5945C3.37248 11.681 2.73434 11.6046 2.1456 11.2383C2.10031 11.2095 2.05365 11.1821 2.01111 11.1489C1.99739 11.1374 1.88897 11.0653 1.96033 11.0408C2.10717 10.9903 3.17898 11.5584 3.86104 11.2816C3.65244 11.159 3.68126 11.0725 3.82536 10.9139C4.0861 10.6269 4.32764 10.5678 4.69817 10.6961C5.7096 11.0451 6.77042 10.9787 7.81753 11.0076C8.17434 11.0177 8.57918 10.9787 8.95658 11.0754C8.97991 11.0811 8.99226 11.11 8.98128 11.1316C8.8811 11.3248 8.67799 11.4387 8.57507 11.6002C8.52292 11.6824 8.44057 11.7675 8.50782 11.8728C8.5833 11.9925 8.69446 11.9463 8.79876 11.9146C9.14596 11.8065 9.35731 11.531 9.34084 11.1446C9.3326 10.9629 9.4273 10.8764 9.5261 10.7798C10.0586 10.2534 10.672 9.83814 11.2566 9.38247C11.8934 8.88787 12.4547 8.29233 13.1299 7.84819C13.4455 7.64055 13.7804 7.51077 14.1454 7.45741C14.2278 7.44588 14.3554 7.38531 14.3513 7.56556C14.3266 8.5317 14.2484 9.49062 14.037 10.4438H14.0357ZM9.14047 11.234C9.15557 11.531 9.01696 11.6911 8.70407 11.756C8.64506 11.6911 8.97854 11.3926 9.14047 11.234ZM15.1527 15.0769C15.2351 14.8937 15.2351 14.676 15.209 14.477C15.1802 14.2477 15.2735 14.167 15.4629 14.0963C16.2026 13.8209 17.461 13.6407 18.6413 13.6681C19.0804 13.7041 19.5607 13.7243 20.0342 13.8411C20.192 13.88 20.2579 13.9565 20.2318 14.1194C20.1399 14.6919 20.1701 15.26 20.2853 15.8267C20.3238 16.0142 20.2483 16.1757 20.1536 16.3329C19.2547 17.8513 17.0178 18.1065 15.8074 16.8217C15.6578 16.6631 15.5315 16.4785 15.3929 16.3055C15.102 15.9406 14.9345 15.5571 15.15 15.074L15.1527 15.0769ZM11.1661 26.0605C11.3376 26.3518 11.4392 26.6589 11.3678 27.0829C11.1345 26.7238 11.118 26.3994 11.1661 26.0605ZM29.7052 34.1501C29.7052 34.1501 29.7326 34.1688 29.7463 34.1789C29.771 34.1977 29.7971 34.2164 29.8218 34.2366C29.8493 34.2784 29.8767 34.3202 29.9042 34.362C29.9179 34.3894 29.9316 34.4168 29.9453 34.4442C29.9728 34.4846 30.0002 34.5235 30.0277 34.5639C30.0647 34.6375 30.1018 34.7096 30.1388 34.7831C30.1622 34.8264 30.1855 34.8711 30.2088 34.9143C30.2308 34.959 30.2514 35.0037 30.2733 35.0499C30.3502 35.2099 30.4339 35.3671 30.5039 35.5315C30.7084 36.0174 30.6795 36.4486 30.309 36.8625C29.5638 37.6945 28.7582 38.4458 27.8374 39.0557C25.5593 40.564 23.0945 41.5446 20.4198 41.908C17.9263 42.2468 15.4849 42.081 13.0558 41.311C10.436 40.479 8.01652 39.3066 5.9525 37.3917C5.5106 36.9807 5.09615 36.5423 4.70229 36.0809C4.48409 35.8257 4.33999 35.5257 4.24118 35.1998C4.18491 35.0124 4.17119 34.8278 4.31803 34.6129C4.30568 34.9807 4.47448 35.2071 4.6817 35.4248C7.49914 38.3938 10.8051 40.4386 14.752 41.2158C19.4976 42.1502 23.8699 41.0932 27.906 38.365C28.6361 37.8718 29.3264 37.3196 29.9865 36.7255C30.4462 36.3131 30.5094 36.0621 30.3172 35.4536C30.2802 35.3368 30.2404 35.22 30.202 35.1032C30.1814 35.0585 30.1622 35.0138 30.1416 34.9691C30.121 34.9273 30.099 34.884 30.0784 34.8422C30.0428 34.7687 30.0071 34.6937 29.97 34.6187C29.9426 34.5783 29.9151 34.538 29.8877 34.4976C29.874 34.4702 29.8589 34.4414 29.8451 34.414C29.8149 34.375 29.7848 34.3361 29.7546 34.2972C29.7395 34.2712 29.723 34.2452 29.7079 34.2193C29.6873 34.1977 29.6695 34.1731 29.7038 34.1515L29.7052 34.1501ZM29.675 34.4255C29.9124 34.7918 30.11 35.1753 30.2267 35.6007C30.3159 35.9237 30.2829 36.2179 30.0167 36.4587C27.2006 38.9908 24.0003 40.678 20.3073 41.2014C16.3151 41.7681 12.5768 40.9116 9.09107 38.8063C7.49365 37.8416 6.06092 36.6519 4.74758 35.295C4.47997 35.0181 4.40998 34.7557 4.58152 34.3981C4.73111 34.0866 4.87795 33.7752 5.06459 33.4853C5.16066 33.3368 5.26633 33.2863 5.40082 33.4334C5.49139 33.5329 5.51335 33.5978 5.35965 33.6757C4.97539 33.8718 4.915 34.0607 5.06459 34.4846C5.09341 34.5682 5.13595 34.649 5.16066 34.7341C5.34729 35.3859 5.41866 35.4753 6.03759 35.3325C6.81434 35.1523 7.43052 35.3383 8.09474 35.8185C10.7269 37.7248 13.683 38.6678 16.8682 38.8048C20.6737 38.9692 24.1801 37.9439 27.3859 35.7882C27.6274 35.6252 27.755 35.6411 27.9225 35.879C28.5702 36.799 28.9215 36.4846 29.406 35.8314C29.4527 35.7694 29.4966 35.706 29.5405 35.6425C29.9083 35.1133 29.8602 34.8711 29.3209 34.538C29.2756 34.5091 29.2317 34.4774 29.1782 34.4399C29.3662 34.1429 29.5117 34.1731 29.6763 34.4269L29.675 34.4255ZM18.4313 21.9307C19.1847 23.4274 20.0685 24.8348 21.1074 26.1326C21.5699 26.7094 21.928 27.3828 22.4564 27.8933C23.5872 28.9863 24.3667 30.3418 25.1325 31.7117C25.5414 32.4442 26.0629 33.0873 26.5227 33.778C26.8301 34.2395 27.1128 34.7182 27.4243 35.1753C27.5643 35.3801 27.5012 35.4709 27.3269 35.5906C25.455 36.8668 23.4321 37.7579 21.2487 38.2396C19.923 38.5323 18.5836 38.6765 16.7762 38.639C13.742 38.5395 10.5526 37.4912 7.70362 35.3498C7.5362 35.2229 7.44287 35.1378 7.64324 34.9561C7.72009 34.8869 7.78047 34.773 7.80243 34.6692C7.92732 34.0664 8.27589 33.5935 8.59977 33.1032C9.29418 32.0477 9.98173 30.9863 10.6665 29.9236C11.0947 29.2588 11.5627 28.6359 12.1377 28.0995C12.5878 27.6799 12.9638 27.1809 13.2918 26.6532C14.2703 25.0771 15.4849 23.6812 16.4537 22.0965C16.6335 21.8023 16.8078 21.5053 16.9835 21.2097C17.0548 21.09 17.1427 20.9602 17.2881 21.0265C17.6106 21.1765 17.87 21.0424 18.1307 20.8694C18.1815 20.8347 18.2419 20.7727 18.2954 20.842C18.3188 20.8722 18.3092 20.9515 18.2899 20.9977C18.1541 21.3423 18.2913 21.6437 18.4354 21.9307H18.4313ZM23.7629 26.4845C23.826 26.868 23.9029 27.2516 23.7739 27.7246C23.616 27.2559 23.6709 26.8709 23.7629 26.4845ZM20.3691 16.3098C20.5351 16.6054 20.6024 16.8851 20.5557 17.198C20.5118 17.4951 20.3485 17.7604 20.3485 18.0993C20.612 17.9493 20.6833 17.671 20.8411 17.4389C20.9592 17.5758 20.9482 17.7388 20.9715 17.8801C21.1129 18.7107 21.4093 19.4735 21.8265 20.1931C22.3274 21.0568 22.8461 21.9148 23.1453 22.8881C23.4267 23.8024 23.6051 24.7411 23.675 25.6942C23.7066 26.1326 23.5858 26.584 23.5337 27.0295C23.5104 27.2343 23.531 27.4347 23.5982 27.6265C23.6339 27.7303 23.6901 27.8486 23.8233 27.827C23.9427 27.8068 23.9468 27.6856 23.9564 27.5861C24.003 27.1247 23.9536 26.6661 23.9042 26.2076C23.8836 26.0129 23.8246 25.811 23.9605 25.6121C23.9989 25.6582 24.036 25.6856 24.0524 25.7231C24.8978 27.6409 25.9463 29.4578 26.6736 31.4362C26.8013 31.7823 26.922 32.1327 27.0689 32.4687C27.5121 33.4853 28.2546 34.1861 29.2043 34.6677C29.6928 34.9143 29.7244 35.0931 29.3895 35.5373C29.2564 35.7132 29.1343 35.8992 28.9915 36.0679C28.7418 36.3621 28.514 36.3664 28.2573 36.0838C28.0048 35.8069 27.7825 35.5027 27.5835 35.1825C27.0442 34.3159 26.4417 33.494 25.8777 32.6461C25.3027 31.7794 24.7921 30.8652 24.2679 29.9625C23.8068 29.1694 23.192 28.5148 22.6156 27.8183C21.1129 25.9985 19.6678 24.1297 18.6111 21.9653C18.3819 21.4966 18.3599 21.0943 18.5877 20.6271C18.7675 20.2608 19.0241 19.9436 19.1998 19.5773C19.1779 19.5586 19.1559 19.5398 19.1339 19.5225C18.8691 19.8181 18.6056 20.1123 18.3407 20.4079C18.187 20.5795 18.0415 20.7626 17.8275 20.8593C17.6875 20.9227 17.553 20.9645 17.3965 20.8895C17.1632 20.7785 16.9835 20.8665 16.8558 21.0943C15.6413 23.2645 14.026 25.1348 12.7017 27.2242C12.5466 27.4679 12.3545 27.6799 12.1377 27.8673C11.4433 28.4686 10.9136 29.217 10.4236 30C9.71 31.1378 8.98952 32.2697 8.21551 33.3627C7.97672 33.6987 7.79694 34.065 7.68029 34.4702C7.53482 34.9763 7.37426 35.083 6.86237 35.0758C6.51791 35.0701 6.18168 35.1508 5.84271 35.2027C5.56001 35.2474 5.39258 35.1494 5.34043 34.8365C5.31436 34.685 5.23751 34.5423 5.1881 34.3952C5.06596 34.0362 5.19496 33.8213 5.55589 33.7939C5.68352 33.7838 5.81252 33.7982 5.94152 33.804C6.46576 33.8271 6.87472 33.6165 7.17115 33.1551C7.5458 32.5725 7.8189 31.9381 8.06318 31.2892C8.66976 29.6727 9.42318 28.1327 10.2905 26.6561C10.414 26.4455 10.5595 26.2494 10.705 26.0547C10.7612 25.9783 10.8422 25.8803 10.9437 25.9264C11.0343 25.9668 10.9986 26.0865 10.9986 26.1715C10.9973 26.4426 11 26.7137 11.118 26.9646C11.1757 27.0887 11.2457 27.2271 11.3939 27.2055C11.5695 27.1795 11.5407 27.0093 11.5366 26.8796C11.5243 26.5162 11.4611 26.1615 11.2621 25.8543C11.1757 25.7216 11.1565 25.5991 11.1853 25.4433C11.398 24.3042 11.8564 23.2616 12.3394 22.232C13.0448 20.728 13.7488 19.2255 14.3321 17.6624C14.3472 17.622 14.3719 17.5859 14.4144 17.5037C14.6587 18.0286 14.9277 18.5002 15.2625 18.9241C15.6509 19.4158 16.0242 19.9234 16.5512 20.2695L16.5457 20.2378C16.4867 19.9883 16.311 19.8513 16.1793 19.6509C15.8019 19.0755 15.4149 18.5088 15.1129 17.8844C15.0388 17.7301 14.8728 17.5903 15.0471 17.3581C15.1075 17.2788 14.9785 17.0466 14.9428 16.8823C14.8728 16.5636 14.8399 16.2435 14.9565 15.8238C15.5068 17.0149 16.3247 17.746 17.5338 17.8008C18.7058 17.8542 19.687 17.397 20.3677 16.3098H20.3691ZM20.8233 10.5865C20.6559 11.5498 20.4967 12.513 20.3416 13.4777C20.3114 13.6666 20.2922 13.769 20.0479 13.7142C18.4876 13.3667 16.9382 13.4561 15.419 13.9608C15.1075 14.0646 14.9977 13.9867 14.9839 13.6882C14.9757 13.4993 14.7644 13.2672 15.0937 13.1201C15.1692 13.0869 15.0498 12.8966 14.9867 12.7971C14.6875 12.3256 14.4652 11.8194 14.2854 11.2859C14.1468 10.8749 14.166 10.4683 14.2456 10.0559C14.3856 9.32479 14.4583 8.58793 14.4501 7.84242C14.4501 7.77465 14.4666 7.70832 14.4652 7.64055C14.4625 7.43578 14.5942 7.40983 14.7424 7.39829C14.9249 7.38387 14.9153 7.52519 14.9222 7.64776C14.9579 8.24907 15.1171 8.81865 15.3106 9.38103C15.478 9.86553 15.8334 10.1453 16.2932 10.1914C17.0301 10.2664 17.7712 10.2433 18.4738 9.93042C19.0694 9.6651 19.5086 9.26134 19.628 8.55477C19.6993 8.13371 19.8133 7.71841 19.7707 7.28582C19.746 7.03635 19.8531 6.97002 20.0644 6.97435C20.3114 6.97867 20.2606 7.1272 20.2373 7.29591C20.1234 8.11064 20.1618 8.91238 20.4583 9.68529C20.5324 9.87995 20.6051 10.0818 20.7904 10.2001C20.8576 10.3226 20.8466 10.4481 20.8233 10.5865ZM31.647 10.3082C30.8058 10.4784 30.0757 10.9499 29.2866 11.2628C28.4151 11.6075 27.5327 11.916 26.6297 12.1597C25.9312 12.3472 25.2711 12.1756 24.6233 11.9103C23.7025 11.5325 22.8393 11.0364 21.998 10.4986C21.6248 10.2606 21.2666 9.99531 20.7986 10.1958C20.837 10.128 20.7917 10.0746 20.7615 10.0213C20.2771 9.15896 20.2675 8.22599 20.3828 7.2714C20.4089 7.05654 20.4939 7.00175 20.697 7.0104C21.1719 7.03059 21.5561 7.21949 21.9047 7.55547C22.9161 8.5317 24.036 9.36516 25.1421 10.2145C25.5085 10.4957 25.9079 10.6154 26.38 10.4798C27.2926 10.2174 28.2367 10.1626 29.1741 10.066C29.9728 9.98378 30.5848 9.58291 30.9787 8.83307C31.1516 8.50286 31.8062 8.31828 32.255 8.4769C32.1328 8.60524 31.9874 8.63408 31.8419 8.63696C31.6292 8.64273 31.5331 8.82009 31.3973 8.93978C31.3479 8.98304 31.3781 9.01476 31.4124 9.06956C31.5867 9.35507 31.6662 9.68384 31.7747 9.99964C31.8213 10.1381 31.8309 10.2707 31.6484 10.3068L31.647 10.3082ZM32.6077 11.022C32.5418 11.0566 32.4663 11.0754 32.395 11.0984C32.2632 11.1417 32.1178 11.2196 32.0121 11.0682C31.905 10.9153 31.7678 10.7264 31.8748 10.5447C31.9997 10.3327 31.9558 10.1655 31.8982 9.97224C31.8707 9.8814 31.8007 9.72566 31.8186 9.56416C31.8447 9.95494 32.3414 9.7819 32.4169 10.1035C32.4334 10.1712 32.5144 10.1035 32.5597 10.0516C32.5679 10.0429 32.5734 10.0342 32.5816 10.0256C32.9055 10.1222 33.0935 10.4265 33.0729 10.6831C33.051 10.9528 32.7792 10.9326 32.6063 11.022H32.6077Z" fill="#8426D7"/>
<path d="M1.16281 10.9314C1.09145 10.9977 1.75155 11.3337 2.02464 11.6481C2.07954 11.7115 2.42537 11.6899 2.58045 11.6567C2.31421 11.4549 1.22731 10.8709 1.16281 10.93V10.9314Z" stroke="#8426D7" stroke-width="0.428571" mask="url(#path-1-outside-1_4282_16817)"/>
<path d="M16.7024 1.76694C16.7614 1.72224 16.7203 1.666 16.6887 1.62275C16.4801 1.33579 16.2084 1.17429 15.783 1.12959C16.0327 1.46268 16.2894 1.64582 16.5872 1.77271C16.6215 1.78713 16.6777 1.78857 16.7038 1.76839L16.7024 1.76694Z" stroke="#8426D7" stroke-width="0.428571" mask="url(#path-1-outside-1_4282_16817)"/>
<path d="M1.26247 11.2838C1.32011 11.3487 1.50538 11.6544 1.86219 11.6486C1.86219 11.6486 1.29266 11.1843 1.03741 11.0661C1.03741 11.0661 1.16915 11.1814 1.2611 11.2853L1.26247 11.2838Z" stroke="#8426D7" stroke-width="0.428571" mask="url(#path-1-outside-1_4282_16817)"/>
<path d="M2.96237 11.2055C3.06667 11.2502 3.20802 11.2704 3.30683 11.1998C4.23454 10.5292 4.29218 9.94956 4.31002 9.82843C4.47333 8.75127 3.83107 7.7015 2.85121 7.44771C1.84116 7.18527 0.783076 7.79234 0.463318 8.8176C0.287657 9.3843 0.352157 9.93226 0.611532 10.4514C0.805033 10.8393 1.33064 10.7729 1.69432 10.9964C1.69432 10.9964 1.78215 10.7023 2.96237 11.2055Z" stroke="#8426D7" stroke-width="0.428571" mask="url(#path-1-outside-1_4282_16817)"/>
<path d="M17.8623 5.0808C17.8006 5.33747 17.8335 5.50042 17.8939 5.65904C17.9831 5.48167 17.9282 5.32161 17.8623 5.0808Z" stroke="#8426D7" stroke-width="0.428571" mask="url(#path-1-outside-1_4282_16817)"/>
<path d="M14.3483 7.07876C14.336 7.18402 14.3346 7.2965 14.4828 7.28064C15.0208 7.22296 15.5107 7.05136 15.8552 6.57839C15.954 6.4414 16.024 6.25827 15.9416 6.10542C15.8675 5.96987 15.7042 6.07513 15.5848 6.08234C15.1017 6.11407 15.0057 6.04341 14.8712 5.56755C14.8039 5.33107 14.7257 5.09602 14.6269 4.87396C14.4801 4.54374 14.4361 4.20343 14.5006 3.85303C14.5802 3.42764 14.5624 3.00226 14.55 2.57543C14.5418 2.32885 14.5308 2.07794 14.5638 1.83424C14.5953 1.59343 14.6502 1.29494 14.9439 1.29061C15.2101 1.28629 15.3268 1.53864 15.4009 1.78666C15.4133 1.82992 15.4284 1.87462 15.427 1.91788C15.4215 2.77298 15.8332 3.43485 16.3149 4.06933C17.0148 4.99076 17.4924 5.99871 17.4237 7.22584C17.6941 6.76152 17.9356 6.30297 17.7668 5.73771C17.7092 5.54592 17.6776 5.3426 17.6968 5.13784C17.7051 5.05132 17.6914 4.93596 17.7998 4.91722C17.9 4.89991 17.9411 4.99653 17.9754 5.0816C18.0935 5.37577 18.0619 5.68003 18.0084 5.97996C17.9727 6.1804 18.029 6.33181 18.1511 6.47312C18.3501 6.70096 18.5985 6.81632 18.8908 6.82353C19.6277 6.83939 20.3674 6.78171 21.103 6.88553C21.1099 6.88553 21.1222 6.85525 21.1579 6.79757C19.8377 5.97131 19.4315 4.55672 19.0541 3.1205C18.9237 2.62301 18.7769 2.12697 18.6136 1.64102C18.3885 0.970493 17.9288 0.558085 17.2604 0.441284C16.706 0.34467 16.1502 0.364858 15.6095 0.549433C15.5148 0.581156 15.3584 0.589808 15.3666 0.722471C15.3762 0.869554 15.5272 0.87388 15.6452 0.892626C16.0912 0.960399 16.4974 1.11469 16.8021 1.48384C16.894 1.59487 16.9997 1.71744 16.9009 1.87318C16.7897 2.04766 16.6346 1.97267 16.4974 1.91067C16.1584 1.75638 15.8579 1.54008 15.6122 1.25312C15.4489 1.06278 15.2692 1.01808 15.0372 1.06999C14.712 1.14209 14.4993 1.34974 14.384 1.65832C14.233 2.05775 14.1438 2.48026 14.185 2.91141C14.3181 4.2986 14.524 5.68147 14.3511 7.08164L14.3483 7.07876Z" stroke="#8426D7" stroke-width="0.428571" mask="url(#path-1-outside-1_4282_16817)"/>
<path d="M31.2705 8.16433C31.4201 8.09079 31.5628 7.99995 31.7522 8.07782C31.6575 8.23499 31.4722 8.18452 31.3665 8.3691C31.5518 8.34314 31.7096 8.32728 31.8661 8.297C31.9923 8.27248 32.0774 8.18597 32.1007 8.05186C32.1447 7.79374 31.9429 7.41883 31.7426 7.37413C31.4022 7.29914 30.9191 7.54139 30.8629 7.82979C30.8299 7.99995 30.8546 8.19317 30.9754 8.29844C31.0728 8.38207 31.1703 8.21336 31.2705 8.16433Z" stroke="#8426D7" stroke-width="0.428571" mask="url(#path-1-outside-1_4282_16817)"/>
<path d="M20.4603 9.68571C20.1639 8.91281 20.1241 8.11106 20.2394 7.29634C20.2627 7.12907 20.3135 6.9791 20.0665 6.97477C19.8551 6.97045 19.7481 7.03678 19.7728 7.28624C19.8153 7.7174 19.7001 8.13413 19.6301 8.55519C19.5107 9.26321 19.0715 9.66697 18.4759 9.93085C17.7733 10.2438 17.0336 10.2668 16.2952 10.1918C15.8355 10.1443 15.4787 9.86596 15.3126 9.38145C15.1191 8.81908 14.96 8.24949 14.9243 7.64818C14.9174 7.52561 14.927 7.38574 14.7445 7.39872C14.5963 7.41025 14.4645 7.43621 14.4673 7.64097C14.4673 7.7073 14.4508 7.77508 14.4522 7.84285C14.4604 8.58836 14.3877 9.32521 14.2477 10.0563C14.1695 10.4687 14.1489 10.8754 14.2875 11.2863C14.4673 11.8199 14.691 12.326 14.9888 12.7975C15.0519 12.897 15.1713 13.0859 15.0958 13.1205C14.7664 13.2676 14.9778 13.4998 14.986 13.6887C14.9984 13.9886 15.1095 14.065 15.4211 13.9612C16.9389 13.4565 18.4883 13.3657 20.05 13.7146C20.2943 13.7694 20.3135 13.6656 20.3437 13.4781C20.4988 12.5135 20.6593 11.5488 20.8254 10.587C20.8487 10.4485 20.8611 10.3245 20.7924 10.2005C20.6072 10.0823 20.5358 9.88038 20.4603 9.68571Z" stroke="#8426D7" stroke-width="0.428571" mask="url(#path-1-outside-1_4282_16817)"/>
<path d="M23.7748 27.7253C23.9038 27.2523 23.827 26.8687 23.7639 26.4852C23.6719 26.8716 23.617 27.2566 23.7748 27.7253Z" stroke="#8426D7" stroke-width="0.428571" mask="url(#path-1-outside-1_4282_16817)"/>
<path d="M32.5841 10.0253C32.5772 10.034 32.5704 10.0427 32.5622 10.0513C32.5169 10.1032 32.4345 10.1695 32.4194 10.1032C32.3439 9.78309 31.8485 9.95469 31.8211 9.56391C31.8032 9.72686 31.8746 9.88115 31.9007 9.97199C31.9583 10.1638 32.0022 10.3325 31.8773 10.5445C31.7703 10.7262 31.9075 10.9151 32.0146 11.0679C32.1203 11.2193 32.2657 11.1414 32.3975 11.0982C32.4688 11.0751 32.5429 11.0564 32.6102 11.0218C32.7831 10.9324 33.0548 10.9525 33.0768 10.6829C33.0974 10.4262 32.9094 10.122 32.5855 10.0253H32.5841Z" stroke="#8426D7" stroke-width="0.428571" mask="url(#path-1-outside-1_4282_16817)"/>
<path d="M17.5344 17.8009C16.3254 17.7461 15.5075 17.015 14.9572 15.8239C14.8405 16.2421 14.8735 16.5622 14.9434 16.8823C14.9791 17.0467 15.1068 17.2774 15.0477 17.3582C14.8735 17.5903 15.0395 17.7288 15.1136 17.8845C15.4155 18.5089 15.8025 19.0756 16.1799 19.6509C16.3117 19.8514 16.4873 19.9884 16.5464 20.2378L16.5518 20.2696C16.0249 19.9249 15.6516 19.4159 15.2632 18.9242C14.9283 18.5002 14.6594 18.0287 14.4151 17.5038C14.3712 17.586 14.3465 17.6221 14.3327 17.6624C13.7495 19.2241 13.0455 20.7281 12.3401 22.2321C11.857 23.2602 11.3987 24.3042 11.1859 25.4434C11.1571 25.5991 11.1777 25.7217 11.2628 25.8544C11.4618 26.1615 11.5235 26.5148 11.5373 26.8796C11.5414 27.0094 11.5688 27.181 11.3945 27.2055C11.2463 27.2271 11.1763 27.0887 11.1187 26.9647C11.0021 26.7138 10.9979 26.4441 10.9993 26.1716C10.9993 26.0865 11.035 25.9669 10.9444 25.9265C10.8429 25.8803 10.7619 25.9784 10.7056 26.0548C10.5602 26.2495 10.4147 26.4456 10.2912 26.6561C9.42247 28.1342 8.67043 29.6728 8.06385 31.2892C7.81957 31.9396 7.54647 32.574 7.17182 33.1552C6.87539 33.6152 6.46643 33.8271 5.94219 33.8041C5.81319 33.7983 5.68419 33.7839 5.55656 33.794C5.19563 33.8228 5.06663 34.0377 5.18877 34.3953C5.23955 34.5438 5.3164 34.6851 5.3411 34.8365C5.39325 35.1494 5.56068 35.2475 5.84338 35.2028C6.18235 35.1494 6.51858 35.0701 6.86304 35.0759C7.37493 35.0831 7.53412 34.9764 7.68096 34.4703C7.79761 34.0651 7.97739 33.6988 8.21618 33.3628C8.99018 32.2698 9.71067 31.1378 10.4243 30.0001C10.9156 29.2171 11.4439 28.4687 12.1384 27.8674C12.3552 27.6799 12.5487 27.468 12.7024 27.2243C14.0253 25.1348 15.6406 23.2646 16.8565 21.0944C16.9841 20.8665 17.1639 20.7786 17.3972 20.8896C17.5537 20.9646 17.6881 20.9228 17.8281 20.8593C18.0422 20.7627 18.1877 20.5796 18.3414 20.408C18.6049 20.1124 18.8697 19.8182 19.1346 19.5226C19.1566 19.5413 19.1785 19.5601 19.2005 19.5774C19.0248 19.9437 18.7682 20.2609 18.5884 20.6272C18.3592 21.0944 18.3826 21.4967 18.6117 21.9653C19.6685 24.1283 21.1135 25.9986 22.6163 27.8184C23.1913 28.5148 23.8075 29.1695 24.2686 29.9626C24.7928 30.8653 25.3033 31.7795 25.8783 32.6461C26.4424 33.4955 27.0435 34.316 27.5842 35.1826C27.7845 35.5042 28.0055 35.807 28.258 36.0838C28.5146 36.365 28.7424 36.3621 28.9922 36.068C29.1349 35.9007 29.2571 35.7147 29.3902 35.5373C29.7264 35.0932 29.6935 34.9144 29.2049 34.6678C28.2566 34.1876 27.5142 33.4868 27.0695 32.4688C26.9227 32.1314 26.8019 31.7824 26.6743 31.4363C25.947 29.4579 24.8985 27.6424 24.0531 25.7232C24.0366 25.6857 23.9996 25.6583 23.9612 25.6121C23.8253 25.8126 23.8843 26.0144 23.9049 26.2077C23.9543 26.6662 24.0037 27.1233 23.957 27.5862C23.9474 27.6857 23.9433 27.8068 23.8239 27.827C23.6908 27.8486 23.6345 27.7304 23.5989 27.6266C23.5316 27.4348 23.511 27.2329 23.5344 27.0296C23.5865 26.584 23.7073 26.1327 23.6757 25.6943C23.6071 24.7412 23.4273 23.801 23.146 22.8882C22.8468 21.9149 22.3281 21.0569 21.8272 20.1931C21.41 19.4736 21.1135 18.7108 20.9722 17.8802C20.9475 17.7389 20.9598 17.5759 20.8418 17.4389C20.684 17.6711 20.6126 17.9494 20.3491 18.0994C20.3491 17.7619 20.5124 17.4952 20.5564 17.1981C20.6017 16.8852 20.5358 16.604 20.3697 16.3098C19.689 17.3971 18.7092 17.8542 17.5358 17.8009H17.5344Z" stroke="#8426D7" stroke-width="0.428571" mask="url(#path-1-outside-1_4282_16817)"/>
<path d="M29.7562 34.2953C29.7864 34.3342 29.8166 34.3732 29.8468 34.4121C29.8605 34.4395 29.8756 34.4683 29.8893 34.4957C29.9167 34.5361 29.9442 34.5765 29.9716 34.6169C30.0073 34.6918 30.043 34.7654 30.08 34.8404C30.1006 34.8822 30.1226 34.9254 30.1432 34.9673C30.1638 35.012 30.183 35.0567 30.2036 35.1014C30.242 35.2182 30.2818 35.335 30.3188 35.4518C30.511 36.0603 30.4465 36.3112 29.9881 36.7236C29.328 37.3163 28.6377 37.8685 27.9076 38.3631C23.8715 41.0899 19.4992 42.1484 14.7536 41.214C10.8067 40.4367 7.50075 38.392 4.68331 35.4229C4.47609 35.2052 4.30729 34.9788 4.31964 34.6111C4.1728 34.8259 4.18652 35.0091 4.24279 35.198C4.34023 35.5239 4.48569 35.8238 4.7039 36.079C5.09776 36.5405 5.51221 36.9788 5.95411 37.3898C8.01813 39.3048 10.4376 40.4771 13.0574 41.3091C15.4865 42.0806 17.9292 42.245 20.4214 41.9061C23.0975 41.5427 25.5609 40.5622 27.839 39.0539C28.7598 38.4439 29.5654 37.6926 30.3106 36.8606C30.6811 36.4467 30.71 36.0156 30.5055 35.5296C30.4369 35.3652 30.3531 35.2081 30.2749 35.048C30.253 35.0033 30.2324 34.9586 30.2104 34.9125C30.1871 34.8692 30.1638 34.8245 30.1404 34.7812C30.1034 34.7077 30.0663 34.6356 30.0293 34.5621C30.0018 34.5217 29.9744 34.4828 29.9469 34.4424C29.9332 34.415 29.9195 34.3876 29.9058 34.3602C29.8783 34.3184 29.8509 34.2766 29.8234 34.2347C29.7987 34.216 29.774 34.1972 29.7479 34.1771C29.7342 34.167 29.7123 34.1453 29.7068 34.1482C29.6725 34.1698 29.6903 34.1944 29.7109 34.216C29.726 34.2419 29.7425 34.2679 29.7575 34.2939L29.7562 34.2953Z" stroke="#8426D7" stroke-width="0.428571" mask="url(#path-1-outside-1_4282_16817)"/>
<path d="M11.165 26.0614C11.117 26.4003 11.1335 26.7247 11.3668 27.0838C11.4381 26.6598 11.3366 26.3541 11.165 26.0614Z" stroke="#8426D7" stroke-width="0.428571" mask="url(#path-1-outside-1_4282_16817)"/>
<path d="M32.6557 9.93187C32.8794 9.64635 32.6928 9.67519 32.7243 9.58435C32.7559 9.49494 32.7847 9.50792 32.7957 9.43006C32.8149 9.2873 32.5912 9.29163 32.6832 9.17771C32.8341 8.99025 32.5638 8.95708 32.6008 8.86191C32.7285 8.53458 32.4046 8.57928 32.4142 8.46969C32.4293 8.28944 32.2179 8.25195 32.1603 8.22455C32.1603 8.22455 32.2207 8.14524 32.2289 8.04863C32.2536 7.75735 32.2207 7.41848 31.8996 7.26275C31.6223 7.12864 31.0281 7.29591 30.8291 7.54826C30.6617 7.76023 30.6809 8.11208 30.9142 8.45527C30.9924 8.57063 30.9938 8.64417 30.9266 8.74799C30.4998 9.39112 29.9741 9.86265 29.1892 9.94196C28.2409 10.0371 27.283 10.0876 26.3607 10.3544C25.9463 10.4741 25.6087 10.412 25.2807 10.151C25.1956 10.0833 25.1037 10.0227 25.0186 9.95494C23.6833 8.88354 22.3466 7.81791 21.0937 6.62971C20.2744 5.85248 19.7337 4.97575 19.4304 3.89282C19.2218 3.14875 19.0118 2.40469 18.784 1.66639C18.5781 1.00163 18.1527 0.543077 17.5104 0.345524C16.7872 0.123458 16.0695 0.197 15.3668 0.470978C15.2749 0.507027 15.1404 0.564707 15.1569 0.652669C15.209 0.925205 15.0237 0.894922 14.8838 0.933856C14.6189 1.00596 14.4281 1.17611 14.2964 1.42269C14.1592 1.68081 14.0796 1.95767 14.0302 2.24895C13.9149 2.93101 14.1002 3.59288 14.1386 4.26341C14.1907 5.1834 14.3019 6.10339 14.1496 7.02482C14.1235 7.18344 14.1152 7.33196 13.9121 7.36513C13.5224 7.42713 13.193 7.63622 12.8733 7.87126C12.0279 8.48843 11.2896 9.24836 10.4305 9.84679C10.0215 10.1323 9.46847 10.5015 9.13773 10.8966C9.13773 10.8966 9.02794 10.8836 8.90168 10.8807C7.98084 10.8619 7.06136 10.8807 6.14051 10.8158C5.56962 10.7754 5.02617 10.6457 4.48546 10.4712C4.35234 10.4279 4.30431 10.4741 4.31529 10.3097C4.3496 10.1424 4.35646 10.0703 4.37293 10.0011C4.68994 8.6211 3.84183 7.34926 2.4832 7.22958C1.59117 7.15027 0.701886 7.77754 0.354681 8.61821C0.0609975 9.32767 0.299786 10.0011 0.415064 10.6788C0.458979 10.9369 0.777364 11.0061 0.953025 11.1835C1.00655 11.2383 1.07242 11.2816 1.11908 11.3421C1.49236 11.8223 2.0015 11.8598 2.523 11.7906C3.11997 11.7113 3.7238 11.8036 4.3194 11.7012C4.39626 11.6882 4.4882 11.7286 4.56643 11.7618C5.76037 12.2737 6.99823 12.6241 8.26354 12.8764C8.57369 12.9384 8.87836 12.9153 9.18439 12.8231C10.6693 12.3775 11.995 11.6219 13.1848 10.5923C13.5704 10.2578 13.7886 10.3097 14.0013 10.7841C14.0466 10.885 14.0741 10.9961 14.1043 11.1028C14.2305 11.5584 14.3897 11.9982 14.6052 12.415C14.6916 12.5808 14.7397 12.7437 14.7479 12.9456C14.7644 13.3133 14.8014 13.6983 14.9551 14.0314C15.1033 14.353 15.0992 14.6587 15.0265 14.9803C14.9757 15.2095 14.9181 15.4388 14.8467 15.6623C14.575 16.5246 14.5777 17.3567 15.0773 18.1397C15.1006 18.1772 15.1239 18.2161 15.1418 18.2565C15.172 18.3228 15.2365 18.3862 15.1322 18.4872C14.8001 18.1296 14.645 17.6566 14.4062 17.2355C14.2991 17.3336 14.2703 17.4576 14.2278 17.5701C13.7173 18.9313 13.1258 20.2551 12.4945 21.5601C11.8783 22.8348 11.28 24.1182 11.0137 25.5371C11.0041 25.589 10.9904 25.6596 10.9547 25.6827C10.4195 26.0475 10.1478 26.6344 9.83626 27.1766C9.06088 28.5278 8.41176 29.9481 7.8587 31.4146C7.64187 31.9914 7.39073 32.5509 7.05038 33.0614C6.58241 33.7622 6.02524 33.8357 5.42003 33.2762C5.21418 33.0873 4.93696 33.1017 4.78051 33.3325C4.52526 33.7074 4.30019 34.1039 4.12865 34.5322C4.01337 34.8177 4.02435 35.0902 4.13688 35.3801C4.40723 36.0809 4.89579 36.6 5.40356 37.1033C7.56364 39.2461 10.1423 40.5612 12.9721 41.4393C15.6152 42.2598 18.2735 42.4156 20.977 41.9714C23.3567 41.5806 25.5593 40.6808 27.6151 39.3715C28.6855 38.6895 29.6475 37.8733 30.4833 36.8913C30.7646 36.5596 30.8538 36.1847 30.7303 35.7651C30.5615 35.1883 30.2678 34.6764 29.9343 34.1919C29.7779 33.9641 29.4197 33.879 29.2509 34.065C28.9696 34.3736 28.7514 34.2424 28.503 34.0448C28.3054 33.8891 28.1146 33.7276 27.9403 33.543C27.3969 32.9676 27.1128 32.2409 26.8479 31.4997C26.111 29.4391 24.9829 27.5775 24.1224 25.5789C24.0922 25.5097 24.0415 25.4102 23.9893 25.4001C23.7684 25.3626 23.7739 25.191 23.7505 25.0252C23.5296 23.4606 23.0945 21.9811 22.2437 20.6516C21.6344 19.6985 21.1856 18.6718 21.0484 17.5153C21.0319 17.3725 20.9962 17.2197 20.8892 17.1101C20.7739 17.1822 20.8055 17.3408 20.6655 17.3898C20.6449 17.1404 20.7547 16.8981 20.6696 16.6544C20.3334 15.6883 20.1975 14.7265 20.4528 13.6897C20.6723 12.8014 20.7382 11.8713 20.8809 10.9614C21.0168 10.0905 21.0978 10.066 21.8155 10.5202C22.9065 11.2109 23.9962 11.9088 25.2491 12.2506C25.6814 12.3688 26.111 12.4078 26.5501 12.2924C27.8195 11.9564 29.0643 11.5498 30.2459 10.9528C30.6233 10.7625 31.0116 10.6053 31.4165 10.4914C31.599 10.4394 31.7157 10.4149 31.7266 10.7149C31.7445 11.2196 32.0231 11.3767 32.4746 11.1994C32.6447 11.133 32.8108 11.0537 32.981 10.9845C33.2074 10.8922 33.2637 10.7293 33.1717 10.5C33.0894 10.2938 33.0468 10.0789 32.6557 9.93331V9.93187ZM32.6489 9.37526C32.6983 9.50071 32.5844 9.51369 32.5048 9.53965C32.4746 9.54974 32.4691 9.56848 32.4924 9.58146C32.5967 9.63337 32.7147 9.68817 32.5363 9.79343C32.4499 9.84535 31.7568 9.82516 32.3497 9.55983C32.3854 9.54397 32.1246 9.58435 32.0752 9.58002C32.0052 9.57281 31.9037 9.61751 31.8913 9.50792C31.8817 9.41852 31.9778 9.38679 32.045 9.36516C32.1562 9.33056 32.6022 9.25846 32.6489 9.37526ZM32.5651 9.0883C32.6063 9.23683 31.7706 9.33633 31.7472 9.17771C31.7294 9.0537 31.879 9.05802 31.9682 9.0436C32.1809 9.01044 32.5006 8.85326 32.5651 9.0883ZM32.4293 8.67301C32.4677 8.68743 32.5048 8.74511 32.4732 8.78116C32.3154 8.95852 32.0546 8.92824 31.8433 8.94266C31.433 8.97006 32.2275 8.59947 32.4279 8.67301H32.4293ZM30.9773 8.29953C30.8552 8.19427 30.8305 8.00104 30.8648 7.83089C30.9211 7.54393 31.4041 7.30024 31.7445 7.37522C31.9448 7.41992 32.1479 7.79484 32.1027 8.05296C32.0793 8.18706 31.9942 8.27358 31.868 8.29809C31.7129 8.32838 31.5537 8.34424 31.3685 8.37019C31.4755 8.18562 31.6594 8.23609 31.7541 8.07891C31.5633 8.00104 31.422 8.09333 31.2724 8.16543C31.1722 8.21446 31.0748 8.38317 30.9773 8.29953ZM14.1825 2.91082C14.1413 2.47823 14.2305 2.05716 14.3815 1.65773C14.4968 1.35059 14.7095 1.14294 15.0347 1.0694C15.2667 1.01749 15.4464 1.06219 15.6097 1.25254C15.8568 1.53949 16.1573 1.75579 16.4949 1.91008C16.6321 1.97209 16.7872 2.04707 16.8984 1.87259C16.9972 1.71686 16.8915 1.59429 16.7996 1.48325C16.4949 1.11266 16.0887 0.95837 15.6427 0.892038C15.5247 0.874734 15.3737 0.870408 15.3641 0.721883C15.3559 0.58922 15.5123 0.582011 15.607 0.548845C16.1477 0.364271 16.7035 0.344083 17.2579 0.440696C17.9263 0.557497 18.3846 0.969906 18.6111 1.64043C18.7744 2.12782 18.9212 2.62243 19.0516 3.11991C19.429 4.55613 19.8352 5.97072 21.1554 6.79698C21.1197 6.85466 21.1088 6.88639 21.1005 6.88494C20.3649 6.78112 19.6252 6.8388 18.8883 6.82294C18.596 6.81717 18.3476 6.70181 18.1486 6.47254C18.0264 6.33266 17.9702 6.17981 18.0059 5.97937C18.0594 5.68088 18.0896 5.37662 17.9729 5.08102C17.9386 4.99594 17.8988 4.89933 17.7973 4.91663C17.6875 4.93538 17.7012 5.05073 17.6943 5.13725C17.6765 5.34202 17.7081 5.54534 17.7643 5.73712C17.9331 6.30382 17.6916 6.76093 17.4212 7.22525C17.4899 5.99812 17.0123 4.98873 16.3124 4.06874C15.8307 3.43426 15.4176 2.77239 15.4245 1.91729C15.4245 1.87403 15.4108 1.82789 15.3984 1.78607C15.3257 1.53805 15.2076 1.28714 14.9414 1.29003C14.6477 1.29435 14.5928 1.59284 14.5613 1.83366C14.5283 2.07591 14.5393 2.32826 14.5475 2.57484C14.5613 3.00311 14.5777 3.42705 14.4981 3.85244C14.4336 4.2014 14.4776 4.54315 14.6244 4.87337C14.7232 5.09544 14.8014 5.33192 14.8687 5.56697C15.0032 6.04282 15.0992 6.11348 15.5823 6.08176C15.7031 6.07455 15.8664 5.96928 15.9391 6.10483C16.0214 6.25768 15.9528 6.44081 15.8526 6.5778C15.5096 7.05077 15.0196 7.22381 14.4803 7.28005C14.3321 7.29591 14.3335 7.18343 14.3458 7.07817C14.5173 5.678 14.3115 4.29513 14.1797 2.90794L14.1825 2.91082ZM15.784 1.12852C16.2095 1.17323 16.4812 1.33473 16.6898 1.62168C16.7213 1.66494 16.7625 1.71974 16.7035 1.76588C16.6774 1.78607 16.6212 1.78463 16.5869 1.77021C16.2891 1.64476 16.0338 1.46162 15.7827 1.12708L15.784 1.12852ZM15.4862 5.90728C15.231 5.94188 15.0896 5.84094 15.0361 5.60013C14.9592 5.25838 14.8316 4.93826 14.7012 4.61814C14.634 4.45087 14.5942 4.27206 14.6258 4.09037C14.7328 3.47608 14.7054 2.85747 14.6807 2.23886C14.6711 2.01102 14.6861 1.78607 14.7877 1.58131C14.881 1.39385 14.999 1.37078 15.1267 1.55391C15.2035 1.66494 15.2625 1.78607 15.2639 1.92594C15.2721 2.75941 15.6358 3.43138 16.1216 4.05576C16.6349 4.71475 17.0452 5.43142 17.2113 6.28363C17.2881 6.68018 17.247 7.06663 17.1756 7.45453C17.1578 7.54826 17.1015 7.64055 17.1797 7.77609C17.5873 7.42858 17.7314 6.93253 17.9331 6.39611C18.2748 6.97579 18.7908 7.0104 19.3247 6.97579C19.5813 6.95849 19.7103 7.03491 19.6609 7.33629C19.6156 7.61315 19.606 7.89434 19.5703 8.17264C19.4262 9.30604 18.8691 9.72422 17.8494 9.96936C17.402 10.0775 16.9354 10.0905 16.4743 10.0602C15.983 10.0285 15.6166 9.79344 15.4423 9.29018C15.2598 8.76241 15.0965 8.22888 15.0608 7.65929C15.0443 7.40839 15.1253 7.26851 15.3421 7.16757C15.6811 7.00896 16.0214 6.80708 16.0695 6.38169C16.1038 6.08176 16.2012 5.90872 16.4826 5.83806C16.1326 5.76164 15.8101 5.86402 15.4849 5.90728H15.4862ZM17.8618 5.07957C17.9263 5.32039 17.9812 5.48045 17.8933 5.65781C17.8329 5.49919 17.8 5.33625 17.8618 5.07957ZM0.612682 10.451C0.353308 9.93187 0.287435 9.38391 0.464468 8.81721C0.782854 7.79196 1.84094 7.18632 2.85236 7.44732C3.83222 7.70111 4.47585 8.75088 4.31117 9.82804C4.29333 9.94917 4.23569 10.5288 3.30798 11.1994C3.21054 11.27 3.06919 11.2498 2.96352 11.2051C1.7833 10.7019 1.69547 10.9961 1.69547 10.9961C1.33179 10.7725 0.806184 10.8389 0.612682 10.451ZM1.26318 11.2845C1.17123 11.1806 1.03948 11.0653 1.03948 11.0653C1.29474 11.1835 1.86427 11.6478 1.86427 11.6478C1.50608 11.655 1.32082 11.3479 1.26455 11.283L1.26318 11.2845ZM2.0262 11.6493C1.75173 11.3335 1.09163 10.9975 1.16437 10.9326C1.22887 10.8735 2.31577 11.4575 2.58201 11.6594C2.42693 11.6911 2.08247 11.7142 2.0262 11.6507V11.6493ZM14.0357 10.4438C13.6281 10.1453 13.484 10.1496 13.0942 10.4899C12.0361 11.4142 10.8559 12.0977 9.5563 12.5736C9.0101 12.774 8.47351 12.8216 7.91771 12.6846C6.80336 12.4092 5.69175 12.1251 4.63642 11.6435C4.44429 11.5555 4.24118 11.5685 4.0367 11.5945C3.37248 11.681 2.73434 11.6046 2.1456 11.2383C2.10031 11.2095 2.05365 11.1821 2.01111 11.1489C1.99739 11.1374 1.88897 11.0653 1.96033 11.0408C2.10717 10.9903 3.17898 11.5584 3.86104 11.2816C3.65244 11.159 3.68126 11.0725 3.82536 10.9139C4.0861 10.6269 4.32764 10.5678 4.69817 10.6961C5.7096 11.0451 6.77042 10.9787 7.81753 11.0076C8.17434 11.0177 8.57918 10.9787 8.95658 11.0754C8.97991 11.0811 8.99226 11.11 8.98128 11.1316C8.8811 11.3248 8.67799 11.4387 8.57507 11.6002C8.52292 11.6824 8.44057 11.7675 8.50782 11.8728C8.5833 11.9925 8.69446 11.9463 8.79876 11.9146C9.14596 11.8065 9.35731 11.531 9.34084 11.1446C9.3326 10.9629 9.4273 10.8764 9.5261 10.7798C10.0586 10.2534 10.672 9.83814 11.2566 9.38247C11.8934 8.88787 12.4547 8.29233 13.1299 7.84819C13.4455 7.64055 13.7804 7.51077 14.1454 7.45741C14.2278 7.44588 14.3554 7.38531 14.3513 7.56556C14.3266 8.5317 14.2484 9.49062 14.037 10.4438H14.0357ZM9.14047 11.234C9.15557 11.531 9.01696 11.6911 8.70407 11.756C8.64506 11.6911 8.97854 11.3926 9.14047 11.234ZM15.1527 15.0769C15.2351 14.8937 15.2351 14.676 15.209 14.477C15.1802 14.2477 15.2735 14.167 15.4629 14.0963C16.2026 13.8209 17.461 13.6407 18.6413 13.6681C19.0804 13.7041 19.5607 13.7243 20.0342 13.8411C20.192 13.88 20.2579 13.9565 20.2318 14.1194C20.1399 14.6919 20.1701 15.26 20.2853 15.8267C20.3238 16.0142 20.2483 16.1757 20.1536 16.3329C19.2547 17.8513 17.0178 18.1065 15.8074 16.8217C15.6578 16.6631 15.5315 16.4785 15.3929 16.3055C15.102 15.9406 14.9345 15.5571 15.15 15.074L15.1527 15.0769ZM11.1661 26.0605C11.3376 26.3518 11.4392 26.6589 11.3678 27.0829C11.1345 26.7238 11.118 26.3994 11.1661 26.0605ZM29.7052 34.1501C29.7052 34.1501 29.7326 34.1688 29.7463 34.1789C29.771 34.1977 29.7971 34.2164 29.8218 34.2366C29.8493 34.2784 29.8767 34.3202 29.9042 34.362C29.9179 34.3894 29.9316 34.4168 29.9453 34.4442C29.9728 34.4846 30.0002 34.5235 30.0277 34.5639C30.0647 34.6375 30.1018 34.7096 30.1388 34.7831C30.1622 34.8264 30.1855 34.8711 30.2088 34.9143C30.2308 34.959 30.2514 35.0037 30.2733 35.0499C30.3502 35.2099 30.4339 35.3671 30.5039 35.5315C30.7084 36.0174 30.6795 36.4486 30.309 36.8625C29.5638 37.6945 28.7582 38.4458 27.8374 39.0557C25.5593 40.564 23.0945 41.5446 20.4198 41.908C17.9263 42.2468 15.4849 42.081 13.0558 41.311C10.436 40.479 8.01652 39.3066 5.9525 37.3917C5.5106 36.9807 5.09615 36.5423 4.70229 36.0809C4.48409 35.8257 4.33999 35.5257 4.24118 35.1998C4.18491 35.0124 4.17119 34.8278 4.31803 34.6129C4.30568 34.9807 4.47448 35.2071 4.6817 35.4248C7.49914 38.3938 10.8051 40.4386 14.752 41.2158C19.4976 42.1502 23.8699 41.0932 27.906 38.365C28.6361 37.8718 29.3264 37.3196 29.9865 36.7255C30.4462 36.3131 30.5094 36.0621 30.3172 35.4536C30.2802 35.3368 30.2404 35.22 30.202 35.1032C30.1814 35.0585 30.1622 35.0138 30.1416 34.9691C30.121 34.9273 30.099 34.884 30.0784 34.8422C30.0428 34.7687 30.0071 34.6937 29.97 34.6187C29.9426 34.5783 29.9151 34.538 29.8877 34.4976C29.874 34.4702 29.8589 34.4414 29.8451 34.414C29.8149 34.375 29.7848 34.3361 29.7546 34.2972C29.7395 34.2712 29.723 34.2452 29.7079 34.2193C29.6873 34.1977 29.6695 34.1731 29.7038 34.1515L29.7052 34.1501ZM29.675 34.4255C29.9124 34.7918 30.11 35.1753 30.2267 35.6007C30.3159 35.9237 30.2829 36.2179 30.0167 36.4587C27.2006 38.9908 24.0003 40.678 20.3073 41.2014C16.3151 41.7681 12.5768 40.9116 9.09107 38.8063C7.49365 37.8416 6.06092 36.6519 4.74758 35.295C4.47997 35.0181 4.40998 34.7557 4.58152 34.3981C4.73111 34.0866 4.87795 33.7752 5.06459 33.4853C5.16066 33.3368 5.26633 33.2863 5.40082 33.4334C5.49139 33.5329 5.51335 33.5978 5.35965 33.6757C4.97539 33.8718 4.915 34.0607 5.06459 34.4846C5.09341 34.5682 5.13595 34.649 5.16066 34.7341C5.34729 35.3859 5.41866 35.4753 6.03759 35.3325C6.81434 35.1523 7.43052 35.3383 8.09474 35.8185C10.7269 37.7248 13.683 38.6678 16.8682 38.8048C20.6737 38.9692 24.1801 37.9439 27.3859 35.7882C27.6274 35.6252 27.755 35.6411 27.9225 35.879C28.5702 36.799 28.9215 36.4846 29.406 35.8314C29.4527 35.7694 29.4966 35.706 29.5405 35.6425C29.9083 35.1133 29.8602 34.8711 29.3209 34.538C29.2756 34.5091 29.2317 34.4774 29.1782 34.4399C29.3662 34.1429 29.5117 34.1731 29.6763 34.4269L29.675 34.4255ZM18.4313 21.9307C19.1847 23.4274 20.0685 24.8348 21.1074 26.1326C21.5699 26.7094 21.928 27.3828 22.4564 27.8933C23.5872 28.9863 24.3667 30.3418 25.1325 31.7117C25.5414 32.4442 26.0629 33.0873 26.5227 33.778C26.8301 34.2395 27.1128 34.7182 27.4243 35.1753C27.5643 35.3801 27.5012 35.4709 27.3269 35.5906C25.455 36.8668 23.4321 37.7579 21.2487 38.2396C19.923 38.5323 18.5836 38.6765 16.7762 38.639C13.742 38.5395 10.5526 37.4912 7.70362 35.3498C7.5362 35.2229 7.44287 35.1378 7.64324 34.9561C7.72009 34.8869 7.78047 34.773 7.80243 34.6692C7.92732 34.0664 8.27589 33.5935 8.59977 33.1032C9.29418 32.0477 9.98173 30.9863 10.6665 29.9236C11.0947 29.2588 11.5627 28.6359 12.1377 28.0995C12.5878 27.6799 12.9638 27.1809 13.2918 26.6532C14.2703 25.0771 15.4849 23.6812 16.4537 22.0965C16.6335 21.8023 16.8078 21.5053 16.9835 21.2097C17.0548 21.09 17.1427 20.9602 17.2881 21.0265C17.6106 21.1765 17.87 21.0424 18.1307 20.8694C18.1815 20.8347 18.2419 20.7727 18.2954 20.842C18.3188 20.8722 18.3092 20.9515 18.2899 20.9977C18.1541 21.3423 18.2913 21.6437 18.4354 21.9307H18.4313ZM23.7629 26.4845C23.826 26.868 23.9029 27.2516 23.7739 27.7246C23.616 27.2559 23.6709 26.8709 23.7629 26.4845ZM20.3691 16.3098C20.5351 16.6054 20.6024 16.8851 20.5557 17.198C20.5118 17.4951 20.3485 17.7604 20.3485 18.0993C20.612 17.9493 20.6833 17.671 20.8411 17.4389C20.9592 17.5758 20.9482 17.7388 20.9715 17.8801C21.1129 18.7107 21.4093 19.4735 21.8265 20.1931C22.3274 21.0568 22.8461 21.9148 23.1453 22.8881C23.4267 23.8024 23.6051 24.7411 23.675 25.6942C23.7066 26.1326 23.5858 26.584 23.5337 27.0295C23.5104 27.2343 23.531 27.4347 23.5982 27.6265C23.6339 27.7303 23.6901 27.8486 23.8233 27.827C23.9427 27.8068 23.9468 27.6856 23.9564 27.5861C24.003 27.1247 23.9536 26.6661 23.9042 26.2076C23.8836 26.0129 23.8246 25.811 23.9605 25.6121C23.9989 25.6582 24.036 25.6856 24.0524 25.7231C24.8978 27.6409 25.9463 29.4578 26.6736 31.4362C26.8013 31.7823 26.922 32.1327 27.0689 32.4687C27.5121 33.4853 28.2546 34.1861 29.2043 34.6677C29.6928 34.9143 29.7244 35.0931 29.3895 35.5373C29.2564 35.7132 29.1343 35.8992 28.9915 36.0679C28.7418 36.3621 28.514 36.3664 28.2573 36.0838C28.0048 35.8069 27.7825 35.5027 27.5835 35.1825C27.0442 34.3159 26.4417 33.494 25.8777 32.6461C25.3027 31.7794 24.7921 30.8652 24.2679 29.9625C23.8068 29.1694 23.192 28.5148 22.6156 27.8183C21.1129 25.9985 19.6678 24.1297 18.6111 21.9653C18.3819 21.4966 18.3599 21.0943 18.5877 20.6271C18.7675 20.2608 19.0241 19.9436 19.1998 19.5773C19.1779 19.5586 19.1559 19.5398 19.1339 19.5225C18.8691 19.8181 18.6056 20.1123 18.3407 20.4079C18.187 20.5795 18.0415 20.7626 17.8275 20.8593C17.6875 20.9227 17.553 20.9645 17.3965 20.8895C17.1632 20.7785 16.9835 20.8665 16.8558 21.0943C15.6413 23.2645 14.026 25.1348 12.7017 27.2242C12.5466 27.4679 12.3545 27.6799 12.1377 27.8673C11.4433 28.4686 10.9136 29.217 10.4236 30C9.71 31.1378 8.98952 32.2697 8.21551 33.3627C7.97672 33.6987 7.79694 34.065 7.68029 34.4702C7.53482 34.9763 7.37426 35.083 6.86237 35.0758C6.51791 35.0701 6.18168 35.1508 5.84271 35.2027C5.56001 35.2474 5.39258 35.1494 5.34043 34.8365C5.31436 34.685 5.23751 34.5423 5.1881 34.3952C5.06596 34.0362 5.19496 33.8213 5.55589 33.7939C5.68352 33.7838 5.81252 33.7982 5.94152 33.804C6.46576 33.8271 6.87472 33.6165 7.17115 33.1551C7.5458 32.5725 7.8189 31.9381 8.06318 31.2892C8.66976 29.6727 9.42318 28.1327 10.2905 26.6561C10.414 26.4455 10.5595 26.2494 10.705 26.0547C10.7612 25.9783 10.8422 25.8803 10.9437 25.9264C11.0343 25.9668 10.9986 26.0865 10.9986 26.1715C10.9973 26.4426 11 26.7137 11.118 26.9646C11.1757 27.0887 11.2457 27.2271 11.3939 27.2055C11.5695 27.1795 11.5407 27.0093 11.5366 26.8796C11.5243 26.5162 11.4611 26.1615 11.2621 25.8543C11.1757 25.7216 11.1565 25.5991 11.1853 25.4433C11.398 24.3042 11.8564 23.2616 12.3394 22.232C13.0448 20.728 13.7488 19.2255 14.3321 17.6624C14.3472 17.622 14.3719 17.5859 14.4144 17.5037C14.6587 18.0286 14.9277 18.5002 15.2625 18.9241C15.6509 19.4158 16.0242 19.9234 16.5512 20.2695L16.5457 20.2378C16.4867 19.9883 16.311 19.8513 16.1793 19.6509C15.8019 19.0755 15.4149 18.5088 15.1129 17.8844C15.0388 17.7301 14.8728 17.5903 15.0471 17.3581C15.1075 17.2788 14.9785 17.0466 14.9428 16.8823C14.8728 16.5636 14.8399 16.2435 14.9565 15.8238C15.5068 17.0149 16.3247 17.746 17.5338 17.8008C18.7058 17.8542 19.687 17.397 20.3677 16.3098H20.3691ZM20.8233 10.5865C20.6559 11.5498 20.4967 12.513 20.3416 13.4777C20.3114 13.6666 20.2922 13.769 20.0479 13.7142C18.4876 13.3667 16.9382 13.4561 15.419 13.9608C15.1075 14.0646 14.9977 13.9867 14.9839 13.6882C14.9757 13.4993 14.7644 13.2672 15.0937 13.1201C15.1692 13.0869 15.0498 12.8966 14.9867 12.7971C14.6875 12.3256 14.4652 11.8194 14.2854 11.2859C14.1468 10.8749 14.166 10.4683 14.2456 10.0559C14.3856 9.32479 14.4583 8.58793 14.4501 7.84242C14.4501 7.77465 14.4666 7.70832 14.4652 7.64055C14.4625 7.43578 14.5942 7.40983 14.7424 7.39829C14.9249 7.38387 14.9153 7.52519 14.9222 7.64776C14.9579 8.24907 15.1171 8.81865 15.3106 9.38103C15.478 9.86553 15.8334 10.1453 16.2932 10.1914C17.0301 10.2664 17.7712 10.2433 18.4738 9.93042C19.0694 9.6651 19.5086 9.26134 19.628 8.55477C19.6993 8.13371 19.8133 7.71841 19.7707 7.28582C19.746 7.03635 19.8531 6.97002 20.0644 6.97435C20.3114 6.97867 20.2606 7.1272 20.2373 7.29591C20.1234 8.11064 20.1618 8.91238 20.4583 9.68529C20.5324 9.87995 20.6051 10.0818 20.7904 10.2001C20.8576 10.3226 20.8466 10.4481 20.8233 10.5865ZM31.647 10.3082C30.8058 10.4784 30.0757 10.9499 29.2866 11.2628C28.4151 11.6075 27.5327 11.916 26.6297 12.1597C25.9312 12.3472 25.2711 12.1756 24.6233 11.9103C23.7025 11.5325 22.8393 11.0364 21.998 10.4986C21.6248 10.2606 21.2666 9.99531 20.7986 10.1958C20.837 10.128 20.7917 10.0746 20.7615 10.0213C20.2771 9.15896 20.2675 8.22599 20.3828 7.2714C20.4089 7.05654 20.4939 7.00175 20.697 7.0104C21.1719 7.03059 21.5561 7.21949 21.9047 7.55547C22.9161 8.5317 24.036 9.36516 25.1421 10.2145C25.5085 10.4957 25.9079 10.6154 26.38 10.4798C27.2926 10.2174 28.2367 10.1626 29.1741 10.066C29.9728 9.98378 30.5848 9.58291 30.9787 8.83307C31.1516 8.50286 31.8062 8.31828 32.255 8.4769C32.1328 8.60524 31.9874 8.63408 31.8419 8.63696C31.6292 8.64273 31.5331 8.82009 31.3973 8.93978C31.3479 8.98304 31.3781 9.01476 31.4124 9.06956C31.5867 9.35507 31.6662 9.68384 31.7747 9.99964C31.8213 10.1381 31.8309 10.2707 31.6484 10.3068L31.647 10.3082ZM32.6077 11.022C32.5418 11.0566 32.4663 11.0754 32.395 11.0984C32.2632 11.1417 32.1178 11.2196 32.0121 11.0682C31.905 10.9153 31.7678 10.7264 31.8748 10.5447C31.9997 10.3327 31.9558 10.1655 31.8982 9.97224C31.8707 9.8814 31.8007 9.72566 31.8186 9.56416C31.8447 9.95494 32.3414 9.7819 32.4169 10.1035C32.4334 10.1712 32.5144 10.1035 32.5597 10.0516C32.5679 10.0429 32.5734 10.0342 32.5816 10.0256C32.9055 10.1222 33.0935 10.4265 33.0729 10.6831C33.051 10.9528 32.7792 10.9326 32.6063 11.022H32.6077Z" stroke="#8426D7" stroke-width="0.428571" mask="url(#path-1-outside-1_4282_16817)"/>
</svg>
